Fira Sans-Regular.ufo
<glyph name="dollar" format="1">
  <advance width="531"/>
  <unicode hex="0024"/>
  <outline>
    <contour>
      <point x="230" y="-7" type="line"/>
      <point x="230" y="-155" type="line"/>
      <point x="310" y="-155" type="line"/>
      <point x="310" y="2" type="line"/>
    </contour>
    <contour>
      <point x="230" y="824" type="line"/>
      <point x="230" y="662" type="line"/>
      <point x="310" y="664" type="line"/>
      <point x="310" y="824" type="line"/>
    </contour>
    <contour>
      <point x="140" y="680"/>
      <point x="52" y="608"/>
      <point x="52" y="505" type="curve" smooth="yes"/>
      <point x="52" y="402"/>
      <point x="120" y="352"/>
      <point x="250" y="312" type="curve" smooth="yes"/>
      <point x="364" y="277"/>
      <point x="395" y="248"/>
      <point x="395" y="183" type="curve" smooth="yes"/>
      <point x="395" y="103"/>
      <point x="330" y="64"/>
      <point x="251" y="64" type="curve" smooth="yes"/>
      <point x="179" y="64"/>
      <point x="124" y="90"/>
      <point x="79" y="134" type="curve"/>
      <point x="25" y="75" type="line"/>
      <point x="81" y="20"/>
      <point x="156" y="-12"/>
      <point x="252" y="-12" type="curve" smooth="yes"/>
      <point x="403" y="-12"/>
      <point x="491" y="70"/>
      <point x="491" y="186" type="curve" smooth="yes"/>
      <point x="491" y="314"/>
      <point x="400" y="356"/>
      <point x="293" y="389" type="curve" smooth="yes"/>
      <point x="173" y="426"/>
      <point x="147" y="453"/>
      <point x="147" y="509" type="curve" smooth="yes"/>
      <point x="147" y="573"/>
      <point x="200" y="604"/>
      <point x="267" y="604" type="curve" smooth="yes"/>
      <point x="323" y="604"/>
      <point x="371" y="587"/>
      <point x="417" y="544" type="curve"/>
      <point x="470" y="602" type="line"/>
      <point x="415" y="653"/>
      <point x="356" y="680"/>
      <point x="263" y="680" type="curve" smooth="yes"/>
    </contour>
  </outline>
</glyph>
<glyph name="ampersand" format="1">
  <advance width="763"/>
  <unicode hex="0026"/>
  <outline>
    <contour>
      <point x="186" y="701"/>
      <point x="123" y="633"/>
      <point x="123" y="546" type="curve" smooth="yes"/>
      <point x="123" y="476.506"/>
      <point x="160.778" y="431.051"/>
      <point x="220.421" y="373.837" type="curve"/>
      <point x="135.139" y="319.782"/>
      <point x="81" y="262"/>
      <point x="81" y="175" type="curve" smooth="yes"/>
      <point x="81" y="61"/>
      <point x="173" y="-11.9999"/>
      <point x="305" y="-11.9999" type="curve" smooth="yes"/>
      <point x="399.72" y="-11.9999"/>
      <point x="470.216" y="21.1966"/>
      <point x="525.836" y="82.4899" type="curve"/>
      <point x="623" y="-11.9999" type="line"/>
      <point x="689" y="42" type="line"/>
      <point x="577.211" y="146.518" type="line"/>
      <point x="609.576" y="197.287"/>
      <point x="640.656" y="261.631"/>
      <point x="666" y="344" type="curve"/>
      <point x="580" y="369" type="line"/>
      <point x="564.849" y="303.939"/>
      <point x="543.343" y="246.822"/>
      <point x="520.439" y="199.772" type="curve"/>
      <point x="344.224" y="365.721" type="line"/>
      <point x="418.969" y="410.095"/>
      <point x="485" y="463.04"/>
      <point x="485" y="549" type="curve" smooth="yes"/>
      <point x="485" y="636"/>
      <point x="411" y="701"/>
      <point x="302" y="701" type="curve" smooth="yes"/>
    </contour>
    <contour>
      <point x="472.519" y="132.917" type="line"/>
      <point x="427.837" y="86.6345"/>
      <point x="378.932" y="61"/>
      <point x="315" y="61" type="curve" smooth="yes"/>
      <point x="233" y="61"/>
      <point x="175" y="104"/>
      <point x="175" y="178" type="curve" smooth="yes"/>
      <point x="175" y="237"/>
      <point x="207.168" y="280.53"/>
      <point x="273.071" y="324.019" type="curve"/>
    </contour>
    <contour>
      <point x="359" y="633"/>
      <point x="395" y="600"/>
      <point x="395" y="544" type="curve" smooth="yes"/>
      <point x="395" y="491.149"/>
      <point x="354.313" y="453.243"/>
      <point x="291.855" y="415.151" type="curve"/>
      <point x="244.259" y="460.057"/>
      <point x="213" y="495.303"/>
      <point x="213" y="547" type="curve" smooth="yes"/>
      <point x="213" y="596"/>
      <point x="245" y="633"/>
      <point x="303" y="633" type="curve" smooth="yes"/>
    </contour>
  </outline>
</glyph>
<glyph name="parenright" format="1">
  <advance width="324"/>
  <unicode hex="0029"/>
  <outline>
    <contour>
      <point x="40" y="805" type="line"/>
      <point x="130" y="672"/>
      <point x="188" y="565"/>
      <point x="188" y="350" type="curve" smooth="yes"/>
      <point x="188" y="136"/>
      <point x="130" y="28"/>
      <point x="40" y="-105" type="curve"/>
      <point x="98" y="-145" type="line"/>
      <point x="196" y="-6"/>
      <point x="284" y="113"/>
      <point x="284" y="350" type="curve" smooth="yes"/>
      <point x="284" y="587"/>
      <point x="196" y="706"/>
      <point x="98" y="845" type="curve"/>
    </contour>
  </outline>
</glyph>
<glyph name="asterisk" format="1">
  <advance width="439"/>
  <unicode hex="002A"/>
  <outline>
    <contour>
      <point x="212" y="505" type="line"/>
      <point x="298" y="359" type="line"/>
      <point x="370" y="412" type="line"/>
      <point x="258" y="537" type="line"/>
      <point x="219" y="543" type="line"/>
    </contour>
    <contour>
      <point x="174" y="739" type="line"/>
      <point x="190" y="569" type="line"/>
      <point x="219" y="543" type="line"/>
      <point x="248" y="569" type="line"/>
      <point x="264" y="739" type="line"/>
    </contour>
    <contour>
      <point x="238" y="576" type="line"/>
      <point x="219" y="543" type="line"/>
      <point x="254" y="525" type="line"/>
      <point x="419" y="561" type="line"/>
      <point x="391" y="644" type="line"/>
    </contour>
    <contour>
      <point x="20" y="561" type="line"/>
      <point x="184" y="525" type="line"/>
      <point x="219" y="543" type="line"/>
      <point x="202" y="576" type="line"/>
      <point x="47" y="643" type="line"/>
    </contour>
    <contour>
      <point x="181" y="538" type="line"/>
      <point x="69" y="411" type="line"/>
      <point x="141" y="359" type="line"/>
      <point x="226" y="504" type="line"/>
      <point x="219" y="543" type="line"/>
    </contour>
  </outline>
</glyph>
<glyph name="comma" format="1">
  <advance width="240"/>
  <unicode hex="002C"/>
  <outline>
    <contour>
      <point x="80" y="127"/>
      <point x="50" y="96"/>
      <point x="50" y="58" type="curve" smooth="yes"/>
      <point x="50" y="34"/>
      <point x="61" y="13"/>
      <point x="78" y="0" type="curve"/>
      <point x="38" y="-166" type="line"/>
      <point x="104" y="-166" type="line"/>
      <point x="171" y="-13" type="line" smooth="yes"/>
      <point x="184" y="16"/>
      <point x="189" y="36"/>
      <point x="189" y="58" type="curve" smooth="yes"/>
      <point x="189" y="96"/>
      <point x="159" y="127"/>
      <point x="119" y="127" type="curve" smooth="yes"/>
    </contour>
  </outline>
</glyph>
<glyph name="one" format="1">
  <advance width="433"/>
  <unicode hex="0031"/>
  <outline>
    <contour>
      <point x="242" y="669" type="line"/>
      <point x="35" y="541" type="line"/>
      <point x="75" y="476" type="line"/>
      <point x="231" y="571" type="line"/>
      <point x="231" y="0" type="line"/>
      <point x="323" y="0" type="line"/>
      <point x="323" y="669" type="line"/>
    </contour>
  </outline>
</glyph>
<glyph name="three" format="1">
  <advance width="499"/>
  <unicode hex="0033"/>
  <outline>
    <contour>
      <point x="153" y="679"/>
      <point x="91" y="653"/>
      <point x="34" y="600" type="curve"/>
      <point x="82" y="545" type="line"/>
      <point x="127" y="587"/>
      <point x="167" y="605"/>
      <point x="220" y="605" type="curve" smooth="yes"/>
      <point x="287" y="605"/>
      <point x="331" y="566"/>
      <point x="331" y="503" type="curve" smooth="yes"/>
      <point x="331" y="425"/>
      <point x="276" y="385"/>
      <point x="210" y="385" type="curve" smooth="yes"/>
      <point x="176" y="385" type="line"/>
      <point x="165" y="314" type="line"/>
      <point x="215" y="314" type="line" smooth="yes"/>
      <point x="296" y="314"/>
      <point x="348" y="286"/>
      <point x="348" y="194" type="curve" smooth="yes"/>
      <point x="348" y="115"/>
      <point x="297" y="63"/>
      <point x="213" y="63" type="curve" smooth="yes"/>
      <point x="159" y="63"/>
      <point x="113" y="83"/>
      <point x="71" y="130" type="curve"/>
      <point x="15" y="78" type="line"/>
      <point x="66" y="17"/>
      <point x="136" y="-12"/>
      <point x="216" y="-12" type="curve" smooth="yes"/>
      <point x="355" y="-12"/>
      <point x="444" y="76"/>
      <point x="444" y="193" type="curve" smooth="yes"/>
      <point x="444" y="294"/>
      <point x="377" y="347"/>
      <point x="293" y="355" type="curve"/>
      <point x="368" y="373"/>
      <point x="423" y="424"/>
      <point x="423" y="509" type="curve" smooth="yes"/>
      <point x="423" y="599"/>
      <point x="353" y="679"/>
      <point x="225" y="679" type="curve" smooth="yes"/>
    </contour>
  </outline>
</glyph>
<glyph name="nine" format="1">
  <advance width="525"/>
  <unicode hex="0039"/>
  <outline>
    <contour>
      <point x="391" y="414" type="line"/>
      <point x="358" y="354"/>
      <point x="312" y="315"/>
      <point x="249" y="315" type="curve" smooth="yes"/>
      <point x="184" y="315"/>
      <point x="138" y="360"/>
      <point x="138" y="456" type="curve" smooth="yes"/>
      <point x="138" y="552"/>
      <point x="183" y="606"/>
      <point x="261" y="606" type="curve" smooth="yes"/>
      <point x="347" y="606"/>
      <point x="388" y="544"/>
      <point x="381" y="379" type="curve"/>
      <point x="380" y="333" type="line"/>
      <point x="378" y="176"/>
      <point x="270" y="96"/>
      <point x="98" y="47" type="curve"/>
      <point x="119" y="-22" type="line"/>
      <point x="365" y="49"/>
      <point x="475" y="142"/>
      <point x="475" y="419" type="curve" smooth="yes"/>
      <point x="475" y="576"/>
      <point x="403" y="679"/>
      <point x="259" y="679" type="curve" smooth="yes"/>
      <point x="143" y="679"/>
      <point x="45" y="598"/>
      <point x="45" y="458" type="curve" smooth="yes"/>
      <point x="45" y="325"/>
      <point x="126" y="243"/>
      <point x="230" y="243" type="curve" smooth="yes"/>
      <point x="303" y="243"/>
      <point x="359" y="284"/>
      <point x="386" y="333" type="curve"/>
    </contour>
  </outline>
</glyph>
<glyph name="less" format="1">
  <advance width="500"/>
  <unicode hex="003C"/>
  <outline>
    <contour>
      <point x="50" y="380" type="line"/>
      <point x="50" y="286" type="line"/>
      <point x="417" y="115" type="line"/>
      <point x="450" y="189" type="line"/>
      <point x="123" y="333" type="line"/>
      <point x="450" y="475" type="line"/>
      <point x="417" y="551" type="line"/>
    </contour>
  </outline>
</glyph>
<glyph name="A" format="1">
  <advance width="573"/>
  <unicode hex="0041"/>
  <outline>
    <contour>
      <point x="227" y="689" type="line"/>
      <point x="6" y="0" type="line"/>
      <point x="102" y="0" type="line"/>
      <point x="285" y="610" type="line"/>
      <point x="467" y="0" type="line"/>
      <point x="567" y="0" type="line"/>
      <point x="347" y="689" type="line"/>
    </contour>
    <contour>
      <point x="162" y="250" type="line"/>
      <point x="139" y="173" type="line"/>
      <point x="430" y="173" type="line"/>
      <point x="407" y="250" type="line"/>
    </contour>
    <contour>
      <point x="537" y="0" type="move" name="ogonek"/>
    </contour>
    <contour>
      <point x="287" y="689" type="move" name="top"/>
    </contour>
    <contour>
      <point x="140" y="689" type="move" name="topleft"/>
    </contour>
  </outline>
</glyph>
<glyph name="F" format="1">
  <advance width="491"/>
  <unicode hex="0046"/>
  <outline>
    <contour>
      <point x="100" y="689" type="line"/>
      <point x="100" y="0" type="line"/>
      <point x="195" y="0" type="line"/>
      <point x="195" y="303" type="line"/>
      <point x="420" y="303" type="line"/>
      <point x="420" y="378" type="line"/>
      <point x="195" y="378" type="line"/>
      <point x="195" y="613" type="line"/>
      <point x="455" y="613" type="line"/>
      <point x="466" y="689" type="line"/>
    </contour>
  </outline>
</glyph>
<glyph name="H" format="1">
  <advance width="680"/>
  <unicode hex="0048"/>
  <outline>
    <contour>
      <point x="580" y="0" type="line"/>
      <point x="580" y="689" type="line"/>
      <point x="485" y="689" type="line"/>
      <point x="485" y="401" type="line"/>
      <point x="195" y="401" type="line"/>
      <point x="195" y="689" type="line"/>
      <point x="100" y="689" type="line"/>
      <point x="100" y="0" type="line"/>
      <point x="195" y="0" type="line"/>
      <point x="195" y="323" type="line"/>
      <point x="485" y="323" type="line"/>
      <point x="485" y="0" type="line"/>
    </contour>
    <contour>
      <point x="340" y="689" type="move" name="top"/>
    </contour>
    <contour>
      <point x="90" y="689" type="move" name="topleft"/>
    </contour>
    <contour>
      <point x="590" y="0" type="move" name="bottomright"/>
    </contour>
    <contour>
      <point x="340" y="345" type="move" name="center"/>
    </contour>
  </outline>
</glyph>
<glyph name="I" format="1">
  <advance width="296"/>
  <unicode hex="0049"/>
  <outline>
    <contour>
      <point x="100" y="689" type="line"/>
      <point x="100" y="0" type="line"/>
      <point x="196" y="0" type="line"/>
      <point x="196" y="689" type="line"/>
    </contour>
    <contour>
      <point x="206" y="0" type="move" name="ogonek"/>
    </contour>
    <contour>
      <point x="148" y="689" type="move" name="top"/>
    </contour>
    <contour>
      <point x="90" y="689" type="move" name="topleft"/>
    </contour>
  </outline>
</glyph>
<glyph name="L" format="1">
  <advance width="498"/>
  <unicode hex="004C"/>
  <outline>
    <contour>
      <point x="100" y="689" type="line"/>
      <point x="100" y="0" type="line"/>
      <point x="467" y="0" type="line"/>
      <point x="478" y="83" type="line"/>
      <point x="195" y="83" type="line"/>
      <point x="195" y="689" type="line"/>
    </contour>
    <contour>
      <point x="284" y="0" type="move" name="bottom"/>
    </contour>
    <contour>
      <point x="148" y="689" type="move" name="top"/>
    </contour>
    <contour>
      <point x="220" y="689" type="move" name="topright"/>
    </contour>
    <contour>
      <point x="390" y="390" type="move" name="center"/>
    </contour>
  </outline>
</glyph>
<glyph name="N" format="1">
  <advance width="683"/>
  <unicode hex="004E"/>
  <outline>
    <contour>
      <point x="494" y="689" type="line"/>
      <point x="494" y="313" type="line" smooth="yes"/>
      <point x="494" y="229"/>
      <point x="505" y="119"/>
      <point x="507" y="103" type="curve"/>
      <point x="224" y="689" type="line"/>
      <point x="100" y="689" type="line"/>
      <point x="100" y="0" type="line"/>
      <point x="189" y="0" type="line"/>
      <point x="189" y="316" type="line" smooth="yes"/>
      <point x="189" y="444"/>
      <point x="181" y="528"/>
      <point x="176" y="585" type="curve"/>
      <point x="456" y="0" type="line"/>
      <point x="583" y="0" type="line"/>
      <point x="583" y="689" type="line"/>
    </contour>
    <contour>
      <point x="353" y="689" type="move" name="top"/>
    </contour>
    <contour>
      <point x="343" y="0" type="move" name="bottom"/>
    </contour>
  </outline>
</glyph>
<glyph name="Q" format="1">
  <advance width="689"/>
  <unicode hex="0051"/>
  <outline>
    <contour>
      <point x="174" y="701"/>
      <point x="55" y="570"/>
      <point x="55" y="343" type="curve" smooth="yes"/>
      <point x="55" y="112"/>
      <point x="174" y="-10"/>
      <point x="344" y="-10" type="curve" smooth="yes"/>
      <point x="365" y="-10"/>
      <point x="384" y="-8"/>
      <point x="403" y="-5" type="curve"/>
      <point x="479" y="39" type="line"/>
      <point x="577" y="90"/>
      <point x="637" y="175"/>
      <point x="637" y="344" type="curve" smooth="yes"/>
      <point x="637" y="576"/>
      <point x="519" y="701"/>
      <point x="346" y="701" type="curve" smooth="yes"/>
    </contour>
    <contour>
      <point x="344" y="-10" type="line"/>
      <point x="469" y="-10"/>
      <point x="526" y="-33"/>
      <point x="604" y="-103" type="curve"/>
      <point x="666" y="-23" type="line"/>
      <point x="617" y="11"/>
      <point x="558" y="39"/>
      <point x="479" y="39" type="curve"/>
    </contour>
    <contour>
      <point x="464" y="623"/>
      <point x="536" y="542"/>
      <point x="536" y="344" type="curve" smooth="yes"/>
      <point x="536" y="144"/>
      <point x="462" y="66"/>
      <point x="346" y="66" type="curve" smooth="yes"/>
      <point x="234" y="66"/>
      <point x="156" y="144"/>
      <point x="156" y="343" type="curve" smooth="yes"/>
      <point x="156" y="542"/>
      <point x="231" y="623"/>
      <point x="346" y="623" type="curve" smooth="yes"/>
    </contour>
  </outline>
</glyph>
<glyph name="R" format="1">
  <advance width="605"/>
  <unicode hex="0052"/>
  <outline>
    <contour>
      <point x="100" y="689" type="line"/>
      <point x="100" y="0" type="line"/>
      <point x="195" y="0" type="line"/>
      <point x="195" y="615" type="line"/>
      <point x="280" y="615" type="line" smooth="yes"/>
      <point x="393" y="615"/>
      <point x="442" y="580"/>
      <point x="442" y="494" type="curve" smooth="yes"/>
      <point x="442" y="401"/>
      <point x="387" y="365"/>
      <point x="291" y="365" type="curve" smooth="yes"/>
      <point x="179" y="365" type="line"/>
      <point x="179" y="292" type="line"/>
      <point x="309" y="292" type="line"/>
      <point x="464" y="312"/>
      <point x="543" y="372"/>
      <point x="543" y="494" type="curve" smooth="yes"/>
      <point x="543" y="623"/>
      <point x="453" y="689"/>
      <point x="281" y="689" type="curve" smooth="yes"/>
    </contour>
    <contour>
      <point x="294" y="306" type="line"/>
      <point x="467" y="0" type="line"/>
      <point x="580" y="0" type="line"/>
      <point x="389" y="317" type="line"/>
    </contour>
    <contour>
      <point x="299" y="689" type="move" name="top"/>
    </contour>
    <contour>
      <point x="309" y="0" type="move" name="bottom"/>
    </contour>
  </outline>
</glyph>
<glyph name="V" format="1">
  <advance width="556"/>
  <unicode hex="0056"/>
  <outline>
    <contour>
      <point x="454" y="689" type="line"/>
      <point x="281" y="103" type="line"/>
      <point x="108" y="689" type="line"/>
      <point x="6" y="689" type="line"/>
      <point x="228" y="0" type="line"/>
      <point x="330" y="0" type="line"/>
      <point x="550" y="689" type="line"/>
    </contour>
  </outline>
</glyph>
<glyph name="Y" format="1">
  <advance width="550"/>
  <unicode hex="0059"/>
  <outline>
    <contour>
      <point x="446" y="689" type="line"/>
      <point x="278" y="348" type="line"/>
      <point x="110" y="689" type="line"/>
      <point x="5" y="689" type="line"/>
      <point x="227" y="264" type="line"/>
      <point x="227" y="0" type="line"/>
      <point x="323" y="0" type="line"/>
      <point x="323" y="265" type="line"/>
      <point x="545" y="689" type="line"/>
    </contour>
    <contour>
      <point x="278" y="689" type="move" name="top"/>
    </contour>
    <contour>
      <point x="5" y="689" type="move" name="topleft"/>
    </contour>
  </outline>
</glyph>
<glyph name="Z" format="1">
  <advance width="522"/>
  <unicode hex="005A"/>
  <outline>
    <contour>
      <point x="66" y="689" type="line"/>
      <point x="66" y="609" type="line"/>
      <point x="374" y="609" type="line"/>
      <point x="30" y="76" type="line"/>
      <point x="30" y="0" type="line"/>
      <point x="466" y="0" type="line"/>
      <point x="477" y="81" type="line"/>
      <point x="136" y="81" type="line"/>
      <point x="477" y="612" type="line"/>
      <point x="477" y="689" type="line"/>
    </contour>
    <contour>
      <point x="272" y="689" type="move" name="top"/>
    </contour>
  </outline>
</glyph>
<glyph name="bracketleft" format="1">
  <advance width="322"/>
  <unicode hex="005B"/>
  <outline>
    <contour>
      <point x="65" y="816" type="line"/>
      <point x="65" y="-116" type="line"/>
      <point x="272" y="-116" type="line"/>
      <point x="272" y="-40" type="line"/>
      <point x="152" y="-40" type="line"/>
      <point x="152" y="739" type="line"/>
      <point x="272" y="739" type="line"/>
      <point x="272" y="816" type="line"/>
    </contour>
  </outline>
</glyph>
<glyph name="asciicircum" format="1">
  <advance width="540"/>
  <unicode hex="005E"/>
  <outline>
    <contour>
      <point x="229" y="840" type="line"/>
      <point x="40" y="527" type="line"/>
      <point x="137" y="527" type="line"/>
      <point x="269" y="760" type="line"/>
      <point x="402" y="527" type="line"/>
      <point x="500" y="527" type="line"/>
      <point x="311" y="840" type="line"/>
    </contour>
  </outline>
</glyph>
<glyph name="g" format="1">
  <advance width="520"/>
  <unicode hex="0067"/>
  <outline>
    <contour>
      <point x="431" y="558"/>
      <point x="383" y="536"/>
      <point x="252" y="539" type="curve" smooth="yes"/>
      <point x="136" y="539"/>
      <point x="49" y="463"/>
      <point x="49" y="355" type="curve" smooth="yes"/>
      <point x="49" y="287.005"/>
      <point x="76.763" y="240.699"/>
      <point x="137.945" y="208.81" type="curve"/>
      <point x="99.5455" y="184.186"/>
      <point x="80" y="150.484"/>
      <point x="80" y="116" type="curve" smooth="yes"/>
      <point x="80" y="62.9999"/>
      <point x="122" y="15.9999"/>
      <point x="216" y="15.9999" type="curve" smooth="yes"/>
      <point x="299" y="15.9999" type="line" smooth="yes"/>
      <point x="365" y="15.9999"/>
      <point x="405" y="-9"/>
      <point x="405" y="-59" type="curve" smooth="yes"/>
      <point x="405" y="-112"/>
      <point x="365" y="-141"/>
      <point x="251" y="-141" type="curve" smooth="yes"/>
      <point x="135" y="-141"/>
      <point x="108" y="-113"/>
      <point x="108" y="-53" type="curve"/>
      <point x="25" y="-53" type="line"/>
      <point x="25" y="-160"/>
      <point x="79" y="-213"/>
      <point x="251" y="-213" type="curve" smooth="yes"/>
      <point x="414" y="-213"/>
      <point x="498" y="-155"/>
      <point x="498" y="-53" type="curve" smooth="yes"/>
      <point x="498" y="30.9999"/>
      <point x="426" y="92.9999"/>
      <point x="318" y="92.9999" type="curve" smooth="yes"/>
      <point x="234" y="93" type="line" smooth="yes"/>
      <point x="180" y="93"/>
      <point x="165" y="112"/>
      <point x="165" y="136" type="curve" smooth="yes"/>
      <point x="165" y="155.484"/>
      <point x="175.545" y="174.309"/>
      <point x="191.285" y="184.984" type="curve"/>
      <point x="212.712" y="178.088"/>
      <point x="234.391" y="175"/>
      <point x="258" y="175" type="curve" smooth="yes"/>
      <point x="384" y="175"/>
      <point x="459" y="250"/>
      <point x="459" y="354" type="curve" smooth="yes"/>
      <point x="459" y="415"/>
      <point x="428" y="459"/>
      <point x="366" y="487" type="curve"/>
      <point x="426" y="487"/>
      <point x="476" y="489"/>
      <point x="520" y="503" type="curve"/>
      <point x="493" y="586" type="line"/>
    </contour>
    <contour>
      <point x="327" y="473"/>
      <point x="365" y="433"/>
      <point x="365" y="356" type="curve" smooth="yes"/>
      <point x="365" y="280"/>
      <point x="326" y="236"/>
      <point x="254" y="236" type="curve" smooth="yes"/>
      <point x="182" y="236"/>
      <point x="143" y="285"/>
      <point x="143" y="355" type="curve" smooth="yes"/>
      <point x="143" y="424"/>
      <point x="181" y="473"/>
      <point x="252" y="473" type="curve" smooth="yes"/>
    </contour>
    <contour>
      <point x="257" y="527" type="move" name="top"/>
    </contour>
  </outline>
</glyph>
<glyph name="h" format="1">
  <advance width="586"/>
  <unicode hex="0068"/>
  <outline>
    <contour>
      <point x="267" y="539"/>
      <point x="209" y="495"/>
      <point x="171" y="430" type="curve"/>
      <point x="187" y="375" type="line"/>
      <point x="222" y="430"/>
      <point x="263" y="467"/>
      <point x="320" y="467" type="curve" smooth="yes"/>
      <point x="370" y="467"/>
      <point x="404" y="444"/>
      <point x="404" y="365" type="curve" smooth="yes"/>
      <point x="404" y="0" type="line"/>
      <point x="496" y="0" type="line"/>
      <point x="496" y="378" type="line" smooth="yes"/>
      <point x="496" y="477"/>
      <point x="439" y="539"/>
      <point x="343" y="539" type="curve" smooth="yes"/>
    </contour>
    <contour>
      <point x="95" y="738" type="line"/>
      <point x="95" y="0" type="line"/>
      <point x="187" y="0" type="line"/>
      <point x="187" y="748" type="line"/>
    </contour>
    <contour>
      <point x="292" y="264" type="move" name="center"/>
    </contour>
    <contour>
      <point x="292" y="739" type="move" name="top"/>
    </contour>
  </outline>
</glyph>
<glyph name="k" format="1">
  <advance width="512"/>
  <unicode hex="006B"/>
  <outline>
    <contour>
      <point x="387" y="527" type="line"/>
      <point x="193" y="288" type="line"/>
      <point x="402" y="0" type="line"/>
      <point x="512" y="0" type="line"/>
      <point x="296" y="294" type="line"/>
      <point x="490" y="527" type="line"/>
    </contour>
    <contour>
      <point x="95" y="739" type="line"/>
      <point x="95" y="0" type="line"/>
      <point x="187" y="0" type="line"/>
      <point x="187" y="750" type="line"/>
    </contour>
    <contour>
      <point x="255" y="0" type="move" name="bottom"/>
    </contour>
  </outline>
</glyph>
<glyph name="l" format="1">
  <advance width="293"/>
  <unicode hex="006C"/>
  <outline>
    <contour>
      <point x="90" y="739" type="line"/>
      <point x="90" y="104" type="line" smooth="yes"/>
      <point x="90" y="28"/>
      <point x="128" y="-12"/>
      <point x="195" y="-12" type="curve" smooth="yes"/>
      <point x="222" y="-12"/>
      <point x="248" y="-6"/>
      <point x="273" y="6" type="curve"/>
      <point x="249" y="70" type="line"/>
      <point x="239" y="66"/>
      <point x="228" y="64"/>
      <point x="215" y="64" type="curve" smooth="yes"/>
      <point x="191" y="64"/>
      <point x="182" y="78"/>
      <point x="182" y="106" type="curve" smooth="yes"/>
      <point x="182" y="750" type="line"/>
    </contour>
    <contour>
      <point x="147" y="0" type="move" name="bottom"/>
    </contour>
    <contour>
      <point x="136" y="739" type="move" name="top"/>
    </contour>
    <contour>
      <point x="207" y="739" type="move" name="topright"/>
    </contour>
    <contour>
      <point x="297" y="380" type="move" name="center"/>
    </contour>
  </outline>
</glyph>
<glyph name="m" format="1">
  <advance width="857"/>
  <unicode hex="006D"/>
  <outline>
    <contour>
      <point x="258" y="539"/>
      <point x="207" y="495"/>
      <point x="171" y="432" type="curve"/>
      <point x="187" y="374" type="line"/>
      <point x="222" y="430"/>
      <point x="254" y="467"/>
      <point x="311" y="467" type="curve" smooth="yes"/>
      <point x="351" y="467"/>
      <point x="385" y="444"/>
      <point x="385" y="365" type="curve" smooth="yes"/>
      <point x="385" y="0" type="line"/>
      <point x="477" y="0" type="line"/>
      <point x="477" y="378" type="line"/>
      <point x="475" y="407" type="line"/>
      <point x="465" y="489"/>
      <point x="411" y="539"/>
      <point x="334" y="539" type="curve" smooth="yes"/>
    </contour>
    <contour>
      <point x="95" y="527" type="line"/>
      <point x="95" y="0" type="line"/>
      <point x="187" y="0" type="line"/>
      <point x="187" y="398" type="line"/>
      <point x="174" y="527" type="line"/>
    </contour>
    <contour>
      <point x="548" y="539"/>
      <point x="498" y="495"/>
      <point x="459" y="432" type="curve"/>
      <point x="477" y="374" type="line"/>
      <point x="513" y="430"/>
      <point x="544" y="467"/>
      <point x="601" y="467" type="curve" smooth="yes"/>
      <point x="641" y="467"/>
      <point x="675" y="444"/>
      <point x="675" y="365" type="curve" smooth="yes"/>
      <point x="675" y="0" type="line"/>
      <point x="767" y="0" type="line"/>
      <point x="767" y="378" type="line" smooth="yes"/>
      <point x="767" y="477"/>
      <point x="710" y="539"/>
      <point x="624" y="539" type="curve" smooth="yes"/>
    </contour>
  </outline>
</glyph>
<glyph name="o" format="1">
  <advance width="584"/>
  <unicode hex="006F"/>
  <outline>
    <contour>
      <point x="143" y="539"/>
      <point x="57" y="426"/>
      <point x="57" y="263" type="curve" smooth="yes"/>
      <point x="57" y="96"/>
      <point x="142" y="-12"/>
      <point x="292" y="-12" type="curve" smooth="yes"/>
      <point x="441" y="-12"/>
      <point x="527" y="101"/>
      <point x="527" y="264" type="curve" smooth="yes"/>
      <point x="527" y="431"/>
      <point x="443" y="539"/>
      <point x="293" y="539" type="curve" smooth="yes"/>
    </contour>
    <contour>
      <point x="380" y="465"/>
      <point x="428" y="401"/>
      <point x="428" y="264" type="curve" smooth="yes"/>
      <point x="428" y="126"/>
      <point x="380" y="62"/>
      <point x="292" y="62" type="curve" smooth="yes"/>
      <point x="204" y="62"/>
      <point x="156" y="126"/>
      <point x="156" y="263" type="curve" smooth="yes"/>
      <point x="156" y="401"/>
      <point x="205" y="465"/>
      <point x="293" y="465" type="curve" smooth="yes"/>
    </contour>
    <contour>
      <point x="292" y="527" type="move" name="top"/>
    </contour>
  </outline>
</glyph>
<glyph name="p" format="1">
  <advance width="594"/>
  <unicode hex="0070"/>
  <outline>
    <contour>
      <point x="271" y="539"/>
      <point x="210" y="504"/>
      <point x="171" y="440" type="curve"/>
      <point x="179" y="371" type="line"/>
      <point x="206" y="417"/>
      <point x="252" y="466"/>
      <point x="314" y="466" type="curve" smooth="yes"/>
      <point x="393" y="466"/>
      <point x="433" y="401"/>
      <point x="433" y="264" type="curve" smooth="yes"/>
      <point x="433" y="126"/>
      <point x="387" y="63"/>
      <point x="303" y="63" type="curve" smooth="yes"/>
      <point x="249" y="63"/>
      <point x="205" y="92"/>
      <point x="178" y="142" type="curve"/>
      <point x="177" y="61" type="line"/>
      <point x="211" y="11"/>
      <point x="262" y="-12"/>
      <point x="325" y="-12" type="curve" smooth="yes"/>
      <point x="461" y="-12"/>
      <point x="532" y="104"/>
      <point x="532" y="264" type="curve" smooth="yes"/>
      <point x="532" y="430"/>
      <point x="477" y="539"/>
      <point x="337" y="539" type="curve" smooth="yes"/>
    </contour>
    <contour>
      <point x="95" y="527" type="line"/>
      <point x="95" y="-213" type="line"/>
      <point x="187" y="-202" type="line"/>
      <point x="187" y="400" type="line"/>
      <point x="183" y="439" type="line"/>
      <point x="174" y="527" type="line"/>
    </contour>
  </outline>
</glyph>
<glyph name="q" format="1">
  <advance width="593"/>
  <unicode hex="0071"/>
  <outline>
    <contour>
      <point x="406" y="-202" type="line"/>
      <point x="498" y="-213" type="line"/>
      <point x="498" y="527" type="line"/>
      <point x="419" y="527" type="line"/>
      <point x="411" y="461" type="line"/>
      <point x="406" y="449" type="line"/>
    </contour>
    <contour>
      <point x="135" y="539"/>
      <point x="57" y="422"/>
      <point x="57" y="261" type="curve" smooth="yes"/>
      <point x="57" y="97"/>
      <point x="128" y="-12"/>
      <point x="256" y="-12" type="curve" smooth="yes"/>
      <point x="327" y="-12"/>
      <point x="384" y="26"/>
      <point x="417" y="88" type="curve"/>
      <point x="414" y="151" type="line"/>
      <point x="376" y="94"/>
      <point x="339" y="61"/>
      <point x="276" y="61" type="curve" smooth="yes"/>
      <point x="200" y="61"/>
      <point x="156" y="124"/>
      <point x="156" y="263" type="curve" smooth="yes"/>
      <point x="156" y="400"/>
      <point x="205" y="466"/>
      <point x="284" y="466" type="curve" smooth="yes"/>
      <point x="341" y="466"/>
      <point x="380" y="434"/>
      <point x="415" y="385" type="curve"/>
      <point x="416" y="463" type="line"/>
      <point x="380" y="505"/>
      <point x="332" y="539"/>
      <point x="264" y="539" type="curve" smooth="yes"/>
    </contour>
  </outline>
</glyph>
<glyph name="r" format="1">
  <advance width="386"/>
  <unicode hex="0072"/>
  <outline>
    <contour>
      <point x="257" y="539"/>
      <point x="206" y="495"/>
      <point x="179" y="407" type="curve"/>
      <point x="182" y="275" type="line"/>
      <point x="203" y="394"/>
      <point x="242" y="449"/>
      <point x="313" y="449" type="curve" smooth="yes"/>
      <point x="332" y="449"/>
      <point x="343" y="447"/>
      <point x="359" y="443" type="curve"/>
      <point x="376" y="533" type="line"/>
      <point x="360" y="537"/>
      <point x="341" y="539"/>
      <point x="324" y="539" type="curve" smooth="yes"/>
    </contour>
    <contour>
      <point x="95" y="527" type="line"/>
      <point x="95" y="0" type="line"/>
      <point x="187" y="0" type="line"/>
      <point x="187" y="315" type="line"/>
      <point x="184" y="410" type="line"/>
      <point x="174" y="527" type="line"/>
    </contour>
    <contour>
      <point x="238" y="527" type="move" name="top"/>
    </contour>
    <contour>
      <point x="141" y="0" type="move" name="bottom"/>
    </contour>
  </outline>
</glyph>
<glyph name="v" format="1">
  <advance width="492"/>
  <unicode hex="0076"/>
  <outline>
    <contour>
      <point x="385" y="527" type="line"/>
      <point x="248" y="82" type="line"/>
      <point x="110" y="527" type="line"/>
      <point x="10" y="527" type="line"/>
      <point x="192" y="0" type="line"/>
      <point x="303" y="0" type="line"/>
      <point x="482" y="527" type="line"/>
    </contour>
  </outline>
</glyph>
<glyph name="y" format="1">
  <advance width="492"/>
  <unicode hex="0079"/>
  <outline>
    <contour>
      <point x="387" y="527" type="line"/>
      <point x="249" y="67" type="line"/>
      <point x="108" y="527" type="line"/>
      <point x="10" y="527" type="line"/>
      <point x="187" y="0" type="line"/>
      <point x="218" y="0" type="line"/>
      <point x="188" y="-82"/>
      <point x="158" y="-123"/>
      <point x="51" y="-141" type="curve"/>
      <point x="61" y="-213" type="line"/>
      <point x="207" y="-197"/>
      <point x="269" y="-115"/>
      <point x="306" y="-3" type="curve" smooth="yes"/>
      <point x="482" y="527" type="line"/>
    </contour>
    <contour>
      <point x="246" y="527" type="move" name="top"/>
    </contour>
  </outline>
</glyph>
<glyph name="z" format="1">
  <advance width="437"/>
  <unicode hex="007A"/>
  <outline>
    <contour>
      <point x="48" y="527" type="line"/>
      <point x="48" y="449" type="line"/>
      <point x="299" y="449" type="line"/>
      <point x="25" y="69" type="line"/>
      <point x="25" y="0" type="line"/>
      <point x="396" y="0" type="line"/>
      <point x="407" y="77" type="line"/>
      <point x="129" y="77" type="line"/>
      <point x="404" y="457" type="line"/>
      <point x="404" y="527" type="line"/>
    </contour>
    <contour>
      <point x="219" y="527" type="move" name="top"/>
    </contour>
  </outline>
</glyph>
<glyph name="braceright" format="1">
  <advance width="322"/>
  <unicode hex="007D"/>
  <outline>
    <contour>
      <point x="45" y="765" type="line"/>
      <point x="112" y="765"/>
      <point x="140" y="747"/>
      <point x="140" y="697" type="curve" smooth="yes"/>
      <point x="140" y="458" type="line" smooth="yes"/>
      <point x="140" y="385"/>
      <point x="168" y="365"/>
      <point x="215" y="349" type="curve"/>
      <point x="168" y="333"/>
      <point x="140" y="315"/>
      <point x="140" y="242" type="curve" smooth="yes"/>
      <point x="140" y="3" type="line" smooth="yes"/>
      <point x="140" y="-47"/>
      <point x="112" y="-65"/>
      <point x="45" y="-65" type="curve"/>
      <point x="45" y="-136" type="line"/>
      <point x="180" y="-136"/>
      <point x="227" y="-92"/>
      <point x="227" y="13" type="curve" smooth="yes"/>
      <point x="227" y="235" type="line" smooth="yes"/>
      <point x="227" y="290"/>
      <point x="244" y="311"/>
      <point x="297" y="311" type="curve"/>
      <point x="297" y="387" type="line"/>
      <point x="244" y="387"/>
      <point x="227" y="410"/>
      <point x="227" y="465" type="curve" smooth="yes"/>
      <point x="227" y="687" type="line" smooth="yes"/>
      <point x="227" y="792"/>
      <point x="180" y="836"/>
      <point x="45" y="836" type="curve"/>
    </contour>
  </outline>
</glyph>
<glyph name="asciitilde" format="1">
  <advance width="488"/>
  <unicode hex="007E"/>
  <outline>
    <contour>
      <point x="97" y="384"/>
      <point x="56" y="328"/>
      <point x="35" y="287" type="curve"/>
      <point x="96" y="256" type="line"/>
      <point x="112" y="284"/>
      <point x="130" y="312"/>
      <point x="166" y="312" type="curve" smooth="yes"/>
      <point x="205" y="312"/>
      <point x="239" y="250"/>
      <point x="319" y="250" type="curve" smooth="yes"/>
      <point x="392" y="250"/>
      <point x="432" y="300"/>
      <point x="453" y="341" type="curve"/>
      <point x="392" y="373" type="line"/>
      <point x="376" y="345"/>
      <point x="358" y="323"/>
      <point x="325" y="323" type="curve" smooth="yes"/>
      <point x="283" y="323"/>
      <point x="249" y="384"/>
      <point x="172" y="384" type="curve" smooth="yes"/>
    </contour>
  </outline>
</glyph>
<glyph name="sterling" format="1">
  <advance width="525"/>
  <unicode hex="00A3"/>
  <outline>
    <contour>
      <point x="189" y="679"/>
      <point x="122" y="600"/>
      <point x="122" y="493" type="curve"/>
      <point x="122" y="205" type="line"/>
      <point x="122" y="123"/>
      <point x="108" y="98"/>
      <point x="40" y="73" type="curve"/>
      <point x="40" y="0" type="line"/>
      <point x="461" y="0" type="line"/>
      <point x="472" y="77" type="line"/>
      <point x="152" y="77" type="line"/>
      <point x="201" y="104"/>
      <point x="213" y="139"/>
      <point x="213" y="204" type="curve"/>
      <point x="213" y="494" type="line"/>
      <point x="213" y="566"/>
      <point x="251" y="604"/>
      <point x="315" y="604" type="curve" smooth="yes"/>
      <point x="365" y="604"/>
      <point x="398" y="587"/>
      <point x="429" y="550" type="curve"/>
      <point x="490" y="596" type="line"/>
      <point x="442" y="653"/>
      <point x="384" y="679"/>
      <point x="311" y="679" type="curve" smooth="yes"/>
    </contour>
    <contour>
      <point x="56" y="382" type="line"/>
      <point x="56" y="322" type="line"/>
      <point x="421" y="322" type="line"/>
      <point x="421" y="382" type="line"/>
    </contour>
  </outline>
</glyph>
<glyph name="ordfeminine" format="1">
  <advance width="500"/>
  <unicode hex="00AA"/>
  <outline>
    <contour>
      <point x="198" y="689"/>
      <point x="148" y="680"/>
      <point x="95" y="661" type="curve"/>
      <point x="117" y="599" type="line"/>
      <point x="160" y="613"/>
      <point x="200" y="620"/>
      <point x="230" y="620" type="curve" smooth="yes"/>
      <point x="286" y="620"/>
      <point x="313" y="602"/>
      <point x="313" y="549" type="curve"/>
      <point x="313" y="377" type="line"/>
      <point x="323" y="344" type="line"/>
      <point x="336" y="295"/>
      <point x="366" y="277"/>
      <point x="416" y="272" type="curve"/>
      <point x="435" y="333" type="line"/>
      <point x="414" y="340"/>
      <point x="402" y="351"/>
      <point x="402" y="384" type="curve" smooth="yes"/>
      <point x="402" y="554" type="line" smooth="yes"/>
      <point x="402" y="640"/>
      <point x="354" y="689"/>
      <point x="245" y="689" type="curve" smooth="yes"/>
    </contour>
    <contour>
      <point x="255" y="525" type="line" smooth="yes"/>
      <point x="134" y="525"/>
      <point x="65" y="479"/>
      <point x="65" y="393" type="curve" smooth="yes"/>
      <point x="65" y="321"/>
      <point x="116" y="271"/>
      <point x="201" y="271" type="curve" smooth="yes"/>
      <point x="256" y="271"/>
      <point x="305" y="292"/>
      <point x="334" y="341" type="curve"/>
      <point x="320" y="402" type="line"/>
      <point x="298" y="360"/>
      <point x="268" y="337"/>
      <point x="224" y="337" type="curve" smooth="yes"/>
      <point x="182" y="337"/>
      <point x="159" y="359"/>
      <point x="159" y="398" type="curve" smooth="yes"/>
      <point x="159" y="447"/>
      <point x="195" y="470"/>
      <point x="265" y="470" type="curve" smooth="yes"/>
      <point x="326" y="470" type="line"/>
      <point x="326" y="525" type="line"/>
    </contour>
    <component base="minus" xOffset="9" yOffset="-294"/>
  </outline>
</glyph>
<glyph name="logicalnot" format="1">
  <advance width="500"/>
  <unicode hex="00AC"/>
  <outline>
    <contour>
      <point x="62" y="361" type="line"/>
      <point x="62" y="284" type="line"/>
      <point x="355" y="284" type="line"/>
      <point x="355" y="141" type="line"/>
      <point x="438" y="141" type="line"/>
      <point x="438" y="361" type="line"/>
    </contour>
  </outline>
</glyph>
<glyph name="macron" format="1">
  <advance width="333"/>
  <unicode hex="00AF"/>
  <outline>
    <contour>
      <point x="303" y="736" type="line"/>
      <point x="30" y="736" type="line"/>
      <point x="30" y="667" type="line"/>
      <point x="303" y="667" type="line"/>
    </contour>
    <contour>
      <point x="167" y="527" type="move" name="_top"/>
    </contour>
  </outline>
</glyph>
<glyph name="questiondown" format="1">
  <advance width="459"/>
  <unicode hex="00BF"/>
  <outline>
    <contour>
      <point x="304" y="-215"/>
      <point x="372" y="-183"/>
      <point x="429" y="-116" type="curve"/>
      <point x="366" y="-67" type="line"/>
      <point x="325" y="-117"/>
      <point x="277" y="-139"/>
      <point x="227" y="-139" type="curve" smooth="yes"/>
      <point x="165" y="-139"/>
      <point x="126" y="-108"/>
      <point x="126" y="-53" type="curve" smooth="yes"/>
      <point x="126" y="55"/>
      <point x="302" y="38"/>
      <point x="302" y="201" type="curve" smooth="yes"/>
      <point x="302" y="247" type="line"/>
      <point x="211" y="247" type="line"/>
      <point x="211" y="206" type="line" smooth="yes"/>
      <point x="211" y="80"/>
      <point x="30" y="101"/>
      <point x="30" y="-59" type="curve" smooth="yes"/>
      <point x="30" y="-139"/>
      <point x="95" y="-215"/>
      <point x="221" y="-215" type="curve" smooth="yes"/>
    </contour>
    <contour>
      <point x="293" y="356"/>
      <point x="323" y="387"/>
      <point x="323" y="425" type="curve" smooth="yes"/>
      <point x="323" y="464"/>
      <point x="293" y="495"/>
      <point x="254" y="495" type="curve" smooth="yes"/>
      <point x="214" y="495"/>
      <point x="184" y="464"/>
      <point x="184" y="425" type="curve" smooth="yes"/>
      <point x="184" y="387"/>
      <point x="214" y="356"/>
      <point x="254" y="356" type="curve" smooth="yes"/>
    </contour>
  </outline>
</glyph>
<glyph name="AE" format="1">
  <advance width="816"/>
  <unicode hex="00C6"/>
  <outline>
    <contour>
      <point x="262" y="689" type="line"/>
      <point x="-12" y="0" type="line"/>
      <point x="85" y="0" type="line"/>
      <point x="316" y="613" type="line"/>
      <point x="458" y="0" type="line"/>
      <point x="762" y="0" type="line"/>
      <point x="762" y="76" type="line"/>
      <point x="535" y="76" type="line"/>
      <point x="401" y="613" type="line"/>
      <point x="710" y="613" type="line"/>
      <point x="721" y="689" type="line"/>
    </contour>
    <contour>
      <point x="162" y="250" type="line"/>
      <point x="134" y="173" type="line"/>
      <point x="433" y="173" type="line"/>
      <point x="416" y="250" type="line"/>
    </contour>
    <contour>
      <point x="441" y="387" type="line"/>
      <point x="461" y="311" type="line"/>
      <point x="712" y="311" type="line"/>
      <point x="712" y="387" type="line"/>
    </contour>
    <contour>
      <point x="474" y="689" type="move" name="top"/>
    </contour>
  </outline>
</glyph>
<glyph name="Eth" format="1">
  <advance width="656"/>
  <unicode hex="00D0"/>
  <outline>
    <contour>
      <point x="112" y="388" type="line"/>
      <point x="20" y="388" type="line"/>
      <point x="20" y="318" type="line"/>
      <point x="364" y="318" type="line"/>
      <point x="364" y="388" type="line"/>
    </contour>
    <component base="D" xOffset="12"/>
  </outline>
</glyph>
<glyph name="Thorn" format="1">
  <advance width="581"/>
  <unicode hex="00DE"/>
  <outline>
    <contour>
      <point x="180" y="571" type="line"/>
      <point x="195" y="497" type="line"/>
      <point x="280" y="497" type="line" smooth="yes"/>
      <point x="382" y="497"/>
      <point x="448" y="460"/>
      <point x="448" y="353" type="curve" smooth="yes"/>
      <point x="448" y="232"/>
      <point x="380" y="202"/>
      <point x="278" y="202" type="curve" smooth="yes"/>
      <point x="179" y="202" type="line"/>
      <point x="179" y="127" type="line"/>
      <point x="282" y="127" type="line" smooth="yes"/>
      <point x="434" y="127"/>
      <point x="549" y="192"/>
      <point x="549" y="354" type="curve" smooth="yes"/>
      <point x="549" y="503"/>
      <point x="447" y="571"/>
      <point x="281" y="571" type="curve" smooth="yes"/>
    </contour>
    <contour>
      <point x="100" y="689" type="line"/>
      <point x="100" y="0" type="line"/>
      <point x="195" y="0" type="line"/>
      <point x="195" y="689" type="line"/>
    </contour>
  </outline>
</glyph>
<glyph name="germandbls" format="1">
  <advance width="593"/>
  <unicode hex="00DF"/>
  <outline>
    <contour>
      <point x="168" y="750"/>
      <point x="95" y="672"/>
      <point x="95" y="539" type="curve" smooth="yes"/>
      <point x="95" y="0" type="line"/>
      <point x="187" y="0" type="line"/>
      <point x="187" y="539" type="line" smooth="yes"/>
      <point x="187" y="634"/>
      <point x="226" y="678"/>
      <point x="295" y="678" type="curve" smooth="yes"/>
      <point x="346" y="678"/>
      <point x="388" y="653"/>
      <point x="388" y="602" type="curve" smooth="yes"/>
      <point x="388" y="513"/>
      <point x="278" y="516"/>
      <point x="278" y="420" type="curve" smooth="yes"/>
      <point x="278" y="297"/>
      <point x="459" y="295"/>
      <point x="459" y="163" type="curve" smooth="yes"/>
      <point x="459" y="95"/>
      <point x="420" y="62"/>
      <point x="366" y="62" type="curve" smooth="yes"/>
      <point x="334" y="62"/>
      <point x="314" y="68"/>
      <point x="300" y="75" type="curve"/>
      <point x="273" y="11" type="line"/>
      <point x="299" y="-3"/>
      <point x="328" y="-12"/>
      <point x="375" y="-12" type="curve" smooth="yes"/>
      <point x="468" y="-12"/>
      <point x="553" y="54"/>
      <point x="553" y="162" type="curve" smooth="yes"/>
      <point x="553" y="336"/>
      <point x="365" y="343"/>
      <point x="365" y="427" type="curve" smooth="yes"/>
      <point x="365" y="491"/>
      <point x="476" y="499"/>
      <point x="476" y="607" type="curve" smooth="yes"/>
      <point x="476" y="687"/>
      <point x="408" y="750"/>
      <point x="296" y="750" type="curve" smooth="yes"/>
    </contour>
  </outline>
</glyph>
<glyph name="ae" format="1">
  <advance width="854"/>
  <unicode hex="00E6"/>
  <outline>
    <contour>
      <point x="444" y="539"/>
      <point x="386" y="423"/>
      <point x="361" y="261" type="curve"/>
      <point x="361" y="257" type="line" smooth="yes"/>
      <point x="362" y="89"/>
      <point x="448" y="-12"/>
      <point x="594" y="-12" type="curve" smooth="yes"/>
      <point x="667" y="-12"/>
      <point x="726" y="13"/>
      <point x="778" y="54" type="curve"/>
      <point x="738" y="109" type="line"/>
      <point x="692" y="77"/>
      <point x="653" y="63"/>
      <point x="601" y="63" type="curve" smooth="yes"/>
      <point x="518" y="63"/>
      <point x="458" y="118"/>
      <point x="458" y="265" type="curve" smooth="yes"/>
      <point x="458" y="407"/>
      <point x="505" y="466"/>
      <point x="582" y="466" type="curve" smooth="yes"/>
      <point x="665" y="466"/>
      <point x="706" y="409"/>
      <point x="706" y="306" type="curve" smooth="yes"/>
      <point x="706" y="304"/>
      <point x="706" y="302"/>
      <point x="706" y="300" type="curve"/>
      <point x="443" y="300" type="line"/>
      <point x="443" y="232" type="line"/>
      <point x="795" y="232" type="line"/>
      <point x="796" y="244"/>
      <point x="797" y="261"/>
      <point x="797" y="279" type="curve" smooth="yes"/>
      <point x="797" y="440"/>
      <point x="722" y="539"/>
      <point x="584" y="539" type="curve" smooth="yes"/>
    </contour>
    <contour>
      <point x="280" y="321" type="line" smooth="yes"/>
      <point x="133" y="321"/>
      <point x="45" y="260"/>
      <point x="45" y="147" type="curve" smooth="yes"/>
      <point x="45" y="53"/>
      <point x="110" y="-12"/>
      <point x="216" y="-12" type="curve" smooth="yes"/>
      <point x="301" y="-12"/>
      <point x="361" y="17"/>
      <point x="412" y="96" type="curve"/>
      <point x="382" y="160" type="line"/>
      <point x="341" y="89"/>
      <point x="297" y="57"/>
      <point x="237" y="57" type="curve" smooth="yes"/>
      <point x="177" y="57"/>
      <point x="146" y="90"/>
      <point x="146" y="152" type="curve" smooth="yes"/>
      <point x="146" y="224"/>
      <point x="195" y="260"/>
      <point x="292" y="260" type="curve" smooth="yes"/>
      <point x="376" y="260" type="line"/>
      <point x="376" y="321" type="line"/>
    </contour>
    <contour>
      <point x="209" y="539"/>
      <point x="151" y="527"/>
      <point x="86" y="503" type="curve"/>
      <point x="109" y="436" type="line"/>
      <point x="163" y="454"/>
      <point x="212" y="464"/>
      <point x="251" y="464" type="curve" smooth="yes"/>
      <point x="324" y="464"/>
      <point x="361" y="436"/>
      <point x="361" y="360" type="curve"/>
      <point x="361" y="261" type="line"/>
      <point x="453" y="262" type="line"/>
      <point x="453" y="364" type="line"/>
      <point x="437" y="464"/>
      <point x="395" y="539"/>
      <point x="268" y="539" type="curve" smooth="yes"/>
    </contour>
    <contour>
      <point x="422" y="527" type="move" name="top"/>
    </contour>
  </outline>
</glyph>
<glyph name="oslash" format="1">
  <advance width="584"/>
  <unicode hex="00F8"/>
  <outline>
    <contour>
      <point x="143" y="539"/>
      <point x="57" y="426"/>
      <point x="57" y="263" type="curve" smooth="yes"/>
      <point x="57" y="96"/>
      <point x="142" y="-12"/>
      <point x="292" y="-12" type="curve" smooth="yes"/>
      <point x="441" y="-12"/>
      <point x="527" y="101"/>
      <point x="527" y="264" type="curve" smooth="yes"/>
      <point x="527" y="431"/>
      <point x="443" y="539"/>
      <point x="293" y="539" type="curve" smooth="yes"/>
    </contour>
    <contour>
      <point x="380" y="465"/>
      <point x="428" y="421"/>
      <point x="428" y="264" type="curve" smooth="yes"/>
      <point x="428" y="126"/>
      <point x="380" y="62"/>
      <point x="292" y="62" type="curve" smooth="yes"/>
      <point x="204" y="62"/>
      <point x="156" y="106"/>
      <point x="156" y="263" type="curve" smooth="yes"/>
      <point x="156" y="401"/>
      <point x="205" y="465"/>
      <point x="293" y="465" type="curve" smooth="yes"/>
    </contour>
    <contour>
      <point x="344" y="534" type="line"/>
      <point x="332" y="472" type="line"/>
      <point x="201" y="77" type="line"/>
      <point x="172" y="27" type="line"/>
      <point x="127" y="-108" type="line"/>
      <point x="202" y="-130" type="line"/>
      <point x="241" y="-7" type="line"/>
      <point x="253" y="53" type="line"/>
      <point x="383" y="446" type="line"/>
      <point x="416" y="508" type="line"/>
      <point x="458" y="634" type="line"/>
      <point x="383" y="656" type="line"/>
    </contour>
    <contour>
      <point x="292" y="527" type="move" name="top"/>
    </contour>
  </outline>
</glyph>
<glyph name="thorn" format="1">
  <advance width="594"/>
  <unicode hex="00FE"/>
  <outline>
    <contour>
      <point x="270" y="539"/>
      <point x="209" y="505"/>
      <point x="171" y="439" type="curve"/>
      <point x="179" y="371" type="line"/>
      <point x="206" y="417"/>
      <point x="252" y="466"/>
      <point x="314" y="466" type="curve" smooth="yes"/>
      <point x="393" y="466"/>
      <point x="433" y="401"/>
      <point x="433" y="264" type="curve" smooth="yes"/>
      <point x="433" y="126"/>
      <point x="387" y="63"/>
      <point x="303" y="63" type="curve" smooth="yes"/>
      <point x="249" y="63"/>
      <point x="205" y="92"/>
      <point x="178" y="142" type="curve"/>
      <point x="177" y="61" type="line"/>
      <point x="211" y="11"/>
      <point x="262" y="-12"/>
      <point x="325" y="-12" type="curve" smooth="yes"/>
      <point x="461" y="-12"/>
      <point x="532" y="104"/>
      <point x="532" y="264" type="curve" smooth="yes"/>
      <point x="532" y="430"/>
      <point x="477" y="539"/>
      <point x="337" y="539" type="curve" smooth="yes"/>
    </contour>
    <contour>
      <point x="95" y="739" type="line"/>
      <point x="95" y="-213" type="line"/>
      <point x="187" y="-198" type="line"/>
      <point x="187" y="750" type="line"/>
    </contour>
  </outline>
</glyph>
<glyph name="dcroat" format="1">
  <advance width="607"/>
  <unicode hex="0111"/>
  <outline>
    <contour>
      <point x="248" y="676" type="line"/>
      <point x="258" y="606" type="line"/>
      <point x="503" y="606" type="line"/>
      <point x="582" y="606" type="line"/>
      <point x="582" y="676" type="line"/>
    </contour>
    <component base="d"/>
  </outline>
</glyph>
<glyph name="Hbar" format="1">
  <advance width="688"/>
  <unicode hex="0126"/>
  <outline>
    <contour>
      <point x="584" y="577" type="line"/>
      <point x="35" y="577" type="line"/>
      <point x="35" y="508" type="line"/>
      <point x="104" y="508" type="line"/>
      <point x="653" y="508" type="line"/>
      <point x="653" y="577" type="line"/>
    </contour>
    <component base="H" xOffset="4"/>
  </outline>
</glyph>
<glyph name="hbar" format="1">
  <advance width="592"/>
  <unicode hex="0127"/>
  <outline>
    <contour>
      <point x="25" y="676" type="line"/>
      <point x="25" y="606" type="line"/>
      <point x="104" y="606" type="line"/>
      <point x="339" y="606" type="line"/>
      <point x="349" y="676" type="line"/>
    </contour>
    <component base="h" xOffset="6"/>
  </outline>
</glyph>
<glyph name="kgreenlandic" format="1">
  <advance width="509"/>
  <unicode hex="0138"/>
  <outline>
    <contour>
      <point x="384" y="527" type="line"/>
      <point x="190" y="278" type="line"/>
      <point x="399" y="0" type="line"/>
      <point x="509" y="0" type="line"/>
      <point x="293" y="284" type="line"/>
      <point x="487" y="527" type="line"/>
    </contour>
    <contour>
      <point x="95" y="527" type="line"/>
      <point x="95" y="0" type="line"/>
      <point x="187" y="0" type="line"/>
      <point x="187" y="527" type="line"/>
    </contour>
  </outline>
</glyph>
<glyph name="Lslash" format="1">
  <advance width="514"/>
  <unicode hex="0141"/>
  <outline>
    <contour>
      <point x="116" y="340" type="line"/>
      <point x="22" y="282" type="line"/>
      <point x="60" y="222" type="line"/>
      <point x="409" y="438" type="line"/>
      <point x="371" y="498" type="line"/>
    </contour>
    <component base="L" xOffset="16"/>
  </outline>
</glyph>
<glyph name="napostrophe" format="1">
  <advance width="586"/>
  <unicode hex="0149"/>
  <outline>
    <contour>
      <point x="62" y="770"/>
      <point x="36" y="746"/>
      <point x="36" y="714" type="curve" smooth="yes"/>
      <point x="36" y="695"/>
      <point x="46" y="679"/>
      <point x="60" y="667" type="curve"/>
      <point x="31" y="551" type="line"/>
      <point x="84" y="551" type="line"/>
      <point x="125" y="637" type="line" smooth="yes"/>
      <point x="146" y="681"/>
      <point x="151" y="697"/>
      <point x="151" y="714" type="curve" smooth="yes"/>
      <point x="151" y="746"/>
      <point x="126" y="770"/>
      <point x="94" y="770" type="curve" smooth="yes"/>
    </contour>
    <component base="n"/>
  </outline>
</glyph>
<glyph name="Eng" format="1">
  <advance width="683"/>
  <unicode hex="014A"/>
  <outline>
    <contour>
      <point x="494" y="689" type="line"/>
      <point x="494" y="313" type="line" smooth="yes"/>
      <point x="494" y="229"/>
      <point x="505" y="119"/>
      <point x="507" y="103" type="curve"/>
      <point x="503" y="103" type="line"/>
      <point x="226" y="689" type="line"/>
      <point x="100" y="689" type="line"/>
      <point x="100" y="0" type="line"/>
      <point x="189" y="0" type="line"/>
      <point x="189" y="316" type="line" smooth="yes"/>
      <point x="189" y="444"/>
      <point x="181" y="526"/>
      <point x="176" y="583" type="curve"/>
      <point x="180" y="583" type="line"/>
      <point x="454" y="0" type="line"/>
      <point x="512" y="0" type="line"/>
      <point x="583" y="32" type="line"/>
      <point x="583" y="689" type="line"/>
    </contour>
    <contour>
      <point x="503" y="26" type="line"/>
      <point x="503" y="-90"/>
      <point x="465" y="-115"/>
      <point x="391" y="-150" type="curve"/>
      <point x="416" y="-212" type="line"/>
      <point x="528" y="-162"/>
      <point x="583" y="-117"/>
      <point x="583" y="32" type="curve"/>
    </contour>
  </outline>
</glyph>
<glyph name="eng" format="1">
  <advance width="586"/>
  <unicode hex="014B"/>
  <outline>
    <contour>
      <point x="267" y="539"/>
      <point x="207" y="495"/>
      <point x="171" y="432" type="curve"/>
      <point x="187" y="374" type="line"/>
      <point x="222" y="430"/>
      <point x="262" y="467"/>
      <point x="320" y="467" type="curve" smooth="yes"/>
      <point x="370" y="467"/>
      <point x="404" y="444"/>
      <point x="404" y="365" type="curve" smooth="yes"/>
      <point x="404" y="90" type="line"/>
      <point x="496" y="90" type="line"/>
      <point x="496" y="378" type="line" smooth="yes"/>
      <point x="496" y="477"/>
      <point x="439" y="539"/>
      <point x="343" y="539" type="curve" smooth="yes"/>
    </contour>
    <contour>
      <point x="95" y="527" type="line"/>
      <point x="95" y="0" type="line"/>
      <point x="187" y="0" type="line"/>
      <point x="187" y="398" type="line"/>
      <point x="174" y="527" type="line"/>
    </contour>
    <contour>
      <point x="404" y="97" type="line"/>
      <point x="404" y="26" type="line" smooth="yes"/>
      <point x="404" y="-87"/>
      <point x="371" y="-113"/>
      <point x="302" y="-145" type="curve"/>
      <point x="329" y="-212" type="line"/>
      <point x="441" y="-162"/>
      <point x="496" y="-117"/>
      <point x="496" y="32" type="curve" smooth="yes"/>
      <point x="496" y="97" type="line"/>
    </contour>
  </outline>
</glyph>
<glyph name="OE" format="1">
  <advance width="908"/>
  <unicode hex="0152"/>
  <outline>
    <contour>
      <point x="174" y="701"/>
      <point x="55" y="570"/>
      <point x="55" y="343" type="curve" smooth="yes"/>
      <point x="55" y="112"/>
      <point x="174" y="-12"/>
      <point x="333" y="-12" type="curve" smooth="yes"/>
      <point x="383" y="-12"/>
      <point x="434" y="4"/>
      <point x="467" y="37" type="curve"/>
      <point x="564" y="92"/>
      <point x="617" y="204"/>
      <point x="617" y="344" type="curve" smooth="yes"/>
      <point x="617" y="483"/>
      <point x="571" y="592"/>
      <point x="486" y="644" type="curve"/>
      <point x="444" y="683"/>
      <point x="390" y="701"/>
      <point x="333" y="701" type="curve" smooth="yes"/>
    </contour>
    <contour>
      <point x="501" y="76" type="line"/>
      <point x="405" y="0" type="line"/>
      <point x="843" y="0" type="line"/>
      <point x="843" y="76" type="line"/>
    </contour>
    <contour>
      <point x="551" y="388" type="line"/>
      <point x="551" y="312" type="line"/>
      <point x="789" y="312" type="line"/>
      <point x="789" y="388" type="line"/>
    </contour>
    <contour>
      <point x="406" y="689" type="line"/>
      <point x="511" y="613" type="line"/>
      <point x="824" y="613" type="line"/>
      <point x="835" y="689" type="line"/>
    </contour>
    <contour>
      <point x="444" y="623"/>
      <point x="516" y="542"/>
      <point x="516" y="344" type="curve" smooth="yes"/>
      <point x="516" y="144"/>
      <point x="442" y="66"/>
      <point x="336" y="66" type="curve" smooth="yes"/>
      <point x="234" y="66"/>
      <point x="156" y="144"/>
      <point x="156" y="343" type="curve" smooth="yes"/>
      <point x="156" y="542"/>
      <point x="231" y="623"/>
      <point x="336" y="623" type="curve" smooth="yes"/>
    </contour>
    <contour>
      <point x="448" y="689" type="move" name="top"/>
    </contour>
  </outline>
</glyph>
<glyph name="oe" format="1">
  <advance width="921"/>
  <unicode hex="0153"/>
  <outline>
    <contour>
      <point x="143" y="539"/>
      <point x="57" y="426"/>
      <point x="57" y="263" type="curve" smooth="yes"/>
      <point x="57" y="96"/>
      <point x="142" y="-12"/>
      <point x="292" y="-12" type="curve" smooth="yes"/>
      <point x="438" y="-12"/>
      <point x="505" y="106"/>
      <point x="527" y="264" type="curve"/>
      <point x="507" y="431"/>
      <point x="441" y="539"/>
      <point x="293" y="539" type="curve" smooth="yes"/>
    </contour>
    <contour>
      <point x="380" y="465"/>
      <point x="428" y="401"/>
      <point x="428" y="264" type="curve" smooth="yes"/>
      <point x="428" y="126"/>
      <point x="380" y="62"/>
      <point x="292" y="62" type="curve" smooth="yes"/>
      <point x="204" y="62"/>
      <point x="156" y="126"/>
      <point x="156" y="263" type="curve" smooth="yes"/>
      <point x="156" y="401"/>
      <point x="205" y="465"/>
      <point x="293" y="465" type="curve" smooth="yes"/>
    </contour>
    <contour>
      <point x="513" y="539"/>
      <point x="448" y="422"/>
      <point x="428" y="258" type="curve"/>
      <point x="450" y="95"/>
      <point x="517" y="-12"/>
      <point x="661" y="-12" type="curve" smooth="yes"/>
      <point x="734" y="-12"/>
      <point x="793" y="13"/>
      <point x="845" y="54" type="curve"/>
      <point x="805" y="109" type="line"/>
      <point x="759" y="77"/>
      <point x="720" y="63"/>
      <point x="668" y="63" type="curve" smooth="yes"/>
      <point x="585" y="63"/>
      <point x="525" y="118"/>
      <point x="525" y="265" type="curve" smooth="yes"/>
      <point x="525" y="407"/>
      <point x="572" y="466"/>
      <point x="649" y="466" type="curve" smooth="yes"/>
      <point x="732" y="466"/>
      <point x="773" y="409"/>
      <point x="773" y="306" type="curve" smooth="yes"/>
      <point x="773" y="304"/>
      <point x="773" y="302"/>
      <point x="773" y="300" type="curve"/>
      <point x="510" y="300" type="line"/>
      <point x="510" y="232" type="line"/>
      <point x="862" y="232" type="line"/>
      <point x="863" y="244"/>
      <point x="864" y="261"/>
      <point x="864" y="279" type="curve" smooth="yes"/>
      <point x="864" y="440"/>
      <point x="789" y="539"/>
      <point x="647" y="539" type="curve" smooth="yes"/>
    </contour>
    <contour>
      <point x="473" y="527" type="move" name="top"/>
    </contour>
  </outline>
</glyph>
<glyph name="Tbar" format="1">
  <advance width="519"/>
  <unicode hex="0166"/>
  <outline>
    <contour>
      <point x="88" y="387" type="line"/>
      <point x="88" y="317" type="line"/>
      <point x="212" y="317" type="line"/>
      <point x="431" y="317" type="line"/>
      <point x="431" y="387" type="line"/>
    </contour>
    <component base="T" yOffset="-2"/>
  </outline>
</glyph>
<glyph name="tbar" format="1">
  <advance width="361"/>
  <unicode hex="0167"/>
  <outline>
    <contour>
      <point x="101" y="357" type="line"/>
      <point x="20" y="357" type="line"/>
      <point x="20" y="286" type="line"/>
      <point x="303" y="286" type="line"/>
      <point x="303" y="357" type="line"/>
    </contour>
    <component base="t"/>
  </outline>
</glyph>
<glyph name="uni018E" format="1">
  <advance width="535"/>
  <unicode hex="018E"/>
  <outline>
    <contour>
      <point x="60" y="613" type="line"/>
      <point x="340" y="613" type="line"/>
      <point x="340" y="388" type="line"/>
      <point x="108" y="388" type="line"/>
      <point x="108" y="312" type="line"/>
      <point x="340" y="312" type="line"/>
      <point x="340" y="76" type="line"/>
      <point x="54" y="76" type="line"/>
      <point x="54" y="0" type="line"/>
      <point x="435" y="0" type="line"/>
      <point x="435" y="689" type="line"/>
      <point x="60" y="689" type="line"/>
    </contour>
  </outline>
</glyph>
<glyph name="florin" format="1">
  <advance width="343"/>
  <unicode hex="0192"/>
  <outline>
    <contour>
      <point x="170" y="750"/>
      <point x="112" y="687"/>
      <point x="112" y="599" type="curve" smooth="yes"/>
      <point x="112" y="26" type="line"/>
      <point x="204" y="126" type="line"/>
      <point x="204" y="600" type="line" smooth="yes"/>
      <point x="204" y="651"/>
      <point x="224" y="676"/>
      <point x="282" y="676" type="curve" smooth="yes"/>
      <point x="309" y="676"/>
      <point x="340" y="671"/>
      <point x="374" y="656" type="curve"/>
      <point x="403" y="723" type="line"/>
      <point x="361" y="741"/>
      <point x="327" y="750"/>
      <point x="277" y="750" type="curve" smooth="yes"/>
    </contour>
    <contour>
      <point x="28" y="527" type="line"/>
      <point x="28" y="456" type="line"/>
      <point x="322" y="456" type="line"/>
      <point x="332" y="527" type="line"/>
    </contour>
    <contour>
      <point x="112" y="487" type="line"/>
      <point x="112" y="26" type="line" smooth="yes"/>
      <point x="112" y="-87"/>
      <point x="79" y="-113"/>
      <point x="10" y="-145" type="curve"/>
      <point x="37" y="-212" type="line"/>
      <point x="149" y="-162"/>
      <point x="204" y="-117"/>
      <point x="204" y="32" type="curve" smooth="yes"/>
      <point x="204" y="487" type="line"/>
    </contour>
  </outline>
</glyph>
<glyph name="uni0196" format="1">
  <advance width="366"/>
  <unicode hex="0196"/>
  <outline>
    <contour>
      <point x="90" y="689" type="line"/>
      <point x="90" y="201" type="line"/>
      <point x="185" y="201" type="line"/>
      <point x="185" y="689" type="line"/>
    </contour>
    <component base="hookHELPER.case" xOffset="386" yOffset="201" xScale="-1"/>
  </outline>
</glyph>
<glyph name="uni024C" format="1">
  <advance width="616"/>
  <unicode hex="024C"/>
  <outline>
    <contour>
      <point x="233" y="365" type="line"/>
      <point x="112" y="365" type="line"/>
      <point x="20" y="365" type="line"/>
      <point x="20" y="292" type="line"/>
      <point x="251" y="292" type="line"/>
    </contour>
    <component base="R" xOffset="11"/>
  </outline>
</glyph>
<glyph name="uni025F" format="1">
  <advance width="312"/>
  <unicode hex="025F"/>
  <outline>
    <contour>
      <point x="149" y="-162"/>
      <point x="204" y="-117"/>
      <point x="204" y="32" type="curve" smooth="yes"/>
      <point x="204" y="527" type="line"/>
      <point x="112" y="527" type="line"/>
      <point x="112" y="16" type="line" smooth="yes"/>
      <point x="112" y="-87"/>
      <point x="79" y="-113"/>
      <point x="10" y="-145" type="curve"/>
      <point x="37" y="-212" type="line"/>
    </contour>
    <contour>
      <point x="297" y="0" type="line"/>
      <point x="297" y="70" type="line"/>
      <point x="14" y="70" type="line"/>
      <point x="14" y="0" type="line"/>
    </contour>
  </outline>
</glyph>
<glyph name="uni0262" format="1">
  <advance width="560"/>
  <unicode hex="0262"/>
  <outline>
    <contour>
      <point x="172" y="539"/>
      <point x="57" y="436"/>
      <point x="57" y="266" type="curve" smooth="yes"/>
      <point x="57" y="82"/>
      <point x="146" y="-11"/>
      <point x="291" y="-11" type="curve" smooth="yes"/>
      <point x="372" y="-11"/>
      <point x="438" y="14"/>
      <point x="486" y="42" type="curve"/>
      <point x="486" y="297" type="line"/>
      <point x="290" y="297" type="line"/>
      <point x="300" y="226" type="line"/>
      <point x="396" y="226" type="line"/>
      <point x="396" y="84" type="line"/>
      <point x="364" y="69"/>
      <point x="331" y="62"/>
      <point x="292" y="62" type="curve" smooth="yes"/>
      <point x="206" y="62"/>
      <point x="155" y="118"/>
      <point x="155" y="266" type="curve" smooth="yes"/>
      <point x="155" y="405"/>
      <point x="227" y="463"/>
      <point x="305" y="463" type="curve" smooth="yes"/>
      <point x="357" y="463"/>
      <point x="393" y="448"/>
      <point x="434" y="417" type="curve"/>
      <point x="485" y="475" type="line"/>
      <point x="435" y="514"/>
      <point x="385" y="539"/>
      <point x="304" y="539" type="curve" smooth="yes"/>
    </contour>
  </outline>
</glyph>
<glyph name="uni026D" format="1">
  <advance width="282"/>
  <unicode hex="026D"/>
  <outline>
    <contour>
      <point x="187" y="0" type="line"/>
      <point x="187" y="750" type="line"/>
      <point x="95" y="739" type="line"/>
      <point x="95" y="0" type="line"/>
    </contour>
    <component base="hookHELPER" xOffset="391" xScale="-1"/>
  </outline>
</glyph>
<glyph name="uni027A" format="1">
  <advance width="386"/>
  <unicode hex="027A"/>
  <outline>
    <contour>
      <point x="291" y="526" type="line"/>
      <point x="291" y="739" type="line"/>
      <point x="199" y="750" type="line"/>
      <point x="199" y="526" type="line"/>
    </contour>
    <component base="uni0279"/>
  </outline>
</glyph>
<glyph name="uni0282" format="1">
  <advance width="467"/>
  <unicode hex="0282"/>
  <outline>
    <contour>
      <point x="129" y="539"/>
      <point x="48" y="478"/>
      <point x="48" y="395" type="curve" smooth="yes"/>
      <point x="48" y="320"/>
      <point x="93" y="271"/>
      <point x="207" y="241" type="curve" smooth="yes"/>
      <point x="309" y="214"/>
      <point x="335" y="194"/>
      <point x="335" y="139" type="curve" smooth="yes"/>
      <point x="335" y="93"/>
      <point x="291" y="62"/>
      <point x="222" y="62" type="curve" smooth="yes"/>
      <point x="155" y="62"/>
      <point x="106" y="81"/>
      <point x="68" y="106" type="curve"/>
      <point x="25" y="57" type="line"/>
      <point x="53" y="37"/>
      <point x="77" y="22"/>
      <point x="101" y="16" type="curve"/>
      <point x="138" y="-3"/>
      <point x="176" y="-12"/>
      <point x="227" y="-12" type="curve" smooth="yes"/>
      <point x="331" y="-12"/>
      <point x="432" y="38"/>
      <point x="432" y="148" type="curve" smooth="yes"/>
      <point x="432" y="240"/>
      <point x="368" y="284"/>
      <point x="257" y="312" type="curve" smooth="yes"/>
      <point x="172" y="334"/>
      <point x="144" y="354"/>
      <point x="144" y="397" type="curve" smooth="yes"/>
      <point x="144" y="439"/>
      <point x="181" y="466"/>
      <point x="241" y="466" type="curve" smooth="yes"/>
      <point x="290" y="466"/>
      <point x="331" y="451"/>
      <point x="377" y="418" type="curve"/>
      <point x="417" y="479" type="line"/>
      <point x="367" y="517"/>
      <point x="312" y="539"/>
      <point x="238" y="539" type="curve" smooth="yes"/>
    </contour>
    <contour>
      <point x="229" y="-216"/>
      <point x="266" y="-197"/>
      <point x="291" y="-178" type="curve"/>
      <point x="255" y="-119" type="line"/>
      <point x="232" y="-133"/>
      <point x="214" y="-142"/>
      <point x="181" y="-142" type="curve" smooth="yes"/>
      <point x="142" y="-142"/>
      <point x="117" y="-121"/>
      <point x="117" y="-68" type="curve" smooth="yes"/>
      <point x="117" y="37" type="line"/>
      <point x="25" y="57" type="line"/>
      <point x="25" y="-60" type="line" smooth="yes"/>
      <point x="25" y="-164"/>
      <point x="84" y="-216"/>
      <point x="176" y="-216" type="curve" smooth="yes"/>
    </contour>
  </outline>
</glyph>
<glyph name="uni0283" format="1">
  <advance width="300"/>
  <unicode hex="0283"/>
  <outline>
    <contour>
      <point x="104" y="527" type="line"/>
      <point x="104" y="0" type="line"/>
      <point x="196" y="0" type="line"/>
      <point x="196" y="527" type="line"/>
    </contour>
    <component base="hookHELPER" xOffset="-100"/>
    <component base="hookaboveHELPER2" xOffset="74"/>
  </outline>
</glyph>
<glyph name="uni02BC" format="1">
  <advance width="180"/>
  <unicode hex="02BC"/>
  <outline>
    <contour>
      <point x="61" y="750"/>
      <point x="35" y="726"/>
      <point x="35" y="694" type="curve" smooth="yes"/>
      <point x="35" y="675"/>
      <point x="45" y="659"/>
      <point x="59" y="647" type="curve"/>
      <point x="30" y="531" type="line"/>
      <point x="83" y="531" type="line"/>
      <point x="124" y="617" type="line" smooth="yes"/>
      <point x="145" y="661"/>
      <point x="150" y="677"/>
      <point x="150" y="694" type="curve" smooth="yes"/>
      <point x="150" y="726"/>
      <point x="125" y="750"/>
      <point x="93" y="750" type="curve" smooth="yes"/>
    </contour>
    <contour>
      <point x="79" y="527" type="move" name="_topleft"/>
    </contour>
  </outline>
</glyph>
<glyph name="caron" format="1">
  <advance width="392"/>
  <unicode hex="02C7"/>
  <outline>
    <contour>
      <point x="196" y="701" type="line"/>
      <point x="70" y="785" type="line"/>
      <point x="30" y="740" type="line"/>
      <point x="166" y="627" type="line"/>
      <point x="227" y="627" type="line"/>
      <point x="362" y="740" type="line"/>
      <point x="323" y="785" type="line"/>
    </contour>
    <contour>
      <point x="196" y="527" type="move" name="_top"/>
    </contour>
  </outline>
</glyph>
<glyph name="breve" format="1">
  <advance width="363"/>
  <unicode hex="02D8"/>
  <outline>
    <contour>
      <point x="261" y="643"/>
      <point x="325" y="692"/>
      <point x="333" y="776" type="curve"/>
      <point x="272" y="789" type="line"/>
      <point x="258" y="739"/>
      <point x="227" y="713"/>
      <point x="180" y="713" type="curve" smooth="yes"/>
      <point x="133" y="713"/>
      <point x="105" y="739"/>
      <point x="91" y="789" type="curve"/>
      <point x="30" y="776" type="line"/>
      <point x="38" y="692"/>
      <point x="100" y="643"/>
      <point x="180" y="643" type="curve" smooth="yes"/>
    </contour>
    <contour>
      <point x="182" y="527" type="move" name="_top"/>
    </contour>
  </outline>
</glyph>
<glyph name="dotaccent" format="1">
  <advance width="189"/>
  <unicode hex="02D9"/>
  <outline>
    <contour>
      <point x="56" y="780"/>
      <point x="30" y="753"/>
      <point x="30" y="717" type="curve" smooth="yes"/>
      <point x="30" y="682"/>
      <point x="56" y="655"/>
      <point x="94" y="655" type="curve" smooth="yes"/>
      <point x="133" y="655"/>
      <point x="159" y="682"/>
      <point x="159" y="717" type="curve" smooth="yes"/>
      <point x="159" y="753"/>
      <point x="133" y="780"/>
      <point x="94" y="780" type="curve" smooth="yes"/>
    </contour>
    <contour>
      <point x="94" y="720" type="move" name="_center"/>
    </contour>
    <contour>
      <point x="95" y="527" type="move" name="_top"/>
    </contour>
  </outline>
</glyph>
<glyph name="hungarumlaut" format="1">
  <advance width="366"/>
  <unicode hex="02DD"/>
  <outline>
    <contour>
      <point x="172" y="659" type="line"/>
      <point x="230" y="634" type="line"/>
      <point x="336" y="791" type="line"/>
      <point x="258" y="832" type="line"/>
    </contour>
    <contour>
      <point x="30" y="664" type="line"/>
      <point x="88" y="639" type="line"/>
      <point x="184" y="791" type="line"/>
      <point x="106" y="832" type="line"/>
    </contour>
    <contour>
      <point x="135" y="527" type="move" name="_top"/>
    </contour>
  </outline>
</glyph>
<glyph name="uni0306" format="1">
  <advance width="362"/>
  <unicode hex="0306"/>
  <outline>
    <contour>
      <point x="270" y="632"/>
      <point x="334" y="681"/>
      <point x="342" y="755" type="curve"/>
      <point x="281" y="768" type="line"/>
      <point x="267" y="728"/>
      <point x="236" y="702"/>
      <point x="189" y="702" type="curve" smooth="yes"/>
      <point x="142" y="702"/>
      <point x="114" y="728"/>
      <point x="100" y="768" type="curve"/>
      <point x="39" y="755" type="line"/>
      <point x="47" y="681"/>
      <point x="109" y="632"/>
      <point x="189" y="632" type="curve" smooth="yes"/>
    </contour>
    <contour>
      <point x="191" y="527" type="move" name="_top"/>
    </contour>
  </outline>
</glyph>
<glyph name="uni0308" format="1">
  <advance width="385"/>
  <unicode hex="0308"/>
  <outline>
    <component base="dieresis" xOffset="9"/>
    <contour>
      <point x="202" y="527" type="move" name="_top"/>
    </contour>
  </outline>
</glyph>
<glyph name="uni0314" format="1">
  <advance width="174"/>
  <unicode hex="0314"/>
  <outline>
    <component base="uni0326" xOffset="177" yOffset="506" xScale="-1" yScale="-1"/>
    <contour>
      <point x="83" y="527" type="move" name="_top"/>
    </contour>
  </outline>
</glyph>
<glyph name="tonos" format="1">
  <advance width="197"/>
  <unicode hex="0384"/>
  <outline>
    <contour>
      <point x="30" y="606" type="line"/>
      <point x="99" y="595" type="line"/>
      <point x="167" y="794" type="line"/>
      <point x="67" y="812" type="line"/>
    </contour>
    <contour>
      <point x="64" y="527" type="move" name="_top"/>
    </contour>
  </outline>
</glyph>
<glyph name="dieresistonos" format="1">
  <advance width="405"/>
  <unicode hex="0385"/>
  <outline>
    <contour>
      <point x="168" y="739" type="line"/>
      <point x="236" y="729" type="line"/>
      <point x="298" y="900" type="line"/>
      <point x="197" y="918" type="line"/>
    </contour>
    <contour>
      <point x="55" y="737"/>
      <point x="30" y="713"/>
      <point x="30" y="680" type="curve" smooth="yes"/>
      <point x="30" y="648"/>
      <point x="55" y="624"/>
      <point x="88" y="624" type="curve" smooth="yes"/>
      <point x="120" y="624"/>
      <point x="145" y="648"/>
      <point x="145" y="680" type="curve" smooth="yes"/>
      <point x="145" y="713"/>
      <point x="120" y="737"/>
      <point x="88" y="737" type="curve" smooth="yes"/>
    </contour>
    <contour>
      <point x="285" y="737"/>
      <point x="260" y="713"/>
      <point x="260" y="680" type="curve" smooth="yes"/>
      <point x="260" y="648"/>
      <point x="285" y="624"/>
      <point x="317" y="624" type="curve" smooth="yes"/>
      <point x="350" y="624"/>
      <point x="375" y="648"/>
      <point x="375" y="680" type="curve" smooth="yes"/>
      <point x="375" y="713"/>
      <point x="350" y="737"/>
      <point x="317" y="737" type="curve" smooth="yes"/>
    </contour>
    <contour>
      <point x="203" y="527" type="move" name="_top"/>
    </contour>
  </outline>
</glyph>
<glyph name="Delta" format="1">
  <advance width="583"/>
  <unicode hex="0394"/>
  <outline>
    <contour>
      <point x="454" y="78" type="line"/>
      <point x="125" y="78" type="line"/>
      <point x="290" y="609" type="line"/>
    </contour>
    <contour>
      <point x="232" y="689" type="line"/>
      <point x="6" y="0" type="line"/>
      <point x="577" y="0" type="line"/>
      <point x="352" y="689" type="line"/>
    </contour>
  </outline>
</glyph>
<glyph name="Lambda" format="1">
  <advance width="573"/>
  <unicode hex="039B"/>
  <outline>
    <contour>
      <point x="227" y="689" type="line"/>
      <point x="6" y="0" type="line"/>
      <point x="102" y="0" type="line"/>
      <point x="285" y="610" type="line"/>
      <point x="467" y="0" type="line"/>
      <point x="567" y="0" type="line"/>
      <point x="347" y="689" type="line"/>
    </contour>
  </outline>
</glyph>
<glyph name="alpha" format="1">
  <advance width="594"/>
  <unicode hex="03B1"/>
  <outline>
    <contour>
      <point x="126" y="539"/>
      <point x="58" y="422"/>
      <point x="58" y="259" type="curve" smooth="yes"/>
      <point x="58" y="78"/>
      <point x="130" y="-12"/>
      <point x="250" y="-12" type="curve" smooth="yes"/>
      <point x="339" y="-12"/>
      <point x="387" y="55"/>
      <point x="414" y="138" type="curve"/>
      <point x="423" y="82" type="line" smooth="yes"/>
      <point x="432" y="25"/>
      <point x="473" y="-6"/>
      <point x="517" y="-13" type="curve"/>
      <point x="549" y="63" type="line"/>
      <point x="519" y="74"/>
      <point x="508" y="89"/>
      <point x="503" y="116" type="curve" smooth="yes"/>
      <point x="477" y="250" type="line"/>
      <point x="532" y="527" type="line"/>
      <point x="448" y="527" type="line"/>
      <point x="421" y="376" type="line"/>
      <point x="400" y="497"/>
      <point x="346" y="539"/>
      <point x="256" y="539" type="curve" smooth="yes"/>
    </contour>
    <contour>
      <point x="328" y="466"/>
      <point x="370" y="424"/>
      <point x="397" y="267" type="curve"/>
      <point x="364" y="94"/>
      <point x="308" y="61"/>
      <point x="260" y="61" type="curve" smooth="yes"/>
      <point x="192" y="61"/>
      <point x="156" y="122"/>
      <point x="156" y="259" type="curve" smooth="yes"/>
      <point x="156" y="394"/>
      <point x="195" y="466"/>
      <point x="264" y="466" type="curve" smooth="yes"/>
    </contour>
    <contour>
      <point x="277" y="527" type="move" name="top"/>
    </contour>
  </outline>
</glyph>
<glyph name="beta" format="1">
  <advance width="603"/>
  <unicode hex="03B2"/>
  <outline>
    <contour>
      <point x="173" y="750"/>
      <point x="95" y="672"/>
      <point x="95" y="541" type="curve" smooth="yes"/>
      <point x="95" y="-214" type="line"/>
      <point x="187" y="-201" type="line"/>
      <point x="187" y="541" type="line" smooth="yes"/>
      <point x="187" y="634"/>
      <point x="226" y="678"/>
      <point x="300" y="678" type="curve" smooth="yes"/>
      <point x="367" y="678"/>
      <point x="416" y="642"/>
      <point x="416" y="562" type="curve" smooth="yes"/>
      <point x="416" y="471"/>
      <point x="363" y="433"/>
      <point x="297" y="433" type="curve" smooth="yes"/>
      <point x="248" y="433" type="line"/>
      <point x="238" y="363" type="line"/>
      <point x="290" y="363" type="line" smooth="yes"/>
      <point x="401" y="363"/>
      <point x="463" y="309"/>
      <point x="463" y="204" type="curve" smooth="yes"/>
      <point x="463" y="110"/>
      <point x="400" y="62"/>
      <point x="323" y="62" type="curve" smooth="yes"/>
      <point x="259" y="62"/>
      <point x="213" y="80"/>
      <point x="176" y="121" type="curve"/>
      <point x="160" y="62" type="line"/>
      <point x="210" y="13"/>
      <point x="271" y="-12"/>
      <point x="335" y="-12" type="curve" smooth="yes"/>
      <point x="453" y="-12"/>
      <point x="557" y="71"/>
      <point x="557" y="203" type="curve" smooth="yes"/>
      <point x="557" y="354"/>
      <point x="448" y="394"/>
      <point x="354" y="404" type="curve"/>
      <point x="437" y="416"/>
      <point x="503" y="468"/>
      <point x="503" y="571" type="curve" smooth="yes"/>
      <point x="503" y="682"/>
      <point x="411" y="750"/>
      <point x="299" y="750" type="curve" smooth="yes"/>
    </contour>
  </outline>
</glyph>
<glyph name="epsilon" format="1">
  <advance width="468"/>
  <unicode hex="03B5"/>
  <outline>
    <contour>
      <point x="151" y="539"/>
      <point x="78" y="486"/>
      <point x="78" y="398" type="curve" smooth="yes"/>
      <point x="78" y="341"/>
      <point x="118" y="293"/>
      <point x="189" y="281" type="curve"/>
      <point x="109" y="272"/>
      <point x="57" y="233"/>
      <point x="57" y="144" type="curve" smooth="yes"/>
      <point x="57" y="45"/>
      <point x="141" y="-12"/>
      <point x="264" y="-12" type="curve" smooth="yes"/>
      <point x="337" y="-12"/>
      <point x="404" y="11"/>
      <point x="453" y="50" type="curve"/>
      <point x="409" y="109" type="line"/>
      <point x="364" y="80"/>
      <point x="325" y="62"/>
      <point x="269" y="62" type="curve" smooth="yes"/>
      <point x="198" y="62"/>
      <point x="158" y="99"/>
      <point x="158" y="151" type="curve" smooth="yes"/>
      <point x="158" y="213"/>
      <point x="189" y="239"/>
      <point x="271" y="239" type="curve" smooth="yes"/>
      <point x="327" y="239" type="line"/>
      <point x="338" y="311" type="line"/>
      <point x="277" y="311" type="line" smooth="yes"/>
      <point x="213" y="311"/>
      <point x="173" y="341"/>
      <point x="173" y="388" type="curve" smooth="yes"/>
      <point x="173" y="439"/>
      <point x="208" y="467"/>
      <point x="272" y="467" type="curve" smooth="yes"/>
      <point x="321" y="467"/>
      <point x="354" y="456"/>
      <point x="389" y="434" type="curve"/>
      <point x="434" y="490" type="line"/>
      <point x="390" y="521"/>
      <point x="337" y="539"/>
      <point x="263" y="539" type="curve" smooth="yes"/>
    </contour>
    <contour>
      <point x="258" y="527" type="move" name="top"/>
    </contour>
  </outline>
</glyph>
<glyph name="zeta" format="1">
  <advance width="388"/>
  <unicode hex="03B6"/>
  <outline>
    <contour>
      <point x="49" y="739" type="line"/>
      <point x="38" y="665" type="line"/>
      <point x="183" y="665" type="line" smooth="yes"/>
      <point x="228" y="665"/>
      <point x="306" y="667"/>
      <point x="333" y="678" type="curve"/>
      <point x="145" y="570"/>
      <point x="40" y="368"/>
      <point x="40" y="254" type="curve" smooth="yes"/>
      <point x="40" y="126"/>
      <point x="100" y="71"/>
      <point x="204" y="30" type="curve" smooth="yes"/>
      <point x="285" y="-2"/>
      <point x="308" y="-15"/>
      <point x="308" y="-55" type="curve" smooth="yes"/>
      <point x="308" y="-103"/>
      <point x="267" y="-128"/>
      <point x="210" y="-151" type="curve"/>
      <point x="249" y="-215" type="line"/>
      <point x="357" y="-168"/>
      <point x="407" y="-120"/>
      <point x="407" y="-45" type="curve" smooth="yes"/>
      <point x="407" y="34"/>
      <point x="346" y="64"/>
      <point x="264" y="95" type="curve" smooth="yes"/>
      <point x="176" y="128"/>
      <point x="138" y="158"/>
      <point x="138" y="254" type="curve" smooth="yes"/>
      <point x="138" y="375"/>
      <point x="213" y="504"/>
      <point x="422" y="678" type="curve"/>
      <point x="410" y="739" type="line"/>
    </contour>
  </outline>
</glyph>
<glyph name="eta" format="1">
  <advance width="592"/>
  <unicode hex="03B7"/>
  <outline>
    <contour>
      <point x="187" y="438" type="line"/>
      <point x="180" y="486"/>
      <point x="170" y="517"/>
      <point x="159" y="539" type="curve"/>
      <point x="75" y="527" type="line"/>
      <point x="89" y="483"/>
      <point x="101" y="434"/>
      <point x="101" y="357" type="curve" smooth="yes"/>
      <point x="101" y="0" type="line"/>
      <point x="193" y="0" type="line"/>
      <point x="193" y="382" type="line"/>
    </contour>
    <contour>
      <point x="273" y="539"/>
      <point x="213" y="495"/>
      <point x="177" y="432" type="curve"/>
      <point x="193" y="374" type="line"/>
      <point x="228" y="430"/>
      <point x="268" y="467"/>
      <point x="327" y="467" type="curve" smooth="yes"/>
      <point x="378" y="467"/>
      <point x="410" y="444"/>
      <point x="410" y="365" type="curve" smooth="yes"/>
      <point x="410" y="-202" type="line"/>
      <point x="502" y="-213" type="line"/>
      <point x="502" y="378" type="line" smooth="yes"/>
      <point x="502" y="478"/>
      <point x="446" y="539"/>
      <point x="349" y="539" type="curve" smooth="yes"/>
    </contour>
    <contour>
      <point x="294" y="527" type="move" name="top"/>
    </contour>
  </outline>
</glyph>
<glyph name="iota" format="1">
  <advance width="276"/>
  <unicode hex="03B9"/>
  <outline>
    <contour>
      <point x="90" y="527" type="line"/>
      <point x="90" y="130" type="line" smooth="yes"/>
      <point x="90" y="46"/>
      <point x="117" y="6"/>
      <point x="199" y="-12" type="curve"/>
      <point x="228" y="57" type="line"/>
      <point x="195" y="72"/>
      <point x="182" y="89"/>
      <point x="182" y="141" type="curve" smooth="yes"/>
      <point x="182" y="527" type="line"/>
    </contour>
    <contour>
      <point x="136" y="527" type="move" name="top"/>
    </contour>
  </outline>
</glyph>
<glyph name="kappa" format="1">
  <advance width="528"/>
  <unicode hex="03BA"/>
  <outline>
    <contour>
      <point x="197" y="282" type="line"/>
      <point x="375" y="70" type="line" smooth="yes"/>
      <point x="405" y="34"/>
      <point x="435" y="3"/>
      <point x="496" y="-12" type="curve"/>
      <point x="525" y="56" type="line"/>
      <point x="481" y="73"/>
      <point x="469" y="93"/>
      <point x="436" y="132" type="curve" smooth="yes"/>
      <point x="305" y="285" type="line"/>
      <point x="496" y="499" type="line"/>
      <point x="419" y="539" type="line"/>
    </contour>
    <contour>
      <point x="75" y="527" type="line"/>
      <point x="89" y="483"/>
      <point x="101" y="434"/>
      <point x="101" y="357" type="curve" smooth="yes"/>
      <point x="101" y="0" type="line"/>
      <point x="193" y="0" type="line"/>
      <point x="193" y="339" type="line"/>
      <point x="193" y="451"/>
      <point x="176" y="503"/>
      <point x="159" y="539" type="curve"/>
    </contour>
  </outline>
</glyph>
<glyph name="mu" format="1">
  <advance width="588"/>
  <unicode hex="03BC"/>
  <outline>
    <contour>
      <point x="403" y="180" type="line"/>
      <point x="366" y="96"/>
      <point x="317" y="67"/>
      <point x="266" y="67" type="curve" smooth="yes"/>
      <point x="221" y="67"/>
      <point x="187" y="89"/>
      <point x="187" y="156" type="curve" smooth="yes"/>
      <point x="187" y="527" type="line"/>
      <point x="95" y="527" type="line"/>
      <point x="95" y="-213" type="line"/>
      <point x="186" y="-202" type="line"/>
      <point x="186" y="-96" type="line" smooth="yes"/>
      <point x="186" y="-33"/>
      <point x="181" y="1"/>
      <point x="169" y="38" type="curve"/>
      <point x="188" y="-1"/>
      <point x="229" y="-12"/>
      <point x="265" y="-12" type="curve" smooth="yes"/>
      <point x="335" y="-12"/>
      <point x="387" y="51"/>
      <point x="412" y="104" type="curve"/>
    </contour>
    <contour>
      <point x="403" y="85" type="line"/>
      <point x="407" y="51"/>
      <point x="410" y="26"/>
      <point x="427" y="-12" type="curve"/>
      <point x="513" y="0" type="line"/>
      <point x="499" y="43"/>
      <point x="487" y="101"/>
      <point x="487" y="180" type="curve" smooth="yes"/>
      <point x="487" y="527" type="line"/>
      <point x="395" y="527" type="line"/>
      <point x="395" y="128" type="line"/>
    </contour>
  </outline>
</glyph>
<glyph name="nu" format="1">
  <advance width="482"/>
  <unicode hex="03BD"/>
  <outline>
    <contour>
      <point x="-5" y="505" type="line"/>
      <point x="64" y="428"/>
      <point x="111" y="271"/>
      <point x="180" y="0" type="curve"/>
      <point x="293" y="0" type="line"/>
      <point x="472" y="519" type="line"/>
      <point x="381" y="538" type="line"/>
      <point x="238" y="78" type="line"/>
      <point x="185" y="331"/>
      <point x="129" y="476"/>
      <point x="82" y="538" type="curve"/>
    </contour>
  </outline>
</glyph>
<glyph name="xi" format="1">
  <advance width="437"/>
  <unicode hex="03BE"/>
  <outline>
    <contour>
      <point x="160" y="750"/>
      <point x="88" y="680"/>
      <point x="88" y="586" type="curve" smooth="yes"/>
      <point x="88" y="508"/>
      <point x="137" y="463"/>
      <point x="209" y="443" type="curve"/>
      <point x="128" y="432"/>
      <point x="50" y="377"/>
      <point x="50" y="262" type="curve" smooth="yes"/>
      <point x="50" y="125"/>
      <point x="125" y="83"/>
      <point x="234" y="37" type="curve" smooth="yes"/>
      <point x="325" y="-1"/>
      <point x="348" y="-15"/>
      <point x="348" y="-55" type="curve" smooth="yes"/>
      <point x="348" y="-103"/>
      <point x="307" y="-128"/>
      <point x="250" y="-151" type="curve"/>
      <point x="289" y="-215" type="line"/>
      <point x="397" y="-168"/>
      <point x="447" y="-120"/>
      <point x="447" y="-45" type="curve" smooth="yes"/>
      <point x="447" y="31"/>
      <point x="395" y="60"/>
      <point x="289" y="104" type="curve" smooth="yes"/>
      <point x="180" y="149"/>
      <point x="149" y="176"/>
      <point x="149" y="264" type="curve" smooth="yes"/>
      <point x="149" y="343"/>
      <point x="199" y="402"/>
      <point x="279" y="402" type="curve" smooth="yes"/>
      <point x="345" y="402" type="line"/>
      <point x="357" y="478" type="line"/>
      <point x="287" y="478" type="line" smooth="yes"/>
      <point x="223" y="478"/>
      <point x="183" y="516"/>
      <point x="183" y="581" type="curve" smooth="yes"/>
      <point x="183" y="638"/>
      <point x="212" y="678"/>
      <point x="286" y="678" type="curve" smooth="yes"/>
      <point x="332" y="678"/>
      <point x="364" y="665"/>
      <point x="401" y="639" type="curve"/>
      <point x="447" y="695" type="line"/>
      <point x="400" y="732"/>
      <point x="347" y="750"/>
      <point x="274" y="750" type="curve" smooth="yes"/>
    </contour>
  </outline>
</glyph>
<glyph name="omicron" format="1">
  <advance width="584"/>
  <unicode hex="03BF"/>
  <outline>
    <component base="o"/>
    <contour>
      <point x="292" y="527" type="move" name="top"/>
    </contour>
  </outline>
</glyph>
<glyph name="pi" format="1">
  <advance width="595"/>
  <unicode hex="03C0"/>
  <outline>
    <contour>
      <point x="394" y="468" type="line"/>
      <point x="394" y="130" type="line"/>
      <point x="394" y="46"/>
      <point x="421" y="6"/>
      <point x="503" y="-12" type="curve"/>
      <point x="535" y="62" type="line"/>
      <point x="499" y="71"/>
      <point x="486" y="89"/>
      <point x="486" y="141" type="curve"/>
      <point x="486" y="468" type="line"/>
    </contour>
    <contour>
      <point x="120" y="472" type="line"/>
      <point x="120" y="0" type="line"/>
      <point x="212" y="0" type="line"/>
      <point x="212" y="472" type="line"/>
    </contour>
    <contour>
      <point x="64" y="449"/>
      <point x="77" y="451"/>
      <point x="130" y="452" type="curve"/>
      <point x="565" y="452" type="line"/>
      <point x="565" y="527" type="line"/>
      <point x="122" y="527" type="line"/>
      <point x="73" y="527"/>
      <point x="51" y="525"/>
      <point x="15" y="512" type="curve"/>
      <point x="31" y="440" type="line"/>
    </contour>
  </outline>
</glyph>
<glyph name="rho" format="1">
  <advance width="589"/>
  <unicode hex="03C1"/>
  <outline>
    <contour>
      <point x="164" y="539"/>
      <point x="90" y="446"/>
      <point x="90" y="271" type="curve" smooth="yes"/>
      <point x="90" y="-213" type="line"/>
      <point x="182" y="-202" type="line"/>
      <point x="182" y="74" type="line"/>
      <point x="182" y="121" type="line"/>
      <point x="182" y="256" type="line" smooth="yes"/>
      <point x="182" y="392"/>
      <point x="213" y="467"/>
      <point x="303" y="467" type="curve" smooth="yes"/>
      <point x="385" y="467"/>
      <point x="428" y="402"/>
      <point x="428" y="264" type="curve" smooth="yes"/>
      <point x="428" y="133"/>
      <point x="382" y="63"/>
      <point x="298" y="63" type="curve"/>
      <point x="244" y="63"/>
      <point x="198" y="92"/>
      <point x="173" y="152" type="curve"/>
      <point x="170" y="73" type="line"/>
      <point x="204" y="11"/>
      <point x="257" y="-12"/>
      <point x="320" y="-12" type="curve"/>
      <point x="456" y="-12"/>
      <point x="527" y="115"/>
      <point x="527" y="264" type="curve" smooth="yes"/>
      <point x="527" y="444"/>
      <point x="458" y="539"/>
      <point x="305" y="539" type="curve" smooth="yes"/>
    </contour>
  </outline>
</glyph>
<glyph name="sigmafinal" format="1">
  <advance width="468"/>
  <unicode hex="03C2"/>
  <outline>
    <contour>
      <point x="144" y="539"/>
      <point x="57" y="440"/>
      <point x="57" y="272" type="curve"/>
      <point x="57" y="131"/>
      <point x="124" y="68"/>
      <point x="229" y="28" type="curve" smooth="yes"/>
      <point x="307" y="-2"/>
      <point x="331" y="-15"/>
      <point x="331" y="-55" type="curve" smooth="yes"/>
      <point x="331" y="-103"/>
      <point x="290" y="-128"/>
      <point x="233" y="-151" type="curve"/>
      <point x="272" y="-215" type="line"/>
      <point x="380" y="-168"/>
      <point x="430" y="-120"/>
      <point x="430" y="-45" type="curve" smooth="yes"/>
      <point x="430" y="34"/>
      <point x="369" y="64"/>
      <point x="289" y="96" type="curve" smooth="yes"/>
      <point x="185" y="137"/>
      <point x="155" y="165"/>
      <point x="155" y="272" type="curve"/>
      <point x="155" y="399"/>
      <point x="208" y="463"/>
      <point x="291" y="463" type="curve" smooth="yes"/>
      <point x="335" y="463"/>
      <point x="368" y="450"/>
      <point x="403" y="422" type="curve"/>
      <point x="448" y="482" type="line"/>
      <point x="399" y="523"/>
      <point x="349" y="539"/>
      <point x="287" y="539" type="curve" smooth="yes"/>
    </contour>
  </outline>
</glyph>
<glyph name="sigma" format="1">
  <advance width="587"/>
  <unicode hex="03C3"/>
  <outline>
    <contour>
      <point x="491" y="530"/>
      <point x="396" y="533"/>
      <point x="317" y="533" type="curve" smooth="yes"/>
      <point x="139" y="533"/>
      <point x="57" y="422"/>
      <point x="57" y="263" type="curve"/>
      <point x="57" y="96"/>
      <point x="142" y="-12"/>
      <point x="292" y="-12" type="curve" smooth="yes"/>
      <point x="441" y="-12"/>
      <point x="527" y="101"/>
      <point x="527" y="264" type="curve"/>
      <point x="527" y="373"/>
      <point x="476" y="447"/>
      <point x="419" y="469" type="curve"/>
      <point x="337" y="477" type="line"/>
      <point x="380" y="454"/>
      <point x="428" y="384"/>
      <point x="428" y="264" type="curve"/>
      <point x="428" y="126"/>
      <point x="380" y="62"/>
      <point x="292" y="62" type="curve" smooth="yes"/>
      <point x="204" y="62"/>
      <point x="156" y="126"/>
      <point x="156" y="263" type="curve"/>
      <point x="156" y="408"/>
      <point x="202" y="464"/>
      <point x="361" y="464" type="curve"/>
      <point x="416" y="463" type="line"/>
      <point x="560" y="453" type="line"/>
      <point x="560" y="527" type="line"/>
    </contour>
  </outline>
</glyph>
<glyph name="tau" format="1">
  <advance width="465"/>
  <unicode hex="03C4"/>
  <outline>
    <contour>
      <point x="185" y="468" type="line"/>
      <point x="185" y="130" type="line"/>
      <point x="185" y="46"/>
      <point x="212" y="6"/>
      <point x="294" y="-12" type="curve"/>
      <point x="326" y="62" type="line"/>
      <point x="290" y="71"/>
      <point x="277" y="89"/>
      <point x="277" y="141" type="curve"/>
      <point x="277" y="468" type="line"/>
    </contour>
    <contour>
      <point x="50" y="449"/>
      <point x="63" y="451"/>
      <point x="116" y="452" type="curve"/>
      <point x="461" y="452" type="line"/>
      <point x="461" y="527" type="line"/>
      <point x="108" y="527" type="line"/>
      <point x="59" y="527"/>
      <point x="37" y="525"/>
      <point x="1" y="512" type="curve"/>
      <point x="17" y="440" type="line"/>
    </contour>
  </outline>
</glyph>
<glyph name="chi" format="1">
  <advance width="466"/>
  <unicode hex="03C7"/>
  <outline>
    <contour>
      <point x="-5" y="505" type="line"/>
      <point x="59" y="436"/>
      <point x="102" y="369"/>
      <point x="184" y="187" type="curve"/>
      <point x="232" y="110" type="line"/>
      <point x="366" y="-211" type="line"/>
      <point x="459" y="-199" type="line"/>
      <point x="283" y="186" type="line"/>
      <point x="235" y="268" type="line"/>
      <point x="177" y="419"/>
      <point x="137" y="479"/>
      <point x="85" y="538" type="curve"/>
    </contour>
    <contour>
      <point x="235" y="268" type="line"/>
      <point x="184" y="187" type="line"/>
      <point x="-1" y="-199" type="line"/>
      <point x="90" y="-210" type="line"/>
      <point x="232" y="110" type="line"/>
      <point x="283" y="186" type="line"/>
      <point x="443" y="527" type="line"/>
      <point x="347" y="538" type="line" smooth="yes"/>
    </contour>
  </outline>
</glyph>
<glyph name="psi" format="1">
  <advance width="754"/>
  <unicode hex="03C8"/>
  <outline>
    <contour>
      <point x="565" y="527" type="line"/>
      <point x="584" y="428"/>
      <point x="591" y="337"/>
      <point x="591" y="262" type="curve"/>
      <point x="591" y="128"/>
      <point x="534" y="65"/>
      <point x="401" y="60" type="curve"/>
      <point x="402" y="-12" type="line"/>
      <point x="570" y="-7"/>
      <point x="684" y="65"/>
      <point x="684" y="255" type="curve"/>
      <point x="684" y="358"/>
      <point x="674" y="440"/>
      <point x="658" y="527" type="curve"/>
    </contour>
    <contour>
      <point x="80" y="527" type="line"/>
      <point x="80" y="202" type="line" smooth="yes"/>
      <point x="80" y="70"/>
      <point x="162" y="-10"/>
      <point x="357" y="-12" type="curve"/>
      <point x="357" y="60" type="line"/>
      <point x="218" y="64"/>
      <point x="172" y="113"/>
      <point x="172" y="209" type="curve" smooth="yes"/>
      <point x="172" y="527" type="line"/>
    </contour>
    <contour>
      <point x="334" y="527" type="line"/>
      <point x="334" y="-213" type="line"/>
      <point x="422" y="-202" type="line"/>
      <point x="422" y="527" type="line"/>
    </contour>
  </outline>
</glyph>
<glyph name="uni0402" format="1">
  <advance width="717"/>
  <unicode hex="0402"/>
  <outline>
    <contour>
      <point x="15" y="689" type="line"/>
      <point x="15" y="608" type="line"/>
      <point x="211" y="608" type="line"/>
      <point x="211" y="0" type="line"/>
      <point x="306" y="0" type="line"/>
      <point x="306" y="608" type="line"/>
      <point x="497" y="608" type="line"/>
      <point x="507" y="689" type="line"/>
    </contour>
    <contour>
      <point x="393" y="452"/>
      <point x="337" y="421"/>
      <point x="296" y="372" type="curve"/>
      <point x="296" y="284" type="line"/>
      <point x="335" y="338"/>
      <point x="381" y="371"/>
      <point x="456" y="371" type="curve" smooth="yes"/>
      <point x="547" y="371"/>
      <point x="587" y="323"/>
      <point x="587" y="234" type="curve" smooth="yes"/>
      <point x="587" y="100" type="line" smooth="yes"/>
      <point x="587" y="8"/>
      <point x="568" y="-32"/>
      <point x="477" y="-68" type="curve"/>
      <point x="502" y="-137" type="line"/>
      <point x="613" y="-102"/>
      <point x="682" y="-48"/>
      <point x="682" y="96" type="curve" smooth="yes"/>
      <point x="682" y="235" type="line" smooth="yes"/>
      <point x="682" y="371"/>
      <point x="608" y="452"/>
      <point x="478" y="452" type="curve" smooth="yes"/>
    </contour>
  </outline>
</glyph>
<glyph name="uni0409" format="1">
  <advance width="899"/>
  <unicode hex="0409"/>
  <outline>
    <contour>
      <point x="435" y="669" type="line"/>
      <point x="435" y="0" type="line"/>
      <point x="607" y="0" type="line" smooth="yes"/>
      <point x="763" y="0"/>
      <point x="874" y="61"/>
      <point x="874" y="223" type="curve" smooth="yes"/>
      <point x="874" y="368"/>
      <point x="772" y="436"/>
      <point x="608" y="436" type="curve" smooth="yes"/>
      <point x="514" y="436" type="line"/>
      <point x="514" y="362" type="line"/>
      <point x="609" y="362" type="line" smooth="yes"/>
      <point x="713" y="362"/>
      <point x="773" y="326"/>
      <point x="773" y="221" type="curve" smooth="yes"/>
      <point x="773" y="103"/>
      <point x="706" y="76"/>
      <point x="615" y="76" type="curve" smooth="yes"/>
      <point x="530" y="76" type="line"/>
      <point x="530" y="689" type="line"/>
    </contour>
    <contour>
      <point x="120" y="305" type="line" smooth="yes"/>
      <point x="99" y="126"/>
      <point x="89" y="90"/>
      <point x="14" y="62" type="curve"/>
      <point x="37" y="-12" type="line"/>
      <point x="152" y="25"/>
      <point x="188" y="66"/>
      <point x="215" y="312" type="curve" smooth="yes"/>
      <point x="248" y="609" type="line"/>
      <point x="165" y="689" type="line"/>
    </contour>
    <contour>
      <point x="165" y="689" type="line"/>
      <point x="228" y="609" type="line"/>
      <point x="435" y="609" type="line"/>
      <point x="530" y="689" type="line"/>
    </contour>
  </outline>
</glyph>
<glyph name="uni040A" format="1">
  <advance width="944"/>
  <unicode hex="040A"/>
  <outline>
    <contour>
      <point x="100" y="689" type="line"/>
      <point x="100" y="0" type="line"/>
      <point x="195" y="0" type="line"/>
      <point x="195" y="342" type="line"/>
      <point x="490" y="342" type="line"/>
      <point x="490" y="416" type="line"/>
      <point x="195" y="416" type="line"/>
      <point x="195" y="689" type="line"/>
    </contour>
    <contour>
      <point x="480" y="689" type="line"/>
      <point x="480" y="0" type="line"/>
      <point x="662" y="0" type="line" smooth="yes"/>
      <point x="808" y="0"/>
      <point x="919" y="61"/>
      <point x="919" y="213" type="curve" smooth="yes"/>
      <point x="919" y="348"/>
      <point x="822" y="416"/>
      <point x="668" y="416" type="curve" smooth="yes"/>
      <point x="559" y="416" type="line"/>
      <point x="559" y="342" type="line"/>
      <point x="669" y="342" type="line" smooth="yes"/>
      <point x="758" y="342"/>
      <point x="818" y="306"/>
      <point x="818" y="211" type="curve" smooth="yes"/>
      <point x="818" y="103"/>
      <point x="751" y="76"/>
      <point x="670" y="76" type="curve" smooth="yes"/>
      <point x="575" y="76" type="line"/>
      <point x="575" y="689" type="line"/>
    </contour>
  </outline>
</glyph>
<glyph name="uni040B" format="1">
  <advance width="717"/>
  <unicode hex="040B"/>
  <outline>
    <contour>
      <point x="15" y="689" type="line"/>
      <point x="15" y="608" type="line"/>
      <point x="497" y="608" type="line"/>
      <point x="507" y="689" type="line"/>
    </contour>
    <component base="uni04BA" xOffset="111"/>
  </outline>
</glyph>
<glyph name="uni0416" format="1">
  <advance width="821"/>
  <unicode hex="0416"/>
  <outline>
    <contour>
      <point x="697" y="689" type="line"/>
      <point x="538" y="401" type="line"/>
      <point x="456" y="401" type="line"/>
      <point x="456" y="689" type="line"/>
      <point x="365" y="689" type="line"/>
      <point x="365" y="401" type="line"/>
      <point x="283" y="401" type="line"/>
      <point x="126" y="689" type="line"/>
      <point x="24" y="689" type="line"/>
      <point x="206" y="366" type="line"/>
      <point x="5" y="0" type="line"/>
      <point x="110" y="0" type="line"/>
      <point x="282" y="323" type="line"/>
      <point x="365" y="323" type="line"/>
      <point x="365" y="0" type="line"/>
      <point x="456" y="0" type="line"/>
      <point x="456" y="323" type="line"/>
      <point x="538" y="323" type="line"/>
      <point x="709" y="0" type="line"/>
      <point x="816" y="0" type="line"/>
      <point x="615" y="366" type="line"/>
      <point x="797" y="689" type="line"/>
    </contour>
    <contour>
      <point x="411" y="689" type="move" name="top"/>
    </contour>
    <contour>
      <point x="773" y="0" type="move" name="bottomright"/>
    </contour>
  </outline>
</glyph>
<glyph name="uni0417" format="1">
  <advance width="521"/>
  <unicode hex="0417"/>
  <outline>
    <contour>
      <point x="161" y="701"/>
      <point x="90" y="672"/>
      <point x="27" y="616" type="curve"/>
      <point x="79" y="559" type="line"/>
      <point x="128" y="601"/>
      <point x="180" y="623"/>
      <point x="237" y="623" type="curve" smooth="yes"/>
      <point x="320" y="623"/>
      <point x="354" y="575"/>
      <point x="354" y="517" type="curve" smooth="yes"/>
      <point x="354" y="446"/>
      <point x="302" y="403"/>
      <point x="223" y="403" type="curve" smooth="yes"/>
      <point x="169" y="403" type="line"/>
      <point x="156" y="325" type="line"/>
      <point x="222" y="325" type="line" smooth="yes"/>
      <point x="323" y="325"/>
      <point x="374" y="279"/>
      <point x="374" y="199" type="curve" smooth="yes"/>
      <point x="374" y="118"/>
      <point x="320" y="68"/>
      <point x="225" y="68" type="curve" smooth="yes"/>
      <point x="157" y="68"/>
      <point x="106" y="93"/>
      <point x="66" y="135" type="curve"/>
      <point x="10" y="81" type="line"/>
      <point x="66" y="18"/>
      <point x="145" y="-12"/>
      <point x="230" y="-12" type="curve" smooth="yes"/>
      <point x="372" y="-12"/>
      <point x="476" y="72"/>
      <point x="476" y="198" type="curve" smooth="yes"/>
      <point x="476" y="305"/>
      <point x="402" y="360"/>
      <point x="318" y="369" type="curve"/>
      <point x="398" y="387"/>
      <point x="453" y="438"/>
      <point x="453" y="525" type="curve" smooth="yes"/>
      <point x="453" y="623"/>
      <point x="384" y="701"/>
      <point x="245" y="701" type="curve" smooth="yes"/>
    </contour>
    <contour>
      <point x="263" y="689" type="move" name="top"/>
    </contour>
    <contour>
      <point x="233" y="0" type="move" name="bottom"/>
    </contour>
  </outline>
</glyph>
<glyph name="uni0418" format="1">
  <advance width="683"/>
  <unicode hex="0418"/>
  <outline>
    <contour>
      <point x="464" y="689" type="line"/>
      <point x="182" y="103" type="line"/>
      <point x="189" y="162"/>
      <point x="195" y="229"/>
      <point x="195" y="353" type="curve" smooth="yes"/>
      <point x="195" y="689" type="line"/>
      <point x="100" y="689" type="line"/>
      <point x="100" y="0" type="line"/>
      <point x="222" y="0" type="line"/>
      <point x="501" y="583" type="line"/>
      <point x="496" y="533"/>
      <point x="488" y="444"/>
      <point x="488" y="336" type="curve" smooth="yes"/>
      <point x="488" y="0" type="line"/>
      <point x="583" y="0" type="line"/>
      <point x="583" y="689" type="line"/>
    </contour>
    <contour>
      <point x="342" y="689" type="move" name="top"/>
    </contour>
  </outline>
</glyph>
<glyph name="uni041A" format="1">
  <advance width="589"/>
  <unicode hex="041A"/>
  <outline>
    <contour>
      <point x="460" y="689" type="line"/>
      <point x="290" y="401" type="line"/>
      <point x="195" y="401" type="line"/>
      <point x="195" y="689" type="line"/>
      <point x="100" y="689" type="line"/>
      <point x="100" y="0" type="line"/>
      <point x="195" y="0" type="line"/>
      <point x="195" y="323" type="line"/>
      <point x="289" y="323" type="line"/>
      <point x="469" y="0" type="line"/>
      <point x="579" y="0" type="line"/>
      <point x="369" y="366" type="line"/>
      <point x="560" y="689" type="line"/>
    </contour>
    <contour>
      <point x="292" y="689" type="move" name="top"/>
    </contour>
    <contour>
      <point x="528" y="0" type="move" name="bottomright"/>
    </contour>
  </outline>
</glyph>
<glyph name="uni041B" format="1">
  <advance width="659"/>
  <unicode hex="041B"/>
  <outline>
    <contour>
      <point x="165" y="689" type="line"/>
      <point x="232" y="609" type="line"/>
      <point x="464" y="609" type="line"/>
      <point x="464" y="0" type="line"/>
      <point x="559" y="0" type="line"/>
      <point x="559" y="689" type="line"/>
    </contour>
    <contour>
      <point x="120" y="305" type="line" smooth="yes"/>
      <point x="99" y="126"/>
      <point x="89" y="90"/>
      <point x="14" y="62" type="curve"/>
      <point x="37" y="-12" type="line"/>
      <point x="152" y="25"/>
      <point x="188" y="66"/>
      <point x="215" y="312" type="curve" smooth="yes"/>
      <point x="248" y="609" type="line"/>
      <point x="165" y="689" type="line"/>
    </contour>
  </outline>
</glyph>
<glyph name="uni041F" format="1">
  <advance width="675"/>
  <unicode hex="041F"/>
  <outline>
    <contour>
      <point x="100" y="689" type="line"/>
      <point x="100" y="0" type="line"/>
      <point x="195" y="0" type="line"/>
      <point x="195" y="608" type="line"/>
      <point x="480" y="608" type="line"/>
      <point x="480" y="0" type="line"/>
      <point x="575" y="0" type="line"/>
      <point x="575" y="689" type="line"/>
    </contour>
    <contour>
      <point x="585" y="0" type="move" name="bottomright"/>
    </contour>
  </outline>
</glyph>
<glyph name="uni0428" format="1">
  <advance width="925"/>
  <unicode hex="0428"/>
  <outline>
    <contour>
      <point x="732" y="689" type="line"/>
      <point x="732" y="78" type="line"/>
      <point x="507" y="78" type="line"/>
      <point x="507" y="689" type="line"/>
      <point x="418" y="689" type="line"/>
      <point x="418" y="78" type="line"/>
      <point x="193" y="78" type="line"/>
      <point x="193" y="689" type="line"/>
      <point x="100" y="689" type="line"/>
      <point x="100" y="0" type="line"/>
      <point x="825" y="0" type="line"/>
      <point x="825" y="689" type="line"/>
    </contour>
    <contour>
      <point x="835" y="0" type="move" name="bottomright"/>
    </contour>
  </outline>
</glyph>
<glyph name="uni042A" format="1">
  <advance width="642"/>
  <unicode hex="042A"/>
  <outline>
    <contour>
      <point x="263" y="689" type="line"/>
      <point x="0" y="689" type="line"/>
      <point x="0" y="608" type="line"/>
      <point x="168" y="608" type="line"/>
    </contour>
    <component base="uni042C" xOffset="68"/>
  </outline>
</glyph>
<glyph name="uni042B" format="1">
  <advance width="819"/>
  <unicode hex="042B"/>
  <outline>
    <contour>
      <point x="624" y="689" type="line"/>
      <point x="624" y="0" type="line"/>
      <point x="719" y="0" type="line"/>
      <point x="719" y="689" type="line"/>
    </contour>
    <contour>
      <point x="100" y="0" type="line"/>
      <point x="272" y="0" type="line" smooth="yes"/>
      <point x="428" y="0"/>
      <point x="539" y="61"/>
      <point x="539" y="223" type="curve" smooth="yes"/>
      <point x="539" y="368"/>
      <point x="437" y="436"/>
      <point x="273" y="436" type="curve" smooth="yes"/>
      <point x="179" y="436" type="line"/>
      <point x="179" y="362" type="line"/>
      <point x="274" y="362" type="line" smooth="yes"/>
      <point x="378" y="362"/>
      <point x="438" y="326"/>
      <point x="438" y="221" type="curve" smooth="yes"/>
      <point x="438" y="103"/>
      <point x="371" y="76"/>
      <point x="280" y="76" type="curve" smooth="yes"/>
      <point x="195" y="76" type="line"/>
      <point x="195" y="689" type="line"/>
      <point x="100" y="689" type="line"/>
    </contour>
    <contour>
      <point x="407" y="689" type="move" name="top"/>
    </contour>
  </outline>
</glyph>
<glyph name="uni042C" format="1">
  <advance width="574"/>
  <unicode hex="042C"/>
  <outline>
    <contour>
      <point x="100" y="0" type="line"/>
      <point x="282" y="0" type="line" smooth="yes"/>
      <point x="438" y="0"/>
      <point x="549" y="61"/>
      <point x="549" y="223" type="curve" smooth="yes"/>
      <point x="549" y="368"/>
      <point x="447" y="436"/>
      <point x="286" y="436" type="curve" smooth="yes"/>
      <point x="179" y="436" type="line"/>
      <point x="179" y="362" type="line"/>
      <point x="287" y="362" type="line" smooth="yes"/>
      <point x="388" y="362"/>
      <point x="448" y="326"/>
      <point x="448" y="221" type="curve" smooth="yes"/>
      <point x="448" y="103"/>
      <point x="381" y="76"/>
      <point x="290" y="76" type="curve" smooth="yes"/>
      <point x="195" y="76" type="line"/>
      <point x="195" y="689" type="line"/>
      <point x="100" y="689" type="line"/>
    </contour>
  </outline>
</glyph>
<glyph name="uni042D" format="1">
  <advance width="544"/>
  <unicode hex="042D"/>
  <outline>
    <contour>
      <point x="141" y="701"/>
      <point x="80" y="675"/>
      <point x="25" y="630" type="curve"/>
      <point x="74" y="571" type="line"/>
      <point x="123" y="607"/>
      <point x="159" y="623"/>
      <point x="222" y="623" type="curve" smooth="yes"/>
      <point x="319" y="623"/>
      <point x="387" y="555"/>
      <point x="388" y="368" type="curve"/>
      <point x="388" y="335" type="line"/>
      <point x="388" y="146"/>
      <point x="325" y="68"/>
      <point x="218" y="68" type="curve" smooth="yes"/>
      <point x="152" y="68"/>
      <point x="114" y="91"/>
      <point x="75" y="123" type="curve"/>
      <point x="27" y="62" type="line"/>
      <point x="70" y="22"/>
      <point x="129" y="-12"/>
      <point x="221" y="-12" type="curve" smooth="yes"/>
      <point x="388" y="-12"/>
      <point x="489" y="113"/>
      <point x="489" y="345" type="curve" smooth="yes"/>
      <point x="489" y="599"/>
      <point x="379" y="701"/>
      <point x="225" y="701" type="curve" smooth="yes"/>
    </contour>
    <contour>
      <point x="121" y="394" type="line"/>
      <point x="121" y="316" type="line"/>
      <point x="406" y="316" type="line"/>
      <point x="404" y="394" type="line"/>
    </contour>
    <contour>
      <point x="238" y="689" type="move" name="top"/>
    </contour>
  </outline>
</glyph>
<glyph name="uni042E" format="1">
  <advance width="899"/>
  <unicode hex="042E"/>
  <outline>
    <contour>
      <point x="399" y="701"/>
      <point x="292" y="579"/>
      <point x="282" y="362" type="curve"/>
      <point x="282" y="338" type="line"/>
      <point x="286" y="113"/>
      <point x="395" y="-12"/>
      <point x="563" y="-12" type="curve" smooth="yes"/>
      <point x="733" y="-12"/>
      <point x="844" y="116"/>
      <point x="844" y="344" type="curve" smooth="yes"/>
      <point x="844" y="576"/>
      <point x="733" y="701"/>
      <point x="563" y="701" type="curve" smooth="yes"/>
    </contour>
    <contour>
      <point x="100" y="689" type="line"/>
      <point x="100" y="0" type="line"/>
      <point x="195" y="0" type="line"/>
      <point x="195" y="318" type="line"/>
      <point x="325" y="318" type="line"/>
      <point x="325" y="396" type="line"/>
      <point x="195" y="396" type="line"/>
      <point x="195" y="689" type="line"/>
    </contour>
    <contour>
      <point x="675" y="623"/>
      <point x="743" y="542"/>
      <point x="743" y="344" type="curve" smooth="yes"/>
      <point x="743" y="144"/>
      <point x="673" y="66"/>
      <point x="563" y="66" type="curve" smooth="yes"/>
      <point x="457" y="66"/>
      <point x="383" y="144"/>
      <point x="383" y="338" type="curve" smooth="yes"/>
      <point x="383" y="542"/>
      <point x="454" y="623"/>
      <point x="563" y="623" type="curve" smooth="yes"/>
    </contour>
  </outline>
</glyph>
<glyph name="uni0432" format="1">
  <advance width="564"/>
  <unicode hex="0432"/>
  <outline>
    <contour>
      <point x="210" y="539"/>
      <point x="149" y="531"/>
      <point x="95" y="520" type="curve"/>
      <point x="95" y="0" type="line"/>
      <point x="285" y="0" type="line" smooth="yes"/>
      <point x="412" y="0"/>
      <point x="507" y="46"/>
      <point x="507" y="156" type="curve" smooth="yes"/>
      <point x="507" y="235"/>
      <point x="463" y="277"/>
      <point x="373" y="286" type="curve"/>
      <point x="453" y="306"/>
      <point x="480" y="346"/>
      <point x="480" y="401" type="curve" smooth="yes"/>
      <point x="480" y="490"/>
      <point x="395" y="539"/>
      <point x="268" y="539" type="curve" smooth="yes"/>
    </contour>
    <contour>
      <point x="346" y="468"/>
      <point x="386" y="447"/>
      <point x="386" y="392" type="curve" smooth="yes"/>
      <point x="386" y="332"/>
      <point x="343" y="313"/>
      <point x="281" y="313" type="curve" smooth="yes"/>
      <point x="171" y="313" type="line"/>
      <point x="171" y="245" type="line"/>
      <point x="287" y="245" type="line" smooth="yes"/>
      <point x="357" y="245"/>
      <point x="410" y="230"/>
      <point x="410" y="157" type="curve" smooth="yes"/>
      <point x="410" y="79"/>
      <point x="334" y="72"/>
      <point x="270" y="72" type="curve" smooth="yes"/>
      <point x="187" y="72" type="line"/>
      <point x="187" y="462" type="line"/>
      <point x="214" y="466"/>
      <point x="238" y="468"/>
      <point x="269" y="468" type="curve" smooth="yes"/>
    </contour>
  </outline>
</glyph>
<glyph name="uni0433" format="1">
  <advance width="429"/>
  <unicode hex="0433"/>
  <outline>
    <contour>
      <point x="187" y="451" type="line"/>
      <point x="412" y="451" type="line"/>
      <point x="424" y="527" type="line"/>
      <point x="95" y="527" type="line"/>
      <point x="95" y="0" type="line"/>
      <point x="187" y="0" type="line"/>
    </contour>
    <contour>
      <point x="260" y="527" type="move" name="top"/>
    </contour>
    <contour>
      <point x="197" y="0" type="move" name="bottomright"/>
    </contour>
  </outline>
</glyph>
<glyph name="uni0435" format="1">
  <advance width="550"/>
  <unicode hex="0435"/>
  <outline>
    <component base="e"/>
    <contour>
      <point x="273" y="527" type="move" name="top"/>
    </contour>
  </outline>
</glyph>
<glyph name="uni0438" format="1">
  <advance width="600"/>
  <unicode hex="0438"/>
  <outline>
    <contour>
      <point x="392" y="527" type="line"/>
      <point x="176" y="107" type="line"/>
      <point x="178" y="120"/>
      <point x="186" y="207"/>
      <point x="186" y="289" type="curve" smooth="yes"/>
      <point x="186" y="527" type="line"/>
      <point x="95" y="527" type="line"/>
      <point x="95" y="0" type="line"/>
      <point x="206" y="0" type="line"/>
      <point x="425" y="423" type="line"/>
      <point x="423" y="411"/>
      <point x="414" y="331"/>
      <point x="414" y="238" type="curve" smooth="yes"/>
      <point x="414" y="0" type="line"/>
      <point x="505" y="0" type="line"/>
      <point x="505" y="527" type="line"/>
    </contour>
    <contour>
      <point x="300" y="527" type="move" name="top"/>
    </contour>
  </outline>
</glyph>
<glyph name="uni043B" format="1">
  <advance width="576"/>
  <unicode hex="043B"/>
  <outline>
    <contour>
      <point x="209" y="452" type="line"/>
      <point x="389" y="452" type="line"/>
      <point x="389" y="0" type="line"/>
      <point x="481" y="0" type="line"/>
      <point x="481" y="527" type="line"/>
      <point x="142" y="527" type="line"/>
    </contour>
    <contour>
      <point x="142" y="527" type="line"/>
      <point x="121" y="286" type="line" smooth="yes"/>
      <point x="106" y="112"/>
      <point x="102" y="85"/>
      <point x="37" y="61" type="curve"/>
      <point x="60" y="-12" type="line"/>
      <point x="174" y="23"/>
      <point x="194" y="75"/>
      <point x="211" y="276" type="curve" smooth="yes"/>
      <point x="226" y="452" type="line"/>
    </contour>
  </outline>
</glyph>
<glyph name="uni043D" format="1">
  <advance width="593"/>
  <unicode hex="043D"/>
  <outline>
    <contour>
      <point x="498" y="0" type="line"/>
      <point x="498" y="527" type="line"/>
      <point x="406" y="527" type="line"/>
      <point x="406" y="306" type="line"/>
      <point x="187" y="306" type="line"/>
      <point x="187" y="527" type="line"/>
      <point x="95" y="527" type="line"/>
      <point x="95" y="0" type="line"/>
      <point x="187" y="0" type="line"/>
      <point x="187" y="232" type="line"/>
      <point x="406" y="232" type="line"/>
      <point x="406" y="0" type="line"/>
    </contour>
    <contour>
      <point x="508" y="0" type="move" name="bottomright"/>
    </contour>
  </outline>
</glyph>
<glyph name="uni0444" format="1">
  <advance width="816"/>
  <unicode hex="0444"/>
  <outline>
    <contour>
      <point x="106" y="539"/>
      <point x="62" y="430"/>
      <point x="62" y="264" type="curve" smooth="yes"/>
      <point x="62" y="98"/>
      <point x="127" y="-12"/>
      <point x="235" y="-12" type="curve" smooth="yes"/>
      <point x="293" y="-12"/>
      <point x="344" y="17"/>
      <point x="373" y="69" type="curve"/>
      <point x="373" y="142" type="line"/>
      <point x="345" y="92"/>
      <point x="304" y="61"/>
      <point x="256" y="61" type="curve" smooth="yes"/>
      <point x="197" y="61"/>
      <point x="161" y="127"/>
      <point x="161" y="264" type="curve" smooth="yes"/>
      <point x="161" y="401"/>
      <point x="195" y="466"/>
      <point x="255" y="466" type="curve" smooth="yes"/>
      <point x="304" y="466"/>
      <point x="345" y="437"/>
      <point x="374" y="392" type="curve"/>
      <point x="374" y="467" type="line"/>
      <point x="340" y="519"/>
      <point x="289" y="539"/>
      <point x="236" y="539" type="curve" smooth="yes"/>
    </contour>
    <contour>
      <point x="364" y="465" type="line"/>
      <point x="364" y="422" type="line"/>
      <point x="364" y="111" type="line"/>
      <point x="364" y="70" type="line"/>
      <point x="364" y="-213" type="line"/>
      <point x="452" y="-202" type="line"/>
      <point x="452" y="70" type="line"/>
      <point x="452" y="111" type="line"/>
      <point x="452" y="420" type="line"/>
      <point x="452" y="463" type="line"/>
      <point x="452" y="739" type="line"/>
      <point x="364" y="750" type="line"/>
    </contour>
    <contour>
      <point x="522" y="539"/>
      <point x="476" y="518"/>
      <point x="442" y="465" type="curve"/>
      <point x="443" y="390" type="line"/>
      <point x="470" y="437"/>
      <point x="506" y="466"/>
      <point x="556" y="466" type="curve" smooth="yes"/>
      <point x="621" y="466"/>
      <point x="655" y="401"/>
      <point x="655" y="264" type="curve" smooth="yes"/>
      <point x="655" y="127"/>
      <point x="617" y="61"/>
      <point x="556" y="61" type="curve" smooth="yes"/>
      <point x="504" y="61"/>
      <point x="470" y="92"/>
      <point x="443" y="142" type="curve"/>
      <point x="443" y="69" type="line"/>
      <point x="473" y="16"/>
      <point x="518" y="-12"/>
      <point x="573" y="-12" type="curve" smooth="yes"/>
      <point x="688" y="-12"/>
      <point x="754" y="98"/>
      <point x="754" y="264" type="curve" smooth="yes"/>
      <point x="754" y="430"/>
      <point x="710" y="539"/>
      <point x="575" y="539" type="curve" smooth="yes"/>
    </contour>
  </outline>
</glyph>
<glyph name="uni0448" format="1">
  <advance width="796"/>
  <unicode hex="0448"/>
  <outline>
    <contour>
      <point x="611" y="527" type="line"/>
      <point x="611" y="74" type="line"/>
      <point x="442" y="74" type="line"/>
      <point x="442" y="527" type="line"/>
      <point x="354" y="527" type="line"/>
      <point x="354" y="74" type="line"/>
      <point x="185" y="74" type="line"/>
      <point x="185" y="527" type="line"/>
      <point x="95" y="527" type="line"/>
      <point x="95" y="0" type="line"/>
      <point x="701" y="0" type="line"/>
      <point x="701" y="527" type="line"/>
    </contour>
    <contour>
      <point x="711" y="0" type="move" name="bottomright"/>
    </contour>
  </outline>
</glyph>
<glyph name="uni044B" format="1">
  <advance width="734"/>
  <unicode hex="044B"/>
  <outline>
    <contour>
      <point x="547" y="527" type="line"/>
      <point x="547" y="0" type="line"/>
      <point x="639" y="0" type="line"/>
      <point x="639" y="527" type="line"/>
    </contour>
    <contour>
      <point x="171" y="287" type="line"/>
      <point x="246" y="287" type="line" smooth="yes"/>
      <point x="343" y="287"/>
      <point x="373" y="250"/>
      <point x="373" y="180" type="curve" smooth="yes"/>
      <point x="373" y="98"/>
      <point x="325" y="72"/>
      <point x="256" y="72" type="curve" smooth="yes"/>
      <point x="187" y="72" type="line"/>
      <point x="187" y="527" type="line"/>
      <point x="95" y="527" type="line"/>
      <point x="95" y="0" type="line"/>
      <point x="264" y="0" type="line"/>
      <point x="371" y="0"/>
      <point x="471" y="54"/>
      <point x="471" y="180" type="curve" smooth="yes"/>
      <point x="471" y="287"/>
      <point x="412" y="357"/>
      <point x="247" y="357" type="curve" smooth="yes"/>
      <point x="171" y="357" type="line"/>
    </contour>
    <contour>
      <point x="367" y="527" type="move" name="top"/>
    </contour>
  </outline>
</glyph>
<glyph name="uni044F" format="1">
  <advance width="551"/>
  <unicode hex="044F"/>
  <outline>
    <contour>
      <point x="147" y="527"/>
      <point x="68" y="471"/>
      <point x="68" y="366" type="curve" smooth="yes"/>
      <point x="68" y="295"/>
      <point x="104" y="244"/>
      <point x="177" y="216" type="curve"/>
      <point x="233" y="202" type="line"/>
      <point x="380" y="202" type="line"/>
      <point x="380" y="272" type="line"/>
      <point x="277" y="272" type="line" smooth="yes"/>
      <point x="198" y="272"/>
      <point x="165" y="300"/>
      <point x="165" y="366" type="curve" smooth="yes"/>
      <point x="165" y="429"/>
      <point x="204" y="456"/>
      <point x="279" y="456" type="curve" smooth="yes"/>
      <point x="364" y="456" type="line"/>
      <point x="364" y="0" type="line"/>
      <point x="456" y="0" type="line"/>
      <point x="456" y="527" type="line"/>
      <point x="281" y="527" type="line"/>
    </contour>
    <contour>
      <point x="35" y="0" type="line"/>
      <point x="138" y="0" type="line"/>
      <point x="257" y="216" type="line"/>
      <point x="169" y="237" type="line"/>
    </contour>
  </outline>
</glyph>
<glyph name="uni0452" format="1">
  <advance width="597"/>
  <unicode hex="0452"/>
  <outline>
    <contour>
      <point x="410" y="127" type="line"/>
      <point x="410" y="26" type="line" smooth="yes"/>
      <point x="410" y="-87"/>
      <point x="377" y="-113"/>
      <point x="308" y="-145" type="curve"/>
      <point x="335" y="-212" type="line"/>
      <point x="447" y="-162"/>
      <point x="502" y="-117"/>
      <point x="502" y="32" type="curve" smooth="yes"/>
      <point x="502" y="127" type="line"/>
    </contour>
    <contour>
      <point x="25" y="676" type="line"/>
      <point x="25" y="606" type="line"/>
      <point x="104" y="606" type="line"/>
      <point x="349" y="606" type="line"/>
      <point x="349" y="676" type="line"/>
    </contour>
    <contour>
      <point x="101" y="738" type="line"/>
      <point x="101" y="0" type="line"/>
      <point x="193" y="0" type="line"/>
      <point x="193" y="748" type="line"/>
    </contour>
    <contour>
      <point x="273" y="539"/>
      <point x="215" y="495"/>
      <point x="177" y="430" type="curve"/>
      <point x="193" y="375" type="line"/>
      <point x="228" y="430"/>
      <point x="269" y="467"/>
      <point x="326" y="467" type="curve" smooth="yes"/>
      <point x="376" y="467"/>
      <point x="410" y="444"/>
      <point x="410" y="365" type="curve" smooth="yes"/>
      <point x="410" y="100" type="line"/>
      <point x="502" y="100" type="line"/>
      <point x="502" y="378" type="line" smooth="yes"/>
      <point x="502" y="477"/>
      <point x="445" y="539"/>
      <point x="349" y="539" type="curve" smooth="yes"/>
    </contour>
  </outline>
</glyph>
<glyph name="uni0454" format="1">
  <advance width="482"/>
  <unicode hex="0454"/>
  <outline>
    <contour>
      <point x="147" y="539"/>
      <point x="57" y="430"/>
      <point x="57" y="261" type="curve" smooth="yes"/>
      <point x="57" y="89"/>
      <point x="145" y="-12"/>
      <point x="292" y="-12" type="curve" smooth="yes"/>
      <point x="348" y="-12"/>
      <point x="403" y="6"/>
      <point x="452" y="46" type="curve"/>
      <point x="409" y="106" type="line"/>
      <point x="366" y="74"/>
      <point x="332" y="63"/>
      <point x="294" y="63" type="curve" smooth="yes"/>
      <point x="206" y="63"/>
      <point x="153" y="122"/>
      <point x="153" y="259" type="curve"/>
      <point x="153" y="283" type="line"/>
      <point x="153" y="404"/>
      <point x="210" y="466"/>
      <point x="294" y="466" type="curve" smooth="yes"/>
      <point x="332" y="466"/>
      <point x="365" y="457"/>
      <point x="408" y="425" type="curve"/>
      <point x="452" y="482" type="line"/>
      <point x="403" y="523"/>
      <point x="349" y="539"/>
      <point x="289" y="539" type="curve" smooth="yes"/>
    </contour>
    <contour>
      <point x="139" y="305" type="line"/>
      <point x="138" y="235" type="line"/>
      <point x="372" y="235" type="line"/>
      <point x="372" y="305" type="line"/>
    </contour>
  </outline>
</glyph>
<glyph name="uni0456" format="1">
  <advance width="282"/>
  <unicode hex="0456"/>
  <outline>
    <component base="i"/>
    <contour>
      <point x="140" y="527" type="move" name="top"/>
    </contour>
  </outline>
</glyph>
<glyph name="uni045A" format="1">
  <advance width="814"/>
  <unicode hex="045A"/>
  <outline>
    <contour>
      <point x="403" y="527" type="line"/>
      <point x="403" y="0" type="line"/>
      <point x="572" y="0" type="line"/>
      <point x="679" y="0"/>
      <point x="779" y="52"/>
      <point x="779" y="168" type="curve" smooth="yes"/>
      <point x="779" y="265"/>
      <point x="720" y="333"/>
      <point x="555" y="333" type="curve" smooth="yes"/>
      <point x="479" y="333" type="line"/>
      <point x="479" y="263" type="line"/>
      <point x="556" y="263" type="line" smooth="yes"/>
      <point x="653" y="263"/>
      <point x="683" y="228"/>
      <point x="683" y="168" type="curve" smooth="yes"/>
      <point x="683" y="97"/>
      <point x="635" y="72"/>
      <point x="566" y="72" type="curve" smooth="yes"/>
      <point x="495" y="72" type="line"/>
      <point x="495" y="527" type="line"/>
    </contour>
    <contour>
      <point x="95" y="527" type="line"/>
      <point x="95" y="0" type="line"/>
      <point x="187" y="0" type="line"/>
      <point x="187" y="263" type="line"/>
      <point x="416" y="263" type="line"/>
      <point x="416" y="333" type="line"/>
      <point x="187" y="333" type="line"/>
      <point x="187" y="527" type="line"/>
    </contour>
  </outline>
</glyph>
<glyph name="uni045D" format="1">
  <advance width="600"/>
  <unicode hex="045D"/>
  <outline>
    <component base="uni0438"/>
    <component base="grave" xOffset="160"/>
    <contour>
      <point x="300" y="527" type="move" name="top"/>
    </contour>
  </outline>
</glyph>
<glyph name="uni0462" format="1">
  <advance width="690"/>
  <unicode hex="0462"/>
  <outline>
    <contour>
      <point x="211" y="0" type="line"/>
      <point x="393" y="0" type="line" smooth="yes"/>
      <point x="549" y="0"/>
      <point x="660" y="61"/>
      <point x="660" y="220" type="curve" smooth="yes"/>
      <point x="660" y="362"/>
      <point x="558" y="430"/>
      <point x="397" y="430" type="curve" smooth="yes"/>
      <point x="290" y="430" type="line"/>
      <point x="290" y="356" type="line"/>
      <point x="398" y="356" type="line" smooth="yes"/>
      <point x="499" y="356"/>
      <point x="559" y="320"/>
      <point x="559" y="218" type="curve" smooth="yes"/>
      <point x="559" y="103"/>
      <point x="492" y="76"/>
      <point x="401" y="76" type="curve" smooth="yes"/>
      <point x="306" y="76" type="line"/>
      <point x="306" y="679" type="line"/>
      <point x="211" y="679" type="line"/>
    </contour>
    <contour>
      <point x="15" y="689" type="line"/>
      <point x="15" y="608" type="line"/>
      <point x="498" y="608" type="line"/>
      <point x="508" y="689" type="line"/>
    </contour>
  </outline>
</glyph>
<glyph name="uni0474" format="1">
  <advance width="557"/>
  <unicode hex="0474"/>
  <outline>
    <contour>
      <point x="450" y="664"/>
      <point x="438" y="635"/>
      <point x="420" y="575" type="curve"/>
      <point x="281" y="101" type="line"/>
      <point x="108" y="689" type="line"/>
      <point x="6" y="689" type="line"/>
      <point x="228" y="0" type="line"/>
      <point x="330" y="0" type="line"/>
      <point x="505" y="547" type="line" smooth="yes"/>
      <point x="526" y="612"/>
      <point x="541" y="647"/>
      <point x="567" y="684" type="curve"/>
      <point x="473" y="701" type="line"/>
    </contour>
  </outline>
</glyph>
<glyph name="uni0475" format="1">
  <advance width="492"/>
  <unicode hex="0475"/>
  <outline>
    <contour>
      <point x="383" y="511"/>
      <point x="371" y="476"/>
      <point x="353" y="417" type="curve"/>
      <point x="248" y="78" type="line"/>
      <point x="108" y="527" type="line"/>
      <point x="10" y="527" type="line"/>
      <point x="192" y="0" type="line"/>
      <point x="299" y="0" type="line"/>
      <point x="434" y="390" type="line"/>
      <point x="454" y="450"/>
      <point x="469" y="486"/>
      <point x="493" y="522" type="curve"/>
      <point x="403" y="534" type="line"/>
    </contour>
  </outline>
</glyph>
<glyph name="uni0490" format="1">
  <advance width="508"/>
  <unicode hex="0490"/>
  <outline>
    <contour>
      <point x="498" y="689" type="line"/>
      <point x="498" y="816" type="line"/>
      <point x="406" y="816" type="line"/>
      <point x="406" y="679" type="line"/>
    </contour>
    <component base="uni0413"/>
  </outline>
</glyph>
<glyph name="uni0492" format="1">
  <advance width="516"/>
  <unicode hex="0492"/>
  <outline>
    <contour>
      <point x="10" y="413" type="line"/>
      <point x="10" y="343" type="line"/>
      <point x="108" y="343" type="line"/>
      <point x="359" y="343" type="line"/>
      <point x="359" y="413" type="line"/>
    </contour>
    <component base="uni0413" xOffset="8"/>
  </outline>
</glyph>
<glyph name="uni0493" format="1">
  <advance width="441"/>
  <unicode hex="0493"/>
  <outline>
    <contour>
      <point x="107" y="303" type="line"/>
      <point x="25" y="303" type="line"/>
      <point x="25" y="233" type="line"/>
      <point x="313" y="233" type="line"/>
      <point x="313" y="303" type="line"/>
    </contour>
    <component base="uni0433" xOffset="12"/>
  </outline>
</glyph>
<glyph name="uni049C" format="1">
  <advance width="589"/>
  <unicode hex="049C"/>
  <outline>
    <contour>
      <point x="460" y="689" type="line"/>
      <point x="309" y="400" type="line"/>
      <point x="193" y="400" type="line"/>
      <point x="193" y="689" type="line"/>
      <point x="100" y="689" type="line"/>
      <point x="100" y="0" type="line"/>
      <point x="193" y="0" type="line"/>
      <point x="193" y="324" type="line"/>
      <point x="308" y="324" type="line"/>
      <point x="471" y="0" type="line"/>
      <point x="579" y="0" type="line"/>
      <point x="382" y="366" type="line"/>
      <point x="560" y="689" type="line"/>
    </contour>
    <contour>
      <point x="234" y="570" type="line"/>
      <point x="234" y="150" type="line"/>
      <point x="288" y="150" type="line"/>
      <point x="288" y="570" type="line"/>
    </contour>
  </outline>
</glyph>
<glyph name="uni04A1" format="1">
  <advance width="572"/>
  <unicode hex="04A1"/>
  <outline>
    <contour>
      <point x="240" y="527" type="line"/>
      <point x="0" y="527" type="line"/>
      <point x="0" y="457" type="line"/>
      <point x="148" y="457" type="line"/>
    </contour>
    <component base="uni043A" xOffset="53"/>
  </outline>
</glyph>
<glyph name="uni04AF" format="1">
  <advance width="492"/>
  <unicode hex="04AF"/>
  <outline>
    <contour>
      <point x="387" y="527" type="line"/>
      <point x="248" y="101" type="line"/>
      <point x="108" y="527" type="line"/>
      <point x="10" y="527" type="line"/>
      <point x="201" y="15" type="line"/>
      <point x="201" y="-213" type="line"/>
      <point x="291" y="-202" type="line"/>
      <point x="291" y="15" type="line"/>
      <point x="482" y="527" type="line"/>
    </contour>
  </outline>
</glyph>
<glyph name="uni04B0" format="1">
  <advance width="550"/>
  <unicode hex="04B0"/>
  <outline>
    <contour>
      <point x="323" y="306" type="line"/>
      <point x="107" y="306" type="line"/>
      <point x="107" y="236" type="line"/>
      <point x="227" y="236" type="line"/>
      <point x="443" y="236" type="line"/>
      <point x="443" y="306" type="line"/>
    </contour>
    <component base="Y"/>
  </outline>
</glyph>
<glyph name="uni04B8" format="1">
  <advance width="617"/>
  <unicode hex="04B8"/>
  <outline>
    <contour>
      <point x="251" y="540" type="line"/>
      <point x="251" y="120" type="line"/>
      <point x="310" y="120" type="line"/>
      <point x="310" y="540" type="line"/>
    </contour>
    <component base="uni0427"/>
  </outline>
</glyph>
<glyph name="uni04B9" format="1">
  <advance width="552"/>
  <unicode hex="04B9"/>
  <outline>
    <contour>
      <point x="225" y="390" type="line"/>
      <point x="225" y="90" type="line"/>
      <point x="280" y="90" type="line"/>
      <point x="280" y="390" type="line"/>
    </contour>
    <component base="uni0447"/>
  </outline>
</glyph>
<glyph name="uni04BA" format="1">
  <advance width="606"/>
  <unicode hex="04BA"/>
  <outline>
    <contour>
      <point x="282" y="452"/>
      <point x="226" y="421"/>
      <point x="185" y="372" type="curve"/>
      <point x="185" y="284" type="line"/>
      <point x="224" y="338"/>
      <point x="270" y="371"/>
      <point x="345" y="371" type="curve" smooth="yes"/>
      <point x="436" y="371"/>
      <point x="476" y="323"/>
      <point x="476" y="234" type="curve" smooth="yes"/>
      <point x="476" y="0" type="line"/>
      <point x="571" y="0" type="line"/>
      <point x="571" y="235" type="line" smooth="yes"/>
      <point x="571" y="371"/>
      <point x="497" y="452"/>
      <point x="367" y="452" type="curve" smooth="yes"/>
    </contour>
    <contour>
      <point x="100" y="689" type="line"/>
      <point x="100" y="0" type="line"/>
      <point x="195" y="0" type="line"/>
      <point x="195" y="689" type="line"/>
    </contour>
    <contour>
      <point x="581" y="0" type="move" name="bottomright"/>
    </contour>
  </outline>
</glyph>
<glyph name="uni04BB" format="1">
  <advance width="581"/>
  <unicode hex="04BB"/>
  <outline>
    <contour>
      <point x="187" y="748" type="line"/>
      <point x="95" y="738" type="line"/>
      <point x="95" y="0" type="line"/>
      <point x="187" y="0" type="line"/>
    </contour>
    <contour>
      <point x="267" y="479"/>
      <point x="207" y="435"/>
      <point x="171" y="372" type="curve"/>
      <point x="187" y="314" type="line"/>
      <point x="222" y="370"/>
      <point x="262" y="407"/>
      <point x="321" y="407" type="curve" smooth="yes"/>
      <point x="372" y="407"/>
      <point x="404" y="384"/>
      <point x="404" y="305" type="curve" smooth="yes"/>
      <point x="404" y="0" type="line"/>
      <point x="496" y="0" type="line"/>
      <point x="496" y="318" type="line" smooth="yes"/>
      <point x="496" y="418"/>
      <point x="440" y="479"/>
      <point x="343" y="479" type="curve" smooth="yes"/>
    </contour>
    <contour>
      <point x="502" y="0" type="move" name="bottomright"/>
    </contour>
  </outline>
</glyph>
<glyph name="uni04CC" format="1">
  <advance width="552"/>
  <unicode hex="04CC"/>
  <outline>
    <contour>
      <point x="374" y="313" type="line"/>
      <point x="348" y="271"/>
      <point x="281" y="244"/>
      <point x="231" y="244" type="curve" smooth="yes"/>
      <point x="174" y="244"/>
      <point x="147" y="271"/>
      <point x="147" y="339" type="curve" smooth="yes"/>
      <point x="147" y="527" type="line"/>
      <point x="55" y="527" type="line"/>
      <point x="55" y="328" type="line" smooth="yes"/>
      <point x="55" y="230"/>
      <point x="105" y="172"/>
      <point x="206" y="172" type="curve" smooth="yes"/>
      <point x="273" y="172"/>
      <point x="338" y="199"/>
      <point x="375" y="240" type="curve"/>
    </contour>
    <contour>
      <point x="365" y="0" type="line"/>
      <point x="457" y="0" type="line"/>
      <point x="457" y="527" type="line"/>
      <point x="365" y="527" type="line"/>
    </contour>
    <component base="descStraight-cy" xOffset="441" xScale="-1"/>
    <contour>
      <point x="256" y="527" type="move" name="top"/>
    </contour>
    <contour>
      <point x="467" y="0" type="move" name="bottomright"/>
    </contour>
    <contour>
      <point x="355" y="0" type="move" name="bottomleft"/>
    </contour>
  </outline>
</glyph>
<glyph name="uni04D8" format="1">
  <advance width="649"/>
  <unicode hex="04D8"/>
  <outline>
    <contour>
      <point x="496" y="335" type="line"/>
      <point x="492" y="140"/>
      <point x="423" y="64"/>
      <point x="314" y="64" type="curve" smooth="yes"/>
      <point x="210" y="64"/>
      <point x="142" y="134"/>
      <point x="139" y="310" type="curve"/>
      <point x="511" y="310" type="line"/>
      <point x="511" y="386" type="line"/>
      <point x="48" y="386" type="line"/>
      <point x="46" y="368"/>
      <point x="45" y="348"/>
      <point x="45" y="335" type="curve" smooth="yes"/>
      <point x="45" y="111"/>
      <point x="141" y="-12"/>
      <point x="318" y="-12" type="curve" smooth="yes"/>
      <point x="476" y="-12"/>
      <point x="594" y="103"/>
      <point x="594" y="356" type="curve" smooth="yes"/>
      <point x="594" y="590"/>
      <point x="486" y="701"/>
      <point x="315" y="701" type="curve" smooth="yes"/>
      <point x="222" y="701"/>
      <point x="147" y="672"/>
      <point x="83" y="616" type="curve"/>
      <point x="132" y="558" type="line"/>
      <point x="181" y="595"/>
      <point x="239" y="623"/>
      <point x="311" y="623" type="curve" smooth="yes"/>
      <point x="427" y="623"/>
      <point x="495" y="551"/>
      <point x="495" y="361" type="curve"/>
    </contour>
    <contour>
      <point x="315" y="689" type="move" name="top"/>
    </contour>
  </outline>
</glyph>
<glyph name="uni04E9" format="1">
  <advance width="584"/>
  <unicode hex="04E9"/>
  <outline>
    <contour>
      <point x="143" y="539"/>
      <point x="57" y="426"/>
      <point x="57" y="263" type="curve" smooth="yes"/>
      <point x="57" y="96"/>
      <point x="142" y="-12"/>
      <point x="292" y="-12" type="curve" smooth="yes"/>
      <point x="441" y="-12"/>
      <point x="527" y="101"/>
      <point x="527" y="264" type="curve" smooth="yes"/>
      <point x="527" y="431"/>
      <point x="443" y="539"/>
      <point x="293" y="539" type="curve" smooth="yes"/>
    </contour>
    <contour>
      <point x="381" y="465"/>
      <point x="429" y="401"/>
      <point x="429" y="264" type="curve" smooth="yes"/>
      <point x="429" y="126"/>
      <point x="381" y="62"/>
      <point x="292" y="62" type="curve" smooth="yes"/>
      <point x="203" y="62"/>
      <point x="155" y="126"/>
      <point x="155" y="263" type="curve" smooth="yes"/>
      <point x="155" y="401"/>
      <point x="204" y="465"/>
      <point x="293" y="465" type="curve" smooth="yes"/>
    </contour>
    <contour>
      <point x="141" y="303" type="line"/>
      <point x="141" y="233" type="line"/>
      <point x="442" y="233" type="line"/>
      <point x="443" y="303" type="line"/>
    </contour>
    <contour>
      <point x="291" y="527" type="move" name="top"/>
    </contour>
  </outline>
</glyph>
<glyph name="uni1DC7" format="1">
  <advance width="411"/>
  <unicode hex="1DC7"/>
  <outline>
    <contour>
      <point x="232" y="685" type="line"/>
      <point x="179" y="746" type="line"/>
      <point x="30" y="635" type="line"/>
      <point x="66" y="589" type="line"/>
    </contour>
    <contour>
      <point x="381" y="677" type="line"/>
      <point x="381" y="746" type="line"/>
      <point x="179" y="746" type="line"/>
      <point x="118" y="677" type="line"/>
    </contour>
  </outline>
</glyph>
<glyph name="emdash" format="1">
  <advance width="790"/>
  <unicode hex="2014"/>
  <outline>
    <contour>
      <point x="758" y="274" type="line"/>
      <point x="758" y="352" type="line"/>
      <point x="32" y="352" type="line"/>
      <point x="32" y="274" type="line"/>
    </contour>
  </outline>
</glyph>
<glyph name="daggerdbl" format="1">
  <advance width="510"/>
  <unicode hex="2021"/>
  <outline>
    <contour>
      <point x="42" y="236" type="line"/>
      <point x="42" y="159" type="line"/>
      <point x="468" y="159" type="line"/>
      <point x="468" y="236" type="line"/>
    </contour>
    <component base="dagger"/>
  </outline>
</glyph>
<glyph name="fraction" format="1">
  <advance width="132"/>
  <unicode hex="2044"/>
  <outline>
    <contour>
      <point x="-167" y="-49" type="line"/>
      <point x="-107" y="-78" type="line"/>
      <point x="299" y="721" type="line"/>
      <point x="240" y="750" type="line"/>
    </contour>
  </outline>
</glyph>
<glyph name="uni2116" format="1">
  <advance width="1138"/>
  <unicode hex="2116"/>
  <outline>
    <contour>
      <point x="752" y="701"/>
      <point x="676" y="610"/>
      <point x="676" y="480" type="curve" smooth="yes"/>
      <point x="676" y="346"/>
      <point x="751" y="258"/>
      <point x="872" y="258" type="curve" smooth="yes"/>
      <point x="993" y="258"/>
      <point x="1068" y="349"/>
      <point x="1068" y="480" type="curve" smooth="yes"/>
      <point x="1068" y="614"/>
      <point x="994" y="701"/>
      <point x="872" y="701" type="curve" smooth="yes"/>
    </contour>
    <contour>
      <point x="939" y="633"/>
      <point x="978" y="585"/>
      <point x="978" y="480" type="curve" smooth="yes"/>
      <point x="978" y="374"/>
      <point x="939" y="326"/>
      <point x="872" y="326" type="curve" smooth="yes"/>
      <point x="806" y="326"/>
      <point x="766" y="374"/>
      <point x="766" y="480" type="curve" smooth="yes"/>
      <point x="766" y="585"/>
      <point x="806" y="633"/>
      <point x="872" y="633" type="curve" smooth="yes"/>
    </contour>
    <component base="N"/>
    <component base="minus" xOffset="622" yOffset="-294"/>
  </outline>
</glyph>
<glyph name="arrowupdown" format="1">
  <advance width="900"/>
  <unicode hex="2195"/>
  <outline>
    <contour>
      <point x="137" y="587" type="line"/>
      <point x="192" y="526" type="line"/>
      <point x="343" y="665" type="line" smooth="yes"/>
      <point x="368" y="687"/>
      <point x="388" y="707"/>
      <point x="405" y="739" type="curve"/>
      <point x="405" y="-61" type="line"/>
      <point x="388" y="-29"/>
      <point x="368" y="-9"/>
      <point x="343" y="13" type="curve" smooth="yes"/>
      <point x="192" y="152" type="line"/>
      <point x="137" y="91" type="line"/>
      <point x="450" y="-190" type="line"/>
      <point x="763" y="91" type="line"/>
      <point x="708" y="152" type="line"/>
      <point x="557" y="13" type="line" smooth="yes"/>
      <point x="532" y="-9"/>
      <point x="512" y="-29"/>
      <point x="495" y="-61" type="curve"/>
      <point x="495" y="739" type="line"/>
      <point x="512" y="707"/>
      <point x="532" y="687"/>
      <point x="557" y="665" type="curve" smooth="yes"/>
      <point x="708" y="526" type="line"/>
      <point x="763" y="587" type="line"/>
      <point x="450" y="868" type="line"/>
    </contour>
  </outline>
</glyph>
<glyph name="arrowleftwhite" format="1">
  <advance width="960"/>
  <unicode hex="21E6"/>
  <outline>
    <contour>
      <point x="920" y="387" type="line"/>
      <point x="920" y="417"/>
      <point x="900" y="437"/>
      <point x="870" y="437" type="curve" smooth="yes"/>
      <point x="338" y="437" type="line"/>
      <point x="338" y="613" type="line"/>
      <point x="40" y="313" type="line"/>
      <point x="338" y="13" type="line"/>
      <point x="338" y="189" type="line"/>
      <point x="870" y="189" type="line" smooth="yes"/>
      <point x="900" y="189"/>
      <point x="920" y="209"/>
      <point x="920" y="239" type="curve" smooth="yes"/>
    </contour>
    <contour>
      <point x="876" y="233" type="line"/>
      <point x="293" y="233" type="line"/>
      <point x="293" y="122" type="line"/>
      <point x="104" y="313" type="line"/>
      <point x="293" y="504" type="line"/>
      <point x="293" y="393" type="line"/>
      <point x="876" y="393" type="line"/>
    </contour>
  </outline>
</glyph>
<glyph name="partialdiff" format="1">
  <advance width="510"/>
  <unicode hex="2202"/>
  <outline>
    <contour>
      <point x="103" y="634" type="line"/>
      <point x="270" y="585"/>
      <point x="362" y="484"/>
      <point x="365" y="334" type="curve"/>
      <point x="366" y="277" type="line"/>
      <point x="371" y="128"/>
      <point x="325" y="61"/>
      <point x="243" y="61" type="curve" smooth="yes"/>
      <point x="171" y="61"/>
      <point x="123" y="115"/>
      <point x="123" y="215" type="curve" smooth="yes"/>
      <point x="123" y="309"/>
      <point x="173" y="355"/>
      <point x="234" y="355" type="curve" smooth="yes"/>
      <point x="294" y="355"/>
      <point x="339" y="320"/>
      <point x="367" y="261" type="curve"/>
      <point x="372" y="337" type="line"/>
      <point x="342" y="387"/>
      <point x="289" y="427"/>
      <point x="220" y="427" type="curve" smooth="yes"/>
      <point x="115" y="427"/>
      <point x="30" y="343"/>
      <point x="30" y="211" type="curve" smooth="yes"/>
      <point x="30" y="66"/>
      <point x="128" y="-12"/>
      <point x="242" y="-12" type="curve" smooth="yes"/>
      <point x="377" y="-12"/>
      <point x="460" y="100"/>
      <point x="460" y="261" type="curve" smooth="yes"/>
      <point x="460" y="516"/>
      <point x="355" y="635"/>
      <point x="124" y="701" type="curve"/>
    </contour>
  </outline>
</glyph>
<glyph name="uni2C73" format="1">
  <advance width="734"/>
  <unicode hex="2C73"/>
  <outline>
    <contour>
      <point x="265" y="0" type="line"/>
      <point x="360" y="444" type="line"/>
      <point x="452" y="0" type="line"/>
      <point x="577" y="0" type="line"/>
      <point x="675" y="456" type="line" smooth="yes"/>
      <point x="682" y="490"/>
      <point x="693" y="500"/>
      <point x="716" y="500" type="curve" smooth="yes"/>
      <point x="729" y="500"/>
      <point x="740" y="498"/>
      <point x="750" y="494" type="curve"/>
      <point x="777" y="556" type="line"/>
      <point x="754" y="567"/>
      <point x="731" y="574"/>
      <point x="704" y="574" type="curve" smooth="yes"/>
      <point x="642" y="574"/>
      <point x="607" y="544"/>
      <point x="591" y="464" type="curve" smooth="yes"/>
      <point x="513" y="64" type="line"/>
      <point x="414" y="527" type="line"/>
      <point x="311" y="527" type="line"/>
      <point x="207" y="64" type="line"/>
      <point x="112" y="527" type="line"/>
      <point x="20" y="527" type="line"/>
      <point x="143" y="0" type="line"/>
    </contour>
  </outline>
</glyph>
<glyph name="uniA78B" format="1">
  <advance width="225"/>
  <unicode hex="A78B"/>
  <outline>
    <contour>
      <point x="150" y="347" type="line"/>
      <point x="165" y="689" type="line"/>
      <point x="60" y="689" type="line"/>
      <point x="74" y="347" type="line"/>
    </contour>
  </outline>
</glyph>
<glyph name="fi" format="1">
  <advance width="585"/>
  <unicode hex="FB01"/>
  <outline>
    <contour>
      <point x="158" y="750"/>
      <point x="104" y="685"/>
      <point x="104" y="596" type="curve" smooth="yes"/>
      <point x="104" y="527" type="line"/>
      <point x="20" y="527" type="line"/>
      <point x="20" y="456" type="line"/>
      <point x="104" y="456" type="line"/>
      <point x="104" y="0" type="line"/>
      <point x="196" y="0" type="line"/>
      <point x="196" y="456" type="line"/>
      <point x="398" y="456" type="line"/>
      <point x="398" y="0" type="line"/>
      <point x="490" y="0" type="line"/>
      <point x="490" y="527" type="line"/>
      <point x="196" y="527" type="line"/>
      <point x="196" y="597" type="line" smooth="yes"/>
      <point x="196" y="647"/>
      <point x="215" y="675"/>
      <point x="289" y="675" type="curve" smooth="yes"/>
      <point x="330" y="675"/>
      <point x="367" y="666"/>
      <point x="400" y="650" type="curve"/>
      <point x="432" y="714" type="line"/>
      <point x="389" y="736"/>
      <point x="345" y="750"/>
      <point x="286" y="750" type="curve" smooth="yes"/>
    </contour>
  </outline>
</glyph>
<glyph name="fl" format="1">
  <advance width="602"/>
  <unicode hex="FB02"/>
  <outline>
    <contour>
      <point x="161" y="750"/>
      <point x="104" y="687"/>
      <point x="104" y="599" type="curve" smooth="yes"/>
      <point x="104" y="0" type="line"/>
      <point x="196" y="0" type="line"/>
      <point x="196" y="600" type="line" smooth="yes"/>
      <point x="196" y="651"/>
      <point x="217" y="676"/>
      <point x="284" y="676" type="curve" smooth="yes"/>
      <point x="331" y="676"/>
      <point x="363" y="670"/>
      <point x="406" y="657" type="curve"/>
      <point x="427" y="721" type="line"/>
      <point x="373" y="740"/>
      <point x="336" y="750"/>
      <point x="278" y="750" type="curve" smooth="yes"/>
    </contour>
    <contour>
      <point x="20" y="527" type="line"/>
      <point x="20" y="456" type="line"/>
      <point x="314" y="456" type="line"/>
      <point x="324" y="527" type="line"/>
    </contour>
    <contour>
      <point x="399" y="731" type="line"/>
      <point x="399" y="104" type="line" smooth="yes"/>
      <point x="399" y="28"/>
      <point x="437" y="-12"/>
      <point x="504" y="-12" type="curve" smooth="yes"/>
      <point x="531" y="-12"/>
      <point x="557" y="-6"/>
      <point x="582" y="6" type="curve"/>
      <point x="558" y="70" type="line"/>
      <point x="548" y="66"/>
      <point x="537" y="64"/>
      <point x="524" y="64" type="curve" smooth="yes"/>
      <point x="500" y="64"/>
      <point x="491" y="78"/>
      <point x="491" y="106" type="curve" smooth="yes"/>
      <point x="491" y="742" type="line"/>
    </contour>
  </outline>
</glyph>
<glyph name="Euro.tosf" format="1">
  <advance width="560"/>
  <outline>
    <contour>
      <point x="253" y="679"/>
      <point x="154" y="588"/>
      <point x="127" y="422" type="curve"/>
      <point x="127" y="252" type="line"/>
      <point x="148" y="80"/>
      <point x="235" y="-12"/>
      <point x="377" y="-12" type="curve" smooth="yes"/>
      <point x="438" y="-12"/>
      <point x="482" y="4"/>
      <point x="527" y="26" type="curve"/>
      <point x="527" y="106" type="line"/>
      <point x="488" y="85"/>
      <point x="447" y="65"/>
      <point x="391" y="65" type="curve" smooth="yes"/>
      <point x="287" y="65"/>
      <point x="238" y="121"/>
      <point x="225" y="256" type="curve"/>
      <point x="225" y="414" type="line"/>
      <point x="246" y="547"/>
      <point x="303" y="603"/>
      <point x="385" y="603" type="curve" smooth="yes"/>
      <point x="439" y="603"/>
      <point x="475" y="589"/>
      <point x="523" y="560" type="curve"/>
      <point x="559" y="623" type="line"/>
      <point x="504" y="660"/>
      <point x="448" y="679"/>
      <point x="381" y="679" type="curve" smooth="yes"/>
    </contour>
    <contour>
      <point x="57" y="292" type="line"/>
      <point x="42" y="231" type="line"/>
      <point x="431" y="231" type="line"/>
      <point x="445" y="292" type="line"/>
    </contour>
    <contour>
      <point x="57" y="444" type="line"/>
      <point x="42" y="382" type="line"/>
      <point x="464" y="382" type="line"/>
      <point x="479" y="444" type="line"/>
    </contour>
  </outline>
</glyph>
<glyph name="TseHelper-cy" format="1">
  <advance width="665"/>
  <outline>
    <contour>
      <point x="565" y="689" type="line"/>
      <point x="470" y="689" type="line"/>
      <point x="470" y="78" type="line"/>
      <point x="195" y="78" type="line"/>
      <point x="195" y="689" type="line"/>
      <point x="100" y="689" type="line"/>
      <point x="100" y="0" type="line"/>
      <point x="565" y="0" type="line"/>
    </contour>
    <contour>
      <point x="327" y="0" type="move" name="bottom"/>
    </contour>
    <contour>
      <point x="575" y="0" type="move" name="bottomright"/>
    </contour>
  </outline>
</glyph>
<glyph name="ae.sc" format="1">
  <advance width="720"/>
  <outline>
    <contour>
      <point x="225" y="564" type="line"/>
      <point x="-12" y="0" type="line"/>
      <point x="84" y="0" type="line"/>
      <point x="278" y="492" type="line"/>
      <point x="394" y="0" type="line"/>
      <point x="666" y="0" type="line"/>
      <point x="666" y="71" type="line"/>
      <point x="465" y="71" type="line"/>
      <point x="365" y="493" type="line"/>
      <point x="621" y="493" type="line"/>
      <point x="631" y="564" type="line"/>
    </contour>
    <contour>
      <point x="149" y="209" type="line"/>
      <point x="123" y="137" type="line"/>
      <point x="375" y="137" type="line"/>
      <point x="359" y="209" type="line"/>
    </contour>
    <contour>
      <point x="391" y="322" type="line"/>
      <point x="408" y="251" type="line"/>
      <point x="624" y="251" type="line"/>
      <point x="624" y="322" type="line"/>
    </contour>
    <contour>
      <point x="403" y="564" type="move" name="top"/>
    </contour>
  </outline>
</glyph>
<glyph name="b.sc" format="1">
  <advance width="555"/>
  <outline>
    <contour>
      <point x="100" y="565" type="line"/>
      <point x="100" y="0" type="line"/>
      <point x="270" y="0" type="line" smooth="yes"/>
      <point x="410" y="0"/>
      <point x="510" y="40"/>
      <point x="510" y="162" type="curve" smooth="yes"/>
      <point x="510" y="255"/>
      <point x="439" y="287"/>
      <point x="374" y="299" type="curve"/>
      <point x="430" y="311"/>
      <point x="484" y="352"/>
      <point x="484" y="421" type="curve" smooth="yes"/>
      <point x="484" y="522"/>
      <point x="395" y="565"/>
      <point x="246" y="565" type="curve" smooth="yes"/>
    </contour>
    <contour>
      <point x="340" y="495"/>
      <point x="390" y="478"/>
      <point x="390" y="414" type="curve" smooth="yes"/>
      <point x="390" y="358"/>
      <point x="341" y="329"/>
      <point x="276" y="329" type="curve" smooth="yes"/>
      <point x="179" y="329" type="line"/>
      <point x="179" y="262" type="line"/>
      <point x="284" y="262" type="line" smooth="yes"/>
      <point x="354" y="262"/>
      <point x="413" y="238"/>
      <point x="413" y="164" type="curve" smooth="yes"/>
      <point x="413" y="87"/>
      <point x="353" y="71"/>
      <point x="270" y="71" type="curve" smooth="yes"/>
      <point x="192" y="71" type="line"/>
      <point x="192" y="495" type="line"/>
      <point x="255" y="495" type="line" smooth="yes"/>
    </contour>
  </outline>
</glyph>
<glyph name="breve-cy" format="1">
  <advance width="363"/>
  <outline>
    <contour>
      <point x="261" y="643"/>
      <point x="325" y="686"/>
      <point x="333" y="760" type="curve"/>
      <point x="272" y="773" type="line"/>
      <point x="258" y="730"/>
      <point x="227" y="713"/>
      <point x="180" y="713" type="curve" smooth="yes"/>
      <point x="133" y="713"/>
      <point x="105" y="730"/>
      <point x="91" y="773" type="curve"/>
      <point x="30" y="760" type="line"/>
      <point x="38" y="686"/>
      <point x="100" y="643"/>
      <point x="180" y="643" type="curve" smooth="yes"/>
    </contour>
    <contour>
      <point x="182" y="527" type="move" name="_top"/>
    </contour>
  </outline>
</glyph>
<glyph name="breve-cy.sc" format="1">
  <advance width="363"/>
  <outline>
    <component base="breve-cy" yOffset="30"/>
    <contour>
      <point x="182" y="564" type="move" name="_top"/>
    </contour>
  </outline>
</glyph>
<glyph name="breveacute.case" format="1">
  <advance width="363"/>
  <outline>
    <component base="breve.case" yOffset="-18"/>
    <component base="acutedbl" xOffset="110" yOffset="247"/>
    <contour>
      <point x="182" y="689" type="move" name="_top"/>
    </contour>
  </outline>
</glyph>
<glyph name="brevegrave.case" format="1">
  <advance width="363"/>
  <outline>
    <component base="breve.case" yOffset="-18"/>
    <component base="gravedbl" xOffset="1" yOffset="247"/>
    <contour>
      <point x="182" y="689" type="move" name="_top"/>
    </contour>
  </outline>
</glyph>
<glyph name="brevetilde.case" format="1">
  <advance width="396"/>
  <outline>
    <component base="breve.case" xOffset="19" yOffset="-18"/>
    <component base="tildedbl" xOffset="2" yOffset="247"/>
    <contour>
      <point x="201" y="689" type="move" name="_top"/>
    </contour>
  </outline>
</glyph>
<glyph name="c.sc" format="1">
  <advance width="502"/>
  <outline>
    <contour>
      <point x="168" y="574"/>
      <point x="55" y="471"/>
      <point x="55" y="284" type="curve" smooth="yes"/>
      <point x="55" y="92"/>
      <point x="161" y="-11"/>
      <point x="308" y="-11" type="curve" smooth="yes"/>
      <point x="390" y="-11"/>
      <point x="449" y="21"/>
      <point x="482" y="55" type="curve"/>
      <point x="436" y="112" type="line"/>
      <point x="402" y="88"/>
      <point x="366" y="64"/>
      <point x="312" y="64" type="curve" smooth="yes"/>
      <point x="221" y="64"/>
      <point x="152" y="127"/>
      <point x="152" y="284" type="curve" smooth="yes"/>
      <point x="152" y="443"/>
      <point x="224" y="501"/>
      <point x="312" y="501" type="curve" smooth="yes"/>
      <point x="354" y="501"/>
      <point x="390" y="487"/>
      <point x="426" y="459" type="curve"/>
      <point x="474" y="516" type="line"/>
      <point x="427" y="553"/>
      <point x="382" y="574"/>
      <point x="306" y="574" type="curve" smooth="yes"/>
    </contour>
    <contour>
      <point x="311" y="564" type="move" name="top"/>
    </contour>
    <contour>
      <point x="310" y="0" type="move" name="bottom"/>
    </contour>
  </outline>
</glyph>
<glyph name="caron.alt" format="1">
  <advance width="164"/>
  <outline>
    <contour>
      <point x="62" y="513" type="line"/>
      <point x="115" y="505" type="line"/>
      <point x="161" y="689" type="line"/>
      <point x="78" y="699" type="line"/>
    </contour>
    <contour>
      <point x="30" y="689" type="move" name="_topright"/>
    </contour>
  </outline>
</glyph>
<glyph name="caroncombcomb" format="1">
  <advance width="392"/>
  <outline>
    <component base="uni030C"/>
    <contour>
      <point x="196" y="909" type="move" name="top"/>
    </contour>
    <contour>
      <point x="196" y="689" type="move" name="_top"/>
    </contour>
  </outline>
</glyph>
<glyph name="circumflex.case" format="1">
  <advance width="392"/>
  <outline>
    <contour>
      <point x="362" y="804" type="line"/>
      <point x="227" y="914" type="line"/>
      <point x="166" y="914" type="line"/>
      <point x="30" y="804" type="line"/>
      <point x="70" y="759" type="line"/>
      <point x="196" y="840" type="line"/>
      <point x="323" y="759" type="line"/>
    </contour>
    <contour>
      <point x="196" y="689" type="move" name="_top"/>
    </contour>
  </outline>
</glyph>
<glyph name="circumflexcombcomb" format="1">
  <advance width="392"/>
  <outline>
    <component base="uni0302"/>
    <contour>
      <point x="196" y="914" type="move" name="top"/>
    </contour>
    <contour>
      <point x="196" y="689" type="move" name="_top"/>
    </contour>
  </outline>
</glyph>
<glyph name="dagger.tf" format="1">
  <advance width="560"/>
  <outline>
    <contour>
      <point x="236" y="689" type="line"/>
      <point x="236" y="542" type="line"/>
      <point x="57" y="542" type="line"/>
      <point x="57" y="465" type="line"/>
      <point x="236" y="465" type="line"/>
      <point x="236" y="0" type="line"/>
      <point x="324" y="0" type="line"/>
      <point x="324" y="465" type="line"/>
      <point x="503" y="465" type="line"/>
      <point x="503" y="542" type="line"/>
      <point x="324" y="542" type="line"/>
      <point x="324" y="689" type="line"/>
    </contour>
  </outline>
</glyph>
<glyph name="delta.sc" format="1">
  <advance width="514"/>
  <outline>
    <contour>
      <point x="390" y="73" type="line"/>
      <point x="120" y="73" type="line"/>
      <point x="255" y="492" type="line"/>
    </contour>
    <contour>
      <point x="200" y="566" type="line"/>
      <point x="6" y="0" type="line"/>
      <point x="508" y="0" type="line"/>
      <point x="314" y="566" type="line"/>
    </contour>
  </outline>
</glyph>
<glyph name="descStraight-cy.case" format="1">
  <advance width="194"/>
  <outline>
    <contour>
      <point x="30" y="78" type="line"/>
      <point x="30" y="0" type="line"/>
      <point x="69" y="0" type="line"/>
      <point x="84" y="-150" type="line"/>
      <point x="159" y="-150" type="line"/>
      <point x="159" y="78" type="line"/>
    </contour>
    <contour>
      <point x="114" y="0" type="move" name="_bottom"/>
    </contour>
    <contour>
      <point x="99" y="0" type="move" name="_bottomleft"/>
    </contour>
    <contour>
      <point x="89" y="0" type="move" name="_bottomright"/>
    </contour>
  </outline>
</glyph>
<glyph name="dieresiscombcomb" format="1">
  <advance width="385"/>
  <outline>
    <component base="uni0308"/>
    <contour>
      <point x="193" y="894" type="move" name="top"/>
    </contour>
    <contour>
      <point x="193" y="689" type="move" name="_top"/>
    </contour>
  </outline>
</glyph>
<glyph name="dieresismacroncomb" format="1">
  <advance width="385"/>
  <outline>
    <component base="dieresis" yOffset="-30"/>
    <component base="macron" xOffset="26" yOffset="120"/>
    <contour>
      <point x="193" y="527" type="move" name="_top"/>
    </contour>
  </outline>
</glyph>
<glyph name="dollar.tf" format="1">
  <advance width="560"/>
  <outline>
    <contour>
      <point x="239" y="-1" type="line"/>
      <point x="239" y="-154" type="line"/>
      <point x="319" y="-154" type="line"/>
      <point x="319" y="8" type="line"/>
    </contour>
    <contour>
      <point x="239" y="847" type="line"/>
      <point x="239" y="663" type="line"/>
      <point x="319" y="665" type="line"/>
      <point x="319" y="847" type="line"/>
    </contour>
    <contour>
      <point x="150" y="695"/>
      <point x="62" y="622"/>
      <point x="62" y="519" type="curve" smooth="yes"/>
      <point x="62" y="414"/>
      <point x="131" y="364"/>
      <point x="262" y="324" type="curve" smooth="yes"/>
      <point x="377" y="288"/>
      <point x="408" y="259"/>
      <point x="408" y="193" type="curve" smooth="yes"/>
      <point x="408" y="112"/>
      <point x="342" y="73"/>
      <point x="263" y="73" type="curve" smooth="yes"/>
      <point x="189" y="73"/>
      <point x="134" y="99"/>
      <point x="88" y="143" type="curve"/>
      <point x="35" y="83" type="line"/>
      <point x="90" y="29"/>
      <point x="167" y="-4"/>
      <point x="264" y="-4" type="curve" smooth="yes"/>
      <point x="416" y="-4"/>
      <point x="505" y="79"/>
      <point x="505" y="196" type="curve" smooth="yes"/>
      <point x="505" y="326"/>
      <point x="413" y="368"/>
      <point x="305" y="401" type="curve" smooth="yes"/>
      <point x="183" y="438"/>
      <point x="157" y="466"/>
      <point x="157" y="523" type="curve" smooth="yes"/>
      <point x="157" y="587"/>
      <point x="211" y="619"/>
      <point x="279" y="619" type="curve" smooth="yes"/>
      <point x="335" y="619"/>
      <point x="383" y="601"/>
      <point x="430" y="558" type="curve"/>
      <point x="483" y="617" type="line"/>
      <point x="428" y="668"/>
      <point x="369" y="695"/>
      <point x="275" y="695" type="curve" smooth="yes"/>
    </contour>
    <contour>
      <point x="282" y="8" type="move" name="bottom"/>
    </contour>
  </outline>
</glyph>
<glyph name="eng.sc" format="1">
  <advance width="625"/>
  <outline>
    <contour>
      <point x="447" y="35" type="line"/>
      <point x="447" y="0" type="line" smooth="yes"/>
      <point x="447" y="-90"/>
      <point x="408" y="-118"/>
      <point x="332" y="-154" type="curve"/>
      <point x="358" y="-212" type="line"/>
      <point x="470" y="-162"/>
      <point x="525" y="-114"/>
      <point x="525" y="0" type="curve" smooth="yes"/>
      <point x="525" y="35" type="line"/>
    </contour>
    <component base="n.sc"/>
  </outline>
</glyph>
<glyph name="eth.sc" format="1">
  <advance width="562"/>
  <outline>
    <contour>
      <point x="278" y="256" type="line"/>
      <point x="278" y="325" type="line"/>
      <point x="75" y="325" type="line"/>
      <point x="15" y="325" type="line"/>
      <point x="15" y="256" type="line"/>
    </contour>
    <component base="d.sc" xOffset="-25"/>
  </outline>
</glyph>
<glyph name="f.sc" format="1">
  <advance width="449"/>
  <outline>
    <contour>
      <point x="100" y="564" type="line"/>
      <point x="100" y="0" type="line"/>
      <point x="192" y="0" type="line"/>
      <point x="192" y="243" type="line"/>
      <point x="383" y="243" type="line"/>
      <point x="383" y="313" type="line"/>
      <point x="192" y="313" type="line"/>
      <point x="192" y="493" type="line"/>
      <point x="413" y="493" type="line"/>
      <point x="424" y="564" type="line"/>
    </contour>
  </outline>
</glyph>
<glyph name="four.tosf" format="1">
  <advance width="560"/>
  <outline>
    <contour>
      <point x="51" y="104" type="line"/>
      <point x="51" y="40" type="line"/>
      <point x="538" y="40" type="line"/>
      <point x="538" y="111" type="line"/>
      <point x="148" y="111" type="line"/>
      <point x="329" y="542" type="line"/>
      <point x="252" y="574" type="line"/>
    </contour>
    <contour>
      <point x="363" y="293" type="line"/>
      <point x="354" y="95" type="line"/>
      <point x="354" y="-107" type="line"/>
      <point x="441" y="-107" type="line"/>
      <point x="441" y="293" type="line"/>
    </contour>
  </outline>
</glyph>
<glyph name="grave.case" format="1">
  <advance width="296"/>
  <outline>
    <contour>
      <point x="30" y="834" type="line"/>
      <point x="246" y="755" type="line"/>
      <point x="270" y="804" type="line"/>
      <point x="69" y="911" type="line"/>
    </contour>
    <contour>
      <point x="160" y="689" type="move" name="_top"/>
    </contour>
  </outline>
</glyph>
<glyph name="h.sc" format="1">
  <advance width="625"/>
  <outline>
    <contour>
      <point x="431" y="564" type="line"/>
      <point x="431" y="334" type="line"/>
      <point x="192" y="334" type="line"/>
      <point x="192" y="564" type="line"/>
      <point x="100" y="564" type="line"/>
      <point x="100" y="0" type="line"/>
      <point x="192" y="0" type="line"/>
      <point x="192" y="259" type="line"/>
      <point x="431" y="259" type="line"/>
      <point x="431" y="0" type="line"/>
      <point x="525" y="0" type="line"/>
      <point x="525" y="564" type="line"/>
    </contour>
    <contour>
      <point x="312" y="564" type="move" name="top"/>
    </contour>
    <contour>
      <point x="90" y="564" type="move" name="topleft"/>
    </contour>
    <contour>
      <point x="533" y="0" type="move" name="bottomright"/>
    </contour>
    <contour>
      <point x="312" y="283" type="move" name="center"/>
    </contour>
  </outline>
</glyph>
<glyph name="hbar.sc" format="1">
  <advance width="592"/>
  <outline>
    <contour>
      <point x="503" y="481" type="line"/>
      <point x="35" y="481" type="line"/>
      <point x="35" y="422" type="line"/>
      <point x="89" y="422" type="line"/>
      <point x="557" y="422" type="line"/>
      <point x="557" y="481" type="line"/>
    </contour>
    <component base="h.sc" xOffset="-11"/>
  </outline>
</glyph>
<glyph name="hookaboveHELPER2.case" format="1">
  <advance width="214"/>
  <outline>
    <contour>
      <point x="10" y="523"/>
      <point x="29" y="488"/>
      <point x="49" y="459" type="curve"/>
      <point x="119" y="494" type="line"/>
      <point x="108" y="518"/>
      <point x="99" y="539"/>
      <point x="99" y="564" type="curve" smooth="yes"/>
      <point x="99" y="596"/>
      <point x="116" y="614"/>
      <point x="153" y="614" type="curve" smooth="yes"/>
      <point x="184" y="614" type="line"/>
      <point x="184" y="689" type="line"/>
      <point x="156" y="689" type="line" smooth="yes"/>
      <point x="62" y="689"/>
      <point x="10" y="638"/>
      <point x="10" y="565" type="curve" smooth="yes"/>
    </contour>
  </outline>
</glyph>
<glyph name="hookaboveHELPER2.sc" format="1">
  <advance width="214"/>
  <outline>
    <contour>
      <point x="35" y="523"/>
      <point x="54" y="494"/>
      <point x="74" y="464" type="curve"/>
      <point x="136" y="498" type="line"/>
      <point x="125" y="522"/>
      <point x="116" y="543"/>
      <point x="116" y="568" type="curve" smooth="yes"/>
      <point x="116" y="600"/>
      <point x="133" y="618"/>
      <point x="170" y="618" type="curve" smooth="yes"/>
      <point x="184" y="618" type="line"/>
      <point x="184" y="689" type="line"/>
      <point x="176" y="689" type="line" smooth="yes"/>
      <point x="87" y="689"/>
      <point x="35" y="638"/>
      <point x="35" y="565" type="curve" smooth="yes"/>
    </contour>
  </outline>
</glyph>
<glyph name="hungarumlautcombcomb" format="1">
  <advance width="390"/>
  <outline>
    <component base="uni030B"/>
    <contour>
      <point x="143" y="958" type="move" name="top"/>
    </contour>
    <contour>
      <point x="143" y="689" type="move" name="_top"/>
    </contour>
  </outline>
</glyph>
<glyph name="i.sc" format="1">
  <advance width="293"/>
  <outline>
    <contour>
      <point x="100" y="564" type="line"/>
      <point x="100" y="0" type="line"/>
      <point x="193" y="0" type="line"/>
      <point x="193" y="564" type="line"/>
    </contour>
    <contour>
      <point x="203" y="0" type="move" name="ogonek"/>
    </contour>
    <contour>
      <point x="147" y="564" type="move" name="top"/>
    </contour>
    <contour>
      <point x="93" y="564" type="move" name="topleft"/>
    </contour>
  </outline>
</glyph>
<glyph name="j.sc" format="1">
  <advance width="286"/>
  <outline>
    <contour>
      <point x="99" y="564" type="line"/>
      <point x="99" y="84" type="line" smooth="yes"/>
      <point x="99" y="11"/>
      <point x="83" y="-23"/>
      <point x="5" y="-53" type="curve"/>
      <point x="29" y="-119" type="line"/>
      <point x="127" y="-90"/>
      <point x="191" y="-44"/>
      <point x="191" y="81" type="curve" smooth="yes"/>
      <point x="191" y="564" type="line"/>
    </contour>
    <contour>
      <point x="142" y="564" type="move" name="top"/>
    </contour>
  </outline>
</glyph>
<glyph name="jcrossedtaildotless" format="1">
  <advance width="307"/>
  <outline>
    <contour>
      <point x="146" y="-211"/>
      <point x="210" y="-145"/>
      <point x="210" y="-11" type="curve" smooth="yes"/>
      <point x="210" y="527" type="line"/>
      <point x="118" y="527" type="line"/>
      <point x="118" y="-25" type="line" smooth="yes"/>
      <point x="118" y="-106"/>
      <point x="100" y="-148"/>
      <point x="38" y="-148" type="curve" smooth="yes"/>
      <point x="1" y="-148"/>
      <point x="-18" y="-131"/>
      <point x="-18" y="-100" type="curve" smooth="yes"/>
      <point x="-18" y="-64"/>
      <point x="9" y="-45"/>
      <point x="59" y="-45" type="curve" smooth="yes"/>
      <point x="88" y="-45"/>
      <point x="111" y="-48"/>
      <point x="127" y="-53" type="curve"/>
      <point x="130" y="8" type="line"/>
      <point x="111" y="11"/>
      <point x="90" y="13"/>
      <point x="58" y="13" type="curve" smooth="yes"/>
      <point x="-32" y="13"/>
      <point x="-90" y="-30"/>
      <point x="-90" y="-104" type="curve" smooth="yes"/>
      <point x="-90" y="-168"/>
      <point x="-41" y="-211"/>
      <point x="39" y="-211" type="curve" smooth="yes"/>
    </contour>
    <contour>
      <point x="322" y="-48" type="line"/>
      <point x="279" y="-29"/>
      <point x="242" y="-16"/>
      <point x="195" y="-5" type="curve"/>
      <point x="193" y="-63" type="line"/>
      <point x="236" y="-73"/>
      <point x="262" y="-83"/>
      <point x="300" y="-98" type="curve"/>
    </contour>
    <contour>
      <point x="164" y="527" type="move" name="top"/>
    </contour>
  </outline>
</glyph>
<glyph name="k.sc" format="1">
  <advance width="536"/>
  <outline>
    <contour>
      <point x="417" y="564" type="line"/>
      <point x="196" y="302" type="line"/>
      <point x="425" y="0" type="line"/>
      <point x="536" y="0" type="line"/>
      <point x="300" y="308" type="line"/>
      <point x="520" y="564" type="line"/>
    </contour>
    <contour>
      <point x="100" y="564" type="line"/>
      <point x="100" y="0" type="line"/>
      <point x="192" y="0" type="line"/>
      <point x="192" y="564" type="line"/>
    </contour>
    <contour>
      <point x="302" y="564" type="move" name="top"/>
    </contour>
    <contour>
      <point x="293" y="0" type="move" name="bottom"/>
    </contour>
  </outline>
</glyph>
<glyph name="l.sc" format="1">
  <advance width="456"/>
  <outline>
    <contour>
      <point x="100" y="564" type="line"/>
      <point x="100" y="0" type="line"/>
      <point x="425" y="0" type="line"/>
      <point x="436" y="78" type="line"/>
      <point x="192" y="78" type="line"/>
      <point x="192" y="564" type="line"/>
    </contour>
    <contour>
      <point x="146" y="564" type="move" name="top"/>
    </contour>
    <contour>
      <point x="263" y="0" type="move" name="bottom"/>
    </contour>
    <contour>
      <point x="213" y="564" type="move" name="topright"/>
    </contour>
  </outline>
</glyph>
<glyph name="lambda.sc" format="1">
  <advance width="519"/>
  <outline>
    <contour>
      <point x="210" y="564" type="line"/>
      <point x="20" y="0" type="line"/>
      <point x="114" y="0" type="line"/>
      <point x="266" y="489" type="line"/>
      <point x="416" y="0" type="line"/>
      <point x="513" y="0" type="line"/>
      <point x="324" y="564" type="line"/>
    </contour>
  </outline>
</glyph>
<glyph name="lslash.sc" format="1">
  <advance width="461"/>
  <outline>
    <contour>
      <point x="107" y="271" type="line"/>
      <point x="22" y="218" type="line"/>
      <point x="57" y="162" type="line"/>
      <point x="374" y="358" type="line"/>
      <point x="339" y="414" type="line"/>
    </contour>
    <component base="l.sc" xOffset="5"/>
  </outline>
</glyph>
<glyph name="minus.dnom" format="1">
  <advance width="400"/>
  <outline>
    <contour>
      <point x="326" y="171" type="line"/>
      <point x="326" y="236" type="line"/>
      <point x="74" y="236" type="line"/>
      <point x="74" y="171" type="line"/>
    </contour>
  </outline>
</glyph>
<glyph name="nine.tf" format="1">
  <advance width="560"/>
  <outline>
    <contour>
      <point x="151" y="701"/>
      <point x="51" y="620"/>
      <point x="51" y="472" type="curve"/>
      <point x="51" y="335"/>
      <point x="134" y="251"/>
      <point x="240" y="251" type="curve" smooth="yes"/>
      <point x="314" y="251"/>
      <point x="369" y="292"/>
      <point x="396" y="338" type="curve"/>
      <point x="401" y="420" type="line"/>
      <point x="368" y="362"/>
      <point x="322" y="323"/>
      <point x="259" y="323" type="curve" smooth="yes"/>
      <point x="192" y="323"/>
      <point x="146" y="367"/>
      <point x="146" y="470" type="curve"/>
      <point x="146" y="574"/>
      <point x="191" y="628"/>
      <point x="269" y="628" type="curve" smooth="yes"/>
      <point x="359" y="628"/>
      <point x="400" y="566"/>
      <point x="393" y="387" type="curve"/>
      <point x="392" y="341" type="line"/>
      <point x="390" y="175"/>
      <point x="280" y="96"/>
      <point x="105" y="47" type="curve"/>
      <point x="126" y="-22" type="line"/>
      <point x="377" y="49"/>
      <point x="489" y="142"/>
      <point x="489" y="433" type="curve" smooth="yes"/>
      <point x="489" y="597"/>
      <point x="416" y="701"/>
      <point x="269" y="701" type="curve" smooth="yes"/>
    </contour>
  </outline>
</glyph>
<glyph name="oe.sc" format="1">
  <advance width="797"/>
  <outline>
    <contour>
      <point x="158" y="577"/>
      <point x="55" y="468"/>
      <point x="55" y="282" type="curve" smooth="yes"/>
      <point x="55" y="93"/>
      <point x="158" y="-11"/>
      <point x="299" y="-11" type="curve" smooth="yes"/>
      <point x="345" y="-11"/>
      <point x="390" y="4"/>
      <point x="419" y="34" type="curve"/>
      <point x="502" y="80"/>
      <point x="548" y="172"/>
      <point x="548" y="283" type="curve" smooth="yes"/>
      <point x="548" y="394"/>
      <point x="507" y="483"/>
      <point x="433" y="528" type="curve"/>
      <point x="397" y="561"/>
      <point x="350" y="577"/>
      <point x="299" y="577" type="curve" smooth="yes"/>
    </contour>
    <contour>
      <point x="450" y="71" type="line"/>
      <point x="363" y="0" type="line"/>
      <point x="743" y="0" type="line"/>
      <point x="743" y="71" type="line"/>
    </contour>
    <contour>
      <point x="495" y="323" type="line"/>
      <point x="495" y="252" type="line"/>
      <point x="698" y="252" type="line"/>
      <point x="698" y="323" type="line"/>
    </contour>
    <contour>
      <point x="364" y="566" type="line"/>
      <point x="459" y="495" type="line"/>
      <point x="728" y="495" type="line"/>
      <point x="738" y="566" type="line"/>
    </contour>
    <contour>
      <point x="391" y="504"/>
      <point x="450" y="440"/>
      <point x="450" y="283" type="curve" smooth="yes"/>
      <point x="450" y="124"/>
      <point x="390" y="62"/>
      <point x="301" y="62" type="curve" smooth="yes"/>
      <point x="216" y="62"/>
      <point x="152" y="124"/>
      <point x="152" y="282" type="curve" smooth="yes"/>
      <point x="152" y="440"/>
      <point x="214" y="504"/>
      <point x="301" y="504" type="curve" smooth="yes"/>
    </contour>
  </outline>
</glyph>
<glyph name="parenright.dnom" format="1">
  <advance width="395"/>
  <outline>
    <contour>
      <point x="115" y="482" type="line"/>
      <point x="169" y="399"/>
      <point x="204" y="326"/>
      <point x="204" y="194" type="curve"/>
      <point x="204" y="62"/>
      <point x="169" y="-11"/>
      <point x="115" y="-94" type="curve"/>
      <point x="164" y="-127" type="line"/>
      <point x="226" y="-37"/>
      <point x="280" y="45"/>
      <point x="280" y="194" type="curve"/>
      <point x="280" y="343"/>
      <point x="226" y="425"/>
      <point x="164" y="515" type="curve"/>
    </contour>
  </outline>
</glyph>
<glyph name="partialdiff.tf" format="1">
  <advance width="560"/>
  <outline>
    <contour>
      <point x="123" y="654" type="line"/>
      <point x="290" y="605"/>
      <point x="382" y="494"/>
      <point x="385" y="334" type="curve"/>
      <point x="386" y="277" type="line"/>
      <point x="391" y="128"/>
      <point x="345" y="61"/>
      <point x="263" y="61" type="curve" smooth="yes"/>
      <point x="191" y="61"/>
      <point x="143" y="115"/>
      <point x="143" y="215" type="curve" smooth="yes"/>
      <point x="143" y="309"/>
      <point x="193" y="355"/>
      <point x="254" y="355" type="curve" smooth="yes"/>
      <point x="314" y="355"/>
      <point x="359" y="320"/>
      <point x="387" y="261" type="curve"/>
      <point x="392" y="337" type="line"/>
      <point x="362" y="387"/>
      <point x="309" y="427"/>
      <point x="240" y="427" type="curve" smooth="yes"/>
      <point x="135" y="427"/>
      <point x="50" y="343"/>
      <point x="50" y="211" type="curve" smooth="yes"/>
      <point x="50" y="66"/>
      <point x="148" y="-12"/>
      <point x="262" y="-12" type="curve" smooth="yes"/>
      <point x="397" y="-12"/>
      <point x="480" y="100"/>
      <point x="480" y="261" type="curve" smooth="yes"/>
      <point x="480" y="526"/>
      <point x="375" y="655"/>
      <point x="144" y="721" type="curve"/>
    </contour>
  </outline>
</glyph>
<glyph name="plus.dnom" format="1">
  <advance width="401"/>
  <outline>
    <contour>
      <point x="165" y="325" type="line"/>
      <point x="165" y="236" type="line"/>
      <point x="74" y="236" type="line"/>
      <point x="74" y="171" type="line"/>
      <point x="165" y="171" type="line"/>
      <point x="165" y="84" type="line"/>
      <point x="236" y="84" type="line"/>
      <point x="236" y="171" type="line"/>
      <point x="327" y="171" type="line"/>
      <point x="327" y="236" type="line"/>
      <point x="236" y="236" type="line"/>
      <point x="236" y="325" type="line"/>
    </contour>
  </outline>
</glyph>
<glyph name="product.tf" format="1">
  <advance width="560"/>
  <outline>
    <contour>
      <point x="38" y="696" type="line"/>
      <point x="38" y="620" type="line"/>
      <point x="110" y="620" type="line"/>
      <point x="110" y="-213" type="line"/>
      <point x="200" y="-202" type="line"/>
      <point x="200" y="620" type="line"/>
      <point x="365" y="620" type="line"/>
      <point x="365" y="-213" type="line"/>
      <point x="455" y="-202" type="line"/>
      <point x="455" y="620" type="line"/>
      <point x="522" y="620" type="line"/>
      <point x="522" y="696" type="line"/>
    </contour>
  </outline>
</glyph>
<glyph name="psi.sc" format="1">
  <advance width="620"/>
  <outline>
    <contour>
      <point x="287" y="225" type="line"/>
      <point x="172" y="228"/>
      <point x="125" y="267"/>
      <point x="125" y="354" type="curve" smooth="yes"/>
      <point x="125" y="564" type="line"/>
      <point x="35" y="564" type="line"/>
      <point x="35" y="350" type="line" smooth="yes"/>
      <point x="35" y="230"/>
      <point x="116" y="163"/>
      <point x="283" y="154" type="curve"/>
    </contour>
    <contour>
      <point x="335" y="154" type="line"/>
      <point x="492" y="163"/>
      <point x="585" y="227"/>
      <point x="585" y="352" type="curve" smooth="yes"/>
      <point x="585" y="564" type="line"/>
      <point x="493" y="564" type="line"/>
      <point x="493" y="354" type="line" smooth="yes"/>
      <point x="493" y="267"/>
      <point x="442" y="229"/>
      <point x="331" y="225" type="curve"/>
    </contour>
    <contour>
      <point x="353" y="213" type="line"/>
      <point x="353" y="564" type="line"/>
      <point x="266" y="564" type="line"/>
      <point x="266" y="213" type="line"/>
      <point x="263" y="169" type="line"/>
      <point x="263" y="0" type="line"/>
      <point x="356" y="0" type="line"/>
      <point x="356" y="169" type="line"/>
    </contour>
  </outline>
</glyph>
<glyph name="r.sc" format="1">
  <advance width="552"/>
  <outline>
    <contour>
      <point x="100" y="564" type="line"/>
      <point x="100" y="0" type="line"/>
      <point x="192" y="0" type="line"/>
      <point x="192" y="495" type="line"/>
      <point x="262" y="495" type="line" smooth="yes"/>
      <point x="355" y="495"/>
      <point x="397" y="467"/>
      <point x="397" y="401" type="curve" smooth="yes"/>
      <point x="397" y="328"/>
      <point x="351" y="302"/>
      <point x="271" y="302" type="curve" smooth="yes"/>
      <point x="179" y="302" type="line"/>
      <point x="179" y="234" type="line"/>
      <point x="294" y="234" type="line"/>
      <point x="426" y="256"/>
      <point x="493" y="302"/>
      <point x="493" y="401" type="curve" smooth="yes"/>
      <point x="493" y="509"/>
      <point x="415" y="564"/>
      <point x="263" y="564" type="curve" smooth="yes"/>
    </contour>
    <contour>
      <point x="272" y="245" type="line"/>
      <point x="418" y="0" type="line"/>
      <point x="527" y="0" type="line"/>
      <point x="362" y="258" type="line"/>
    </contour>
    <contour>
      <point x="279" y="564" type="move" name="top"/>
    </contour>
    <contour>
      <point x="286" y="0" type="move" name="bottom"/>
    </contour>
  </outline>
</glyph>
<glyph name="s.sc" format="1">
  <advance width="489"/>
  <outline>
    <contour>
      <point x="132" y="574"/>
      <point x="50" y="513"/>
      <point x="50" y="422" type="curve" smooth="yes"/>
      <point x="50" y="336"/>
      <point x="108" y="291"/>
      <point x="228" y="256" type="curve" smooth="yes"/>
      <point x="327" y="227"/>
      <point x="353" y="205"/>
      <point x="353" y="153" type="curve" smooth="yes"/>
      <point x="353" y="93"/>
      <point x="299" y="62"/>
      <point x="231" y="62" type="curve" smooth="yes"/>
      <point x="167" y="62"/>
      <point x="117" y="84"/>
      <point x="76" y="121" type="curve"/>
      <point x="25" y="64" type="line"/>
      <point x="74" y="18"/>
      <point x="144" y="-11"/>
      <point x="233" y="-11" type="curve" smooth="yes"/>
      <point x="369" y="-11"/>
      <point x="449" y="59"/>
      <point x="449" y="158" type="curve" smooth="yes"/>
      <point x="449" y="265"/>
      <point x="371" y="303"/>
      <point x="273" y="332" type="curve" smooth="yes"/>
      <point x="168" y="363"/>
      <point x="144" y="383"/>
      <point x="144" y="427" type="curve" smooth="yes"/>
      <point x="144" y="477"/>
      <point x="190" y="501"/>
      <point x="248" y="501" type="curve" smooth="yes"/>
      <point x="298" y="501"/>
      <point x="340" y="486"/>
      <point x="381" y="451" type="curve"/>
      <point x="432" y="506" type="line"/>
      <point x="383" y="550"/>
      <point x="328" y="574"/>
      <point x="244" y="574" type="curve" smooth="yes"/>
    </contour>
    <contour>
      <point x="245" y="564" type="move" name="top"/>
    </contour>
    <contour>
      <point x="241" y="0" type="move" name="bottom"/>
    </contour>
  </outline>
</glyph>
<glyph name="seven.tosf" format="1">
  <advance width="560"/>
  <outline>
    <contour>
      <point x="51" y="564" type="line"/>
      <point x="51" y="489" type="line"/>
      <point x="372" y="489" type="line"/>
      <point x="131" y="-91" type="line"/>
      <point x="215" y="-119" type="line"/>
      <point x="465" y="495" type="line"/>
      <point x="465" y="564" type="line"/>
    </contour>
  </outline>
</glyph>
<glyph name="sigma.sc" format="1">
  <advance width="451"/>
  <outline>
    <contour>
      <point x="40" y="564" type="line"/>
      <point x="40" y="491" type="line"/>
      <point x="228" y="278" type="line"/>
      <point x="40" y="72" type="line"/>
      <point x="40" y="0" type="line"/>
      <point x="411" y="0" type="line"/>
      <point x="411" y="73" type="line"/>
      <point x="143" y="73" type="line"/>
      <point x="311" y="254" type="line"/>
      <point x="311" y="306" type="line"/>
      <point x="143" y="491" type="line"/>
      <point x="411" y="491" type="line"/>
      <point x="411" y="564" type="line"/>
    </contour>
  </outline>
</glyph>
<glyph name="sterling.tosf" format="1">
  <advance width="560"/>
  <outline>
    <contour>
      <point x="219" y="679"/>
      <point x="152" y="600"/>
      <point x="152" y="493" type="curve"/>
      <point x="152" y="205" type="line"/>
      <point x="152" y="123"/>
      <point x="138" y="98"/>
      <point x="70" y="73" type="curve"/>
      <point x="70" y="0" type="line"/>
      <point x="486" y="0" type="line"/>
      <point x="497" y="77" type="line"/>
      <point x="182" y="77" type="line"/>
      <point x="231" y="104"/>
      <point x="243" y="139"/>
      <point x="243" y="204" type="curve"/>
      <point x="243" y="494" type="line"/>
      <point x="243" y="566"/>
      <point x="281" y="604"/>
      <point x="340" y="604" type="curve" smooth="yes"/>
      <point x="385" y="604"/>
      <point x="418" y="587"/>
      <point x="449" y="550" type="curve"/>
      <point x="510" y="596" type="line"/>
      <point x="462" y="653"/>
      <point x="404" y="679"/>
      <point x="336" y="679" type="curve" smooth="yes"/>
    </contour>
    <contour>
      <point x="86" y="382" type="line"/>
      <point x="86" y="322" type="line"/>
      <point x="446" y="322" type="line"/>
      <point x="446" y="382" type="line"/>
    </contour>
  </outline>
</glyph>
